<svg xmlns="http://www.w3.org/2000/svg" width="141" height="64" fill="none"><g fill="#232343" clip-path="url('#clip0_34155_490283')"><path fill-rule="evenodd" d="M29.208 35.465 18.132 26.66s-.395-.282-.965-.282-.968.282-.968.282L4.538 35.524l-.875.638 1.741 3.268.513-.43 11.25-8.554 10.646 8.51.427.33 2.36-3.068z" clip-rule="evenodd"/><path fill-rule="evenodd" d="M.578 32.637c0 8.917 7.291 16.145 16.286 16.145S33.15 41.554 33.15 32.637 25.86 16.492 16.864 16.492.578 23.72.578 32.637m28.953 0c0 6.935-5.671 12.558-12.667 12.558S4.197 39.572 4.197 32.637 9.868 20.08 16.864 20.08s12.667 5.622 12.667 12.557M139.578 37.414c0-7.66-3.759-11.72-10.42-11.72-6.633 0-10.42 4.077-10.42 11.72 0 7.652 3.798 11.767 10.42 11.767 6.652 0 10.42-4.097 10.42-11.767m-4.244 0c0 5.422-2.066 7.883-6.176 7.883s-6.175-2.461-6.175-7.883c0-5.352 2.084-7.836 6.175-7.836s6.176 2.484 6.176 7.836M107.467 41.95l6.031-14.629c.331-.82.964-1.349 1.963-1.349 1.174 0 2.099.917 2.099 2.081 0 .258-.041.468-.117.685-.012.039-.05.14-.054.153l-7.964 18.765c-.382.822-1.104 1.293-1.958 1.293-.855 0-1.576-.47-1.951-1.274l-7.964-18.762c-.011-.035-.05-.136-.063-.175a2 2 0 0 1-.115-.685c0-1.164.924-2.08 2.099-2.08.998 0 1.631.527 1.961 1.344zM92.426 43.377c-1.759 1.308-3.11 1.873-5.248 1.873-3.821 0-6.221-2.402-6.439-6.358h13.03c.952 0 1.64-.36 2.039-1.034.295-.498.405-1.09.429-1.91.005-.176.006-.316.006-.62 0-2.104-.559-4.303-1.766-6.039-1.595-2.293-4.168-3.595-7.766-3.595-6.469 0-10.233 4.314-10.233 11.72 0 7.781 3.828 11.767 10.7 11.767 1.96 0 3.697-.4 5.199-1.093 1.08-.5 1.952-1.114 2.52-1.678.471-.467.691-.862.691-1.489a1.95 1.95 0 0 0-1.958-1.941c-.472 0-.762.104-1.204.397m-11.643-8.276c.444-3.549 2.506-5.523 5.928-5.523 3.615 0 5.211 1.988 5.368 5.524zM69.741 14.386a2.1 2.1 0 0 1 2.1 2.081v26.462c0 1.531.37 2.043 1.266 2.043 1.094 0 2.005.883 2.005 1.988 0 1.106-.91 1.989-2.005 1.989-3.506 0-5.465-2.163-5.465-6.02V16.467c0-1.118.971-2.08 2.1-2.08" clip-rule="evenodd"/><path d="M48.513 44.51h13.328c1.128 0 2.052.916 2.052 2.034s-.924 2.034-2.052 2.034H46.32a2.17 2.17 0 0 1-2.193-2.173V18.368a2.17 2.17 0 0 1 2.193-2.174h15.006c1.127 0 2.052.916 2.052 2.035 0 1.118-.925 2.034-2.052 2.034H48.513v9.973h9.682c1.127 0 2.052.916 2.052 2.034s-.925 2.035-2.053 2.035h-9.68z"/></g><defs><clipPath id="clip0_34155_490283"><path fill="#fff" d="M.328 14h140v36h-140z"/></clipPath></defs></svg>