<svg xmlns="http://www.w3.org/2000/svg" width="225" height="64" fill="none"><g fill="#232343" clip-path="url('#clip0_34155_490268')"><path d="M218.917 19.961v14.224L208.275 20.03l-.051-.069h-4.986v24.02h5.413V29.287l11.052 14.694h4.625v-24.02zM187.652 19.558c-7.077 0-12.62 5.457-12.62 12.421v.08c0 7.03 5.397 12.332 12.554 12.332 7.074 0 12.616-5.452 12.616-12.412v-.082c-.001-7.033-5.396-12.339-12.55-12.339m-6.901 12.34c0-4.09 2.938-7.173 6.835-7.173 3.933 0 6.899 3.118 6.899 7.254v.08c0 4.092-2.938 7.178-6.833 7.178-3.934 0-6.901-3.12-6.901-7.258zM165.935 43.98h5.495V19.96h-5.495zM156.12 29.473c-4.086-1.061-4.913-1.554-4.913-2.935v-.078c0-1.168 1.093-1.893 2.852-1.893 1.804 0 3.756.756 5.966 2.312l.144.099 2.83-4.202-.125-.101c-2.483-2.031-5.428-3.06-8.753-3.06-4.924 0-8.363 3.007-8.363 7.311v.083c0 4.942 3.42 6.232 7.888 7.405 3.93 1.026 4.564 1.675 4.564 2.836v.064c0 1.281-1.195 2.047-3.196 2.047-2.385 0-4.563-.903-6.854-2.842l-.133-.112-3.263 3.964.123.112c2.701 2.47 6.264 3.828 10.034 3.828 5.393 0 8.743-2.882 8.743-7.521v-.052c0-4.401-3.015-6.087-7.544-7.265M136.477 43.98h5.485V19.96h-5.485zM127.345 19.961l-5.966 16.325-5.967-16.211-.042-.114h-6.022l9.575 24.189h4.754l9.585-24.189zM101.571 19.593l-.236-.093v5.665l.053.052c1.784 1.772 2.767 4.165 2.767 6.74v.057c0 2.56-.983 4.953-2.768 6.74l-.052.052V44.5l.237-.094c5.061-2.02 8.205-6.769 8.205-12.392v-.078c0-5.634-3.144-10.363-8.206-12.343M97.96 25.792a11.92 11.92 0 0 0-6.16-5.303 13.1 13.1 0 0 0-4.83-.908c-2.643 0-5.14.743-7.22 2.15-3.372 2.25-5.385 6.085-5.385 10.26v.068c0 4.243 1.963 7.986 5.388 10.275 2.136 1.383 4.548 2.085 7.168 2.085 1.72 0 3.409-.326 4.88-.937a12.17 12.17 0 0 0 6.159-5.361l.023-.041V25.833zM86.92 24.724c1.802 0 3.47.681 4.697 1.918 1.397 1.353 2.198 3.303 2.198 5.35v.067c0 2.114-.78 4.02-2.198 5.367-1.21 1.186-2.86 1.839-4.647 1.839-3.931 0-6.894-3.128-6.894-7.274v-.061c0-4.109 2.942-7.206 6.844-7.206M71.448 20.258c-3.377 2.588-5.393 6.962-5.393 11.7v.101c0 4.753 2.016 9.125 5.393 11.698l.276.21V20.046zM58.01 35.45c3.156-1.278 4.89-3.91 4.89-7.435v-.07c0-2.292-.707-4.198-2.041-5.51-1.614-1.642-3.94-2.474-6.913-2.474H43.09v24.02h5.478v-7.566h3.782l4.995 7.566h6.422zm-9.44-10.43h4.918c2.494 0 3.869 1.143 3.869 3.215v.058c0 1.945-1.431 3.153-3.735 3.153H48.57zM34.39 19.961v13.723c0 3.562-1.717 5.522-4.833 5.522-3.161 0-4.902-2.011-4.902-5.663V19.961h-5.474v13.69c0 6.907 3.65 10.713 10.278 10.713 6.624 0 10.422-3.96 10.422-10.864V19.961zM15.81 24.948V19.96H.328v24.02H15.81v-4.967H5.758v-4.64H15.81v-4.97H5.758v-4.456z"/></g><defs><clipPath id="clip0_34155_490268"><path fill="#fff" d="M.328 19.5h224v25h-224z"/></clipPath></defs></svg>