<svg xmlns="http://www.w3.org/2000/svg" width="255" height="64" fill="none"><path fill="#232343" d="M56.251 10.738H15.495c-.305 0-.597.12-.812.332a1.13 1.13 0 0 0-.337.803v9.858c0 .3.121.59.337.802.215.213.507.333.812.333h2.126c.305 0 .597.12.812.332s.337.502.337.803v17.213c0 .3-.121.59-.337.802a1.16 1.16 0 0 1-.812.333h-2.126c-.305 0-.597.12-.812.332a1.13 1.13 0 0 0-.337.803v8.643c0 .301.121.59.337.803.215.213.507.332.812.332h40.756c.305 0 .597-.12.813-.332s.337-.502.337-.803V11.873c0-.301-.122-.59-.337-.803a1.16 1.16 0 0 0-.813-.332M23.78 32.985l9.255 8.825a.28.28 0 0 1 .067.31.28.28 0 0 1-.268.178h-1.551a1.16 1.16 0 0 1-.793-.318l-9.45-8.984a.57.57 0 0 1-.13-.63.6.6 0 0 1 .13-.187l9.404-8.99c.214-.206.5-.322.799-.323h1.591a.29.29 0 0 1 .268.177.28.28 0 0 1-.067.31l-9.255 8.814a.57.57 0 0 0-.13.631q.046.106.13.187m20.63 1.06h-5.86a.58.58 0 0 0-.406.167.56.56 0 0 0-.168.401v7.168c0 .15-.06.295-.168.402a.58.58 0 0 1-.407.166h-.879a.58.58 0 0 1-.406-.166.56.56 0 0 1-.168-.402v-8.456c0-.3.121-.59.337-.802.215-.213.507-.333.812-.333h7.497c3.04 0 4.125-1.912 4.125-3.706 0-.88-.287-3.757-3.964-3.757h-8.233a.58.58 0 0 1-.406-.166.56.56 0 0 1-.168-.401v-.727c0-.15.06-.295.168-.401a.58.58 0 0 1 .407-.166h8.307c1.781 0 5.923.567 5.923 5.64 0 3.468-2.367 5.54-6.342 5.54"/><path fill="#232343" d="M15.53 24.898H2.24c-.635 0-1.149.508-1.149 1.134V39.16c0 .627.514 1.135 1.149 1.135H15.53c.634 0 1.149-.508 1.149-1.135V26.033c0-.627-.515-1.136-1.15-1.136M89.602 22.747h-2.574L75.423 33.46V22.747h-1.902v19.92h1.902v-6.84l3.86-3.557 8.28 10.397h2.459l-9.32-11.714zM92.992 22.747h-1.764v2.82h1.764zM92.992 28.269h-1.764v14.398h1.764zM97.513 31.645h-.057V28.24h-1.62v14.427h1.758V34.97c0-2.985 2.183-5.33 5.371-5.164v-1.731a5.38 5.38 0 0 0-3.346.86 5.27 5.27 0 0 0-2.106 2.71M116.438 28.269h-2.35l-7.997 6.974V22.746h-1.764v19.92h1.764v-5.47l2.821-2.43 5.739 7.9h2.206l-6.578-9.085zM195.199 42.667l-6.573-9.092 6.147-5.307h-2.344l-8.003 6.975V22.746h-1.758v19.92h1.758v-5.47l2.827-2.435 5.734 7.906zM124.952 27.849a5.45 5.45 0 0 0-3.049.801 5.35 5.35 0 0 0-2.075 2.348h-.058v-2.73h-1.666v19.756h1.764v-8.093h.051c.759 2.066 2.873 3.15 5.01 3.15 4.39 0 6.487-3.542 6.487-7.616 0-4.075-2.074-7.616-6.464-7.616m0 13.756c-3.751 0-5.061-3.155-5.061-6.14 0-3.264 1.149-6.135 5.061-6.135 3.355 0 4.723 3.15 4.723 6.135s-1.368 6.14-4.723 6.14M150.202 23.944h-1.763v4.325h-2.517v1.48h2.517v9.847c-.029 2.458.787 3.235 3.131 3.235.534 0 1.034-.057 1.568-.057V41.27q-.753.085-1.511.086c-1.258-.086-1.425-.755-1.425-1.902V29.75h2.948v-1.482h-2.936zM156.815 31.645h-.052V28.24h-1.626v14.427h1.764V34.97c0-2.985 2.178-5.33 5.366-5.164v-1.731a5.38 5.38 0 0 0-3.345.861 5.28 5.28 0 0 0-2.107 2.708M165.881 28.269h-1.764v14.398h1.764zM165.881 22.747h-1.764v2.82h1.764zM174.51 41.605c-3.378 0-5.056-3.07-5.056-6.14s1.678-6.135 5.056-6.135c2.298 0 3.608 1.31 4.085 3.456h1.764c-.391-3.292-2.769-4.937-5.849-4.937-4.418 0-6.819 3.49-6.819 7.616s2.401 7.616 6.819 7.616c3.217 0 5.487-2.117 5.958-5.579h-1.758c-.224 2.4-2.005 4.103-4.2 4.103M144.606 40.124v-7.639c0-3.842-2.769-4.625-5.308-4.625-3.298 0-5.676 1.447-5.843 4.824h1.764c.052-2.344 1.672-3.348 3.855-3.348 2.068 0 3.769.567 3.769 2.956 0 1.59-.81 1.782-2.264 1.953-3.797.442-7.739.567-7.739 4.625 0 2.9 2.178 4.21 4.838 4.21 2.763 0 4.021-1.06 5.251-2.927h.057c0 1.503.276 2.508 2.069 2.508q.58.012 1.149-.108v-1.481a1.6 1.6 0 0 1-.575.113.96.96 0 0 1-.773-.284.93.93 0 0 1-.25-.777m-1.763-3.036c.028 2.837-2.344 4.54-5.027 4.54-1.649 0-3.212-1.09-3.212-2.838 0-2.837 3.712-2.792 6.705-3.32.477-.085 1.258-.22 1.482-.64h.052zM206.189 22.747h-8.865v19.92h1.902v-8.542h6.963c3.579 0 5.929-2.088 5.929-5.675s-2.35-5.703-5.929-5.703m-.419 9.76h-6.544v-8.143h6.544c2.631 0 4.446 1.34 4.446 4.075s-1.815 4.069-4.446 4.069M215.565 31.645h-.057V28.24h-1.62v14.427h1.758V34.97c0-2.985 2.183-5.33 5.371-5.164v-1.731a5.38 5.38 0 0 0-3.346.86 5.28 5.28 0 0 0-2.106 2.71M224.631 22.747h-1.764v2.82h1.764zM224.631 28.269h-1.764v14.398h1.764zM233.392 41.605c-3.383 0-5.061-3.07-5.061-6.14s1.678-6.135 5.061-6.135c2.299 0 3.608 1.31 4.085 3.456h1.764c-.391-3.292-2.769-4.937-5.849-4.937-4.418 0-6.819 3.49-6.819 7.616s2.413 7.616 6.819 7.616c3.218 0 5.481-2.117 5.958-5.579h-1.746c-.236 2.4-2.028 4.103-4.212 4.103M247.215 27.86c-4.596 0-6.509 3.82-6.509 7.61 0 4.098 1.925 7.61 6.509 7.61 3.631 0 5.533-1.895 6.286-5.158h-1.758c-.575 2.174-1.96 3.683-4.528 3.683-3.384 0-4.722-3.098-4.751-5.675h11.094c.132-4.03-1.706-8.07-6.343-8.07m-4.751 6.606c.282-2.622 1.873-5.108 4.751-5.108s4.499 2.486 4.596 5.108z"/></svg>