<svg xmlns="http://www.w3.org/2000/svg" width="150" height="54" fill="none"><path fill="#232343" d="M64.171 1.166h1.57l6.267 9.561v-9.56h1.537v12.04h-1.517l-6.32-9.51v9.51h-1.537zM82.389 13.51a6.4 6.4 0 0 1-2.313-.405 5.1 5.1 0 0 1-1.796-1.217 5.7 5.7 0 0 1-1.157-1.99 8.2 8.2 0 0 1-.414-2.699 8.2 8.2 0 0 1 .414-2.708 5.9 5.9 0 0 1 1.174-1.99 5 5 0 0 1 1.797-1.23 6.1 6.1 0 0 1 2.295-.409 6.1 6.1 0 0 1 2.293.422A4.7 4.7 0 0 1 86.476 2.5a5.5 5.5 0 0 1 1.157 1.973c.291.864.432 1.77.416 2.68a8.3 8.3 0 0 1-.416 2.709 5.5 5.5 0 0 1-1.139 1.988c-.494.54-1.109.961-1.796 1.232a6.1 6.1 0 0 1-2.31.43m0-1.353a4 4 0 0 0 1.727-.354 3.4 3.4 0 0 0 1.26-.994 4.7 4.7 0 0 0 .76-1.57c.18-.67.267-1.363.26-2.057a7.4 7.4 0 0 0-.26-2.023 4.5 4.5 0 0 0-.776-1.589 3.35 3.35 0 0 0-1.244-1.011 3.95 3.95 0 0 0-1.727-.343 4.1 4.1 0 0 0-1.76.356 3.5 3.5 0 0 0-1.262.998 4.6 4.6 0 0 0-.759 1.585 7.8 7.8 0 0 0-.241 2.023 8 8 0 0 0 .241 2.058c.152.564.41 1.096.759 1.569a3.4 3.4 0 0 0 1.244.994c.557.25 1.165.373 1.778.362zM91.206 1.166h1.57l6.268 9.561v-9.56h1.537v12.04h-1.52l-6.319-9.51v9.51h-1.536zM64.171 20.95h7.649v1.366h-6.06v3.946h5.68v1.4h-5.68v5.33h-1.585zM74.642 20.95h1.584v7.27q0 1.87.709 2.798.71.93 2.376.927 1.676 0 2.365-.927.69-.925.691-2.799V20.95h1.584v7.27a7.2 7.2 0 0 1-.328 2.309 4 4 0 0 1-.915 1.569c-.4.422-.906.736-1.468.91a6.2 6.2 0 0 1-1.95.287q-2.229 0-3.454-1.215t-1.208-3.928zM87.411 20.95h1.573l6.267 9.561v-9.56h1.535v12.04h-1.519l-6.32-9.51v9.51h-1.536zM105.785 26.801h4.61v4.817a5.7 5.7 0 0 1-1.035.74 8 8 0 0 1-1.175.525c-.41.136-.833.237-1.261.302a8 8 0 0 1-1.26.102 6.6 6.6 0 0 1-2.434-.422 5 5 0 0 1-1.796-1.247 5.45 5.45 0 0 1-1.105-1.973 8.7 8.7 0 0 1-.38-2.666 8.1 8.1 0 0 1 .416-2.708 5.8 5.8 0 0 1 1.139-1.99 4.9 4.9 0 0 1 1.76-1.23 5.8 5.8 0 0 1 2.228-.422c.62-.01 1.237.076 1.83.253.492.138.951.373 1.346.691.381.304.697.676.933 1.097.251.439.437.91.553 1.4l-1.537.252a4.3 4.3 0 0 0-.38-.967 2.3 2.3 0 0 0-.594-.741 2.4 2.4 0 0 0-.899-.49 4.1 4.1 0 0 0-1.26-.168 3.7 3.7 0 0 0-1.693.371 3.25 3.25 0 0 0-1.208 1.012 4.9 4.9 0 0 0-.743 1.584 8 8 0 0 0-.234 2.053 8 8 0 0 0 .242 2.04c.142.565.394 1.098.743 1.569.337.431.775.778 1.277 1.012a4.2 4.2 0 0 0 1.796.354 6.7 6.7 0 0 0 1.745-.219 4.5 4.5 0 0 0 1.483-.69v-2.89h-3.107zM113.596 20.95h1.584v12.041h-1.584zM118.782 20.95h4.092a7.7 7.7 0 0 1 2.158.254c.489.118.944.343 1.331.657.32.251.559.587.689.967.132.386.199.79.198 1.198a2.83 2.83 0 0 1-.396 1.485q-.38.656-1.346 1.095c.367.133.71.32 1.018.557.261.187.484.422.655.69.169.24.287.51.347.794q.104.416.103.843c.003.472-.078.94-.242 1.383a2.74 2.74 0 0 1-.743 1.097c-.394.345-.86.6-1.366.75a7 7 0 0 1-2.089.271h-4.409zm4.3 5.093q1.4 0 2.002-.49.601-.488.606-1.465 0-.981-.658-1.418-.657-.437-2.21-.437h-2.493v3.81zm.051 5.666c.471.01.941-.04 1.398-.151.327-.077.634-.22.899-.422.22-.175.382-.41.466-.675.096-.294.143-.602.138-.91q0-1.063-.639-1.62-.64-.557-2.141-.58h-2.925v4.35zM130.556 20.95h1.584v10.668h6.389L138.285 33h-7.729zM141.123 20.95h7.977v1.366h-6.393v3.778h6.044v1.383h-6.044v4.14h6.718l-.26 1.366h-8.042zM64.171 40.79h1.585v10.658h6.388l-.241 1.383H64.17zM78.692 40.79h1.675l4.783 12.041h-1.727l-1.296-3.356h-5.283l-1.293 3.356h-1.658zm2.952 7.335-2.178-5.582-2.14 5.582zM87.564 40.79h4.091a7.7 7.7 0 0 1 2.159.252c.487.12.941.344 1.329.657.322.255.562.595.69.98.133.385.2.79.199 1.197a2.8 2.8 0 0 1-.396 1.483q-.377.66-1.347 1.097c.368.13.713.319 1.02.557.262.187.485.421.655.69.169.24.286.51.345.794.07.275.106.559.105.843.004.471-.078.94-.242 1.383a2.7 2.7 0 0 1-.742 1.095c-.394.342-.86.595-1.365.742a7 7 0 0 1-2.09.271h-4.411zm4.3 5.093q1.399 0 2.001-.489c.396-.338.604-.826.604-1.468s-.218-1.124-.655-1.416-1.163-.447-2.2-.447h-2.496v3.813zm.05 5.666c.471.011.942-.04 1.399-.153.326-.076.633-.219.899-.42.218-.176.38-.41.465-.675.096-.294.142-.602.139-.91q0-1.063-.64-1.62t-2.14-.58h-2.918v4.35zM100.486 49.413q.207 1.265 1.019 1.838.813.573 2.452.557c.455.011.909-.045 1.347-.168.322-.1.621-.261.879-.474.211-.19.372-.427.468-.69a2.65 2.65 0 0 0 .051-1.52 1.35 1.35 0 0 0-.345-.606 2.05 2.05 0 0 0-.683-.484 4.4 4.4 0 0 0-1.123-.32l-1.552-.27a9.4 9.4 0 0 1-1.624-.404 4.4 4.4 0 0 1-1.208-.64 2.7 2.7 0 0 1-.743-.997 3.8 3.8 0 0 1-.242-1.433 2.95 2.95 0 0 1 .345-1.45c.24-.414.57-.77.967-1.045.433-.294.92-.506 1.433-.625a7.6 7.6 0 0 1 1.797-.193 6.5 6.5 0 0 1 2.035.268c.494.139.953.374 1.349.693.333.276.598.622.776 1.012q.275.55.414 1.147l-1.485.286a3.6 3.6 0 0 0-.363-.894 1.75 1.75 0 0 0-.568-.657 2.4 2.4 0 0 0-.863-.407 5.1 5.1 0 0 0-1.262-.133c-.477-.01-.952.04-1.416.15-.331.08-.642.223-.915.422-.222.16-.395.376-.501.625-.092.243-.138.5-.136.759-.005.26.03.522.103.773.082.218.211.416.38.58.211.173.45.31.707.405q.524.174 1.071.269l1.727.303q1.917.355 2.814 1.18.897.826.897 2.395c.003.47-.097.937-.293 1.367-.191.425-.48.8-.845 1.095-.411.338-.887.59-1.401.743a6.5 6.5 0 0 1-1.98.269 8.3 8.3 0 0 1-1.98-.219 4.4 4.4 0 0 1-1.537-.657 3.46 3.46 0 0 1-1.054-1.16 4.2 4.2 0 0 1-.483-1.688zM53.943 6.702a3.603 3.603 0 0 0 .297-3.823 3.7 3.7 0 0 0-1.387-1.46 3.83 3.83 0 0 0-1.963-.54 3.83 3.83 0 0 0-1.963.54 3.7 3.7 0 0 0-1.386 1.46 3.6 3.6 0 0 0 .296 3.823c.352.469.811.85 1.342 1.112a3.86 3.86 0 0 0 3.422 0c.53-.262.99-.643 1.342-1.112M7.733 6.702a3.62 3.62 0 0 0 .669-2.742 3.67 3.67 0 0 0-1.512-2.4A3.84 3.84 0 0 0 4.083.906a3.78 3.78 0 0 0-2.458 1.477 3.62 3.62 0 0 0-.669 2.741 3.67 3.67 0 0 0 1.512 2.401 3.84 3.84 0 0 0 2.807.654 3.78 3.78 0 0 0 2.458-1.477M1.625 47.286a3.62 3.62 0 0 0-.669 2.741 3.67 3.67 0 0 0 1.512 2.401 3.84 3.84 0 0 0 2.807.654 3.78 3.78 0 0 0 2.458-1.477c.29-.392.499-.835.614-1.306a3.6 3.6 0 0 0-.456-2.783c-.26-.412-.6-.77-1-1.053a3.8 3.8 0 0 0-1.338-.6 3.86 3.86 0 0 0-2.849.446 3.7 3.7 0 0 0-1.079.977M47.606 47.286a3.602 3.602 0 0 0-.297 3.823 3.7 3.7 0 0 0 1.387 1.46 3.83 3.83 0 0 0 3.926 0 3.7 3.7 0 0 0 1.386-1.46 3.6 3.6 0 0 0-.297-3.823 3.8 3.8 0 0 0-1.341-1.113 3.86 3.86 0 0 0-3.423 0c-.53.263-.99.644-1.341 1.113M46.136 36.338a6.2 6.2 0 0 0-2.17-1.83 6.34 6.34 0 0 0-2.78-.685h-.096c-5.065-.021-7.907-1.756-7.937-6.927v-.08c0-5.262 3.169-6.82 7.878-6.82a6.3 6.3 0 0 0 3.036-.772 6.15 6.15 0 0 0 2.262-2.125 5.949 5.949 0 0 0 .236-5.926 6.1 6.1 0 0 0-2.086-2.29 6.34 6.34 0 0 0-6.054-.458 6.2 6.2 0 0 0-2.422 1.948 5.9 5.9 0 0 0-1.177 3.563c0 4.59-1.673 7.69-7.062 7.69-5.388 0-7.208-2.765-7.208-7.804a5.88 5.88 0 0 0-1.175-3.559 6.2 6.2 0 0 0-2.441-1.957 6.34 6.34 0 0 0-6.088.5 6.1 6.1 0 0 0-2.073 2.327 5.95 5.95 0 0 0 .337 5.958 6.16 6.16 0 0 0 2.323 2.09c.945.49 2.005.733 3.075.705 4.707 0 7.872 1.672 7.872 6.935v.08c-.03 5.198-2.864 6.984-7.981 6.984h-.016a6.3 6.3 0 0 0-3.033.782 6.15 6.15 0 0 0-2.255 2.13 5.95 5.95 0 0 0-.222 5.925 6.1 6.1 0 0 0 2.089 2.284 6.341 6.341 0 0 0 6.053.45 6.2 6.2 0 0 0 2.42-1.948 5.93 5.93 0 0 0 1.174-3.536v-.027c0-4.611 1.783-7.782 7.16-7.782h.021c5.359 0 7.092 3.126 7.1 7.695v.037c0 .957.231 1.9.676 2.753a6.1 6.1 0 0 0 1.881 2.153c.793.563 1.71.935 2.678 1.085.967.15 1.957.075 2.89-.22a6.24 6.24 0 0 0 2.472-1.477 6.05 6.05 0 0 0 1.517-2.412c.304-.91.383-1.877.231-2.822a6 6 0 0 0-1.105-2.617"/></svg>