<svg xmlns="http://www.w3.org/2000/svg" width="601" height="46" fill="none"><path fill="#232343" d="M106.2.8 82.5 45.6h7.7l5.2-10.1h30.7l5.2 10.1h7.7L115.3.8zm-7.4 28.4 12-22.6.2.4 11.7 22.2zM180.4.8v44.8h7V8.2l.4.4 34.4 37h9.1V.8h-7.1v37.5l-.4-.4L189.3.8zM294.1 14.7H280V21h14.1v24.6h7.1V21h14.1v-6.3h-14.1V7.1h21.6V.8h-50.3v6.3h21.6zM371.1 26.4h26.5v-6.3h-26.5v-13H411V.8h-46.9v44.8H411v-6.3h-39.9zM576.8.8h-9.2l-23.7 44.8h7.7l5.2-10.1h30.7l.1.1 5.1 10h7.7zm-16.5 28.4 12-22.6.2.4 11.7 22.2zM37.2.8H.5v44.8h7.1V28.3h29.6c7.6 0 13.8-6.2 13.8-13.8C50.9 7 44.8.8 37.2.8m0 21.2H7.6V7.1h29.6c4.1 0 7.4 3.3 7.4 7.4 0 4.2-3.3 7.5-7.4 7.5M492.5 28.1c6.6-1.2 11.4-6.9 11.4-13.6 0-7.6-6.2-13.7-13.8-13.7h-36.7v44.8h7.1V28.3h23.2l.1.1L496 45.6h8.2l-11.9-17.5zM460.6 22V7.1h29.6c4.1 0 7.4 3.3 7.4 7.4s-3.3 7.5-7.4 7.5z"/></svg>