<svg xmlns="http://www.w3.org/2000/svg" width="149" height="46" fill="none"><path fill="#232343" d="M53.718 17.7q.787-1.377 2.053-2.16 1.267-.781 2.898-.782v4.6h-1.077q-1.923 0-2.898.97t-.976 3.38v8.638h-4.077V15.009h4.077zm21.034 5.602q0 .938-.117 1.69H62.84q.145 1.877 1.223 2.941 1.078 1.065 2.65 1.064 2.272 0 3.233-2.097h4.398q-.7 2.504-2.68 4.116t-4.863 1.611q-2.33 0-4.18-1.11-1.85-1.112-2.883-3.146-1.034-2.033-1.034-4.694 0-2.692 1.02-4.725 1.018-2.035 2.854-3.13 1.834-1.095 4.223-1.095 2.3 0 4.12 1.064t2.826 3.02q1.005 1.956 1.005 4.49m-4.223-1.252q-.03-1.691-1.136-2.707-1.107-1.017-2.709-1.017-1.515 0-2.548.985-1.035.986-1.267 2.739zm11.713 10.577q-1.98 0-3.553-.767-1.574-.765-2.49-2.08a5.5 5.5 0 0 1-1.005-2.911h4.107q.116 1.001.917 1.659.801.657 1.995.657 1.166 0 1.82-.5.656-.502.656-1.284 0-.845-.801-1.267-.801-.423-2.549-.924-1.806-.468-2.956-.97a5.16 5.16 0 0 1-1.98-1.533q-.83-1.033-.83-2.785 0-1.44.771-2.629.772-1.19 2.214-1.878t3.393-.688q2.883 0 4.602 1.549 1.717 1.549 1.893 4.178h-3.903q-.087-1.033-.8-1.643-.715-.61-1.908-.61-1.107 0-1.704.438t-.597 1.22q0 .876.815 1.33.816.454 2.534.923 1.748.47 2.883.97 1.137.5 1.966 1.55.83 1.048.86 2.769 0 1.502-.772 2.691-.773 1.19-2.214 1.862t-3.364.673m12.792-14.02v8.387q0 .876.393 1.268.392.39 1.325.39h1.893v3.694h-2.563q-5.155 0-5.155-5.383v-8.356h-1.923V15.01h1.923V10.72h4.106v4.288h3.612v3.598zm3.85 5.008q0-2.63.975-4.663.976-2.035 2.65-3.13 1.675-1.095 3.743-1.095 1.806 0 3.16.782 1.354.783 2.17 1.972v-2.472h4.106v17.337h-4.106V29.81q-.787 1.22-2.17 2.018t-3.189.798a6.5 6.5 0 0 1-3.714-1.126q-1.675-1.126-2.65-3.177-.975-2.049-.976-4.71m12.698.062q0-1.596-.583-2.738-.582-1.143-1.572-1.753a4 4 0 0 0-2.127-.61q-1.136 0-2.097.595-.96.594-1.558 1.736-.597 1.143-.597 2.707 0 1.565.597 2.739.598 1.173 1.573 1.8a3.8 3.8 0 0 0 2.082.625q1.136 0 2.127-.61t1.572-1.753q.583-1.142.583-2.738m5.393 0q0-2.691 1.02-4.71 1.019-2.017 2.825-3.13 1.805-1.11 4.136-1.11 3 0 4.965 1.612 1.967 1.61 2.636 4.522h-4.398q-.35-1.126-1.179-1.768t-2.054-.642q-1.747 0-2.766 1.361-1.02 1.362-1.02 3.865 0 2.472 1.02 3.834 1.019 1.36 2.766 1.36 2.476 0 3.233-2.377h4.398q-.67 2.816-2.65 4.474-1.981 1.66-4.951 1.66-2.33 0-4.136-1.112-1.806-1.11-2.825-3.13-1.02-2.018-1.02-4.709m26.48 8.669-5.475-7.386v7.386h-4.078V9.188h4.078v13.175l5.417-7.354h5.301l-7.107 8.7 7.165 8.637z"/><path fill="#232343" fill-rule="evenodd" d="m6.552 23.065-4.71 3.972q-.397.337-.709.767c-1.395 1.93-1.07 4.71.725 6.21l11.548 9.65c2.483 2.073 5.957 2.073 8.44-.002l11.543-9.648q.399-.334.712-.762c1.404-1.923 1.092-4.705-.697-6.214l-4.708-3.973-6.822 5.702c-2.499 2.089-5.997 2.09-8.496.001zM28.696 23.045l-6.812-5.747c-2.5-2.11-6.017-2.11-8.517-.001l-6.815 5.748-4.708-3.934c-1.806-1.508-2.132-4.304-.729-6.245q.313-.432.714-.77l11.538-9.733c2.5-2.109 6.017-2.109 8.517 0l11.534 9.733c1.799 1.517 2.112 4.315.7 6.248a4.3 4.3 0 0 1-.715.766z" clip-rule="evenodd"/></svg>