<svg xmlns="http://www.w3.org/2000/svg" width="155" height="40" fill="none"><g fill="#232343" clip-path="url('#clip0_34809_488712')"><path d="m44.193.684 3.71 6.36 3.69 6.335-7.367.03-7.332.028 3.656-6.392zM29.519 26.259l-7.45-.555-7.593.584 3.864 6.466 3.683 6.54 3.67-6.578z"/><path d="m29.429 26.342-6.82-.005-8.033-.007 7.437-12.85 5.22 4.886z"/><path d="m21.98 13.427 7.618-1.068 7.296 1.078-3.794 6.44-3.671 6.465-3.682-6.504z"/><path d="m36.827 13.55 3.689-6.501 3.8-6.422-7.476.057-7.465-.08 2.88 7.012z"/><path d="m29.453.68 7.353 12.73H22.1z"/><path d="m36.827 13.55.097-.171h-.194zM14.72.727 7.468 13.283l-.02.127h14.505l.12-.047L14.821.806z"/><path d="M7.447 13.414.094.684H14.8z"/><path d="M22.1 13.414 29.453.684H14.747zM88.002 11.114h-10.97v28.18h-8.16v-28.18H56.848V3.463H88zm65.571 28.18h-6.527q-3.918 0-6.149-2.256t-2.23-6.335V18.906h-5.059v-5.384h5.059V3.354h7.126v10.168h7.78v5.384h-7.78v9.404q0 5.384 3.156 5.384h4.624zm-22.554 0h-7.182V24.617q0-2.448-.435-3.209-.98-1.794-4.515-1.794h-5.876v19.682h-7.072V13.522h13.6q5.93 0 8.487 1.958 2.992 2.284 2.993 8.211zm-39.116 0h7.344V13.523h-7.344zM100.089 11.114l-4.514-7.651-4.515 7.65z"/></g><defs><clipPath id="clip0_34809_488712"><path fill="#fff" d="M.077.42h154.18v39.16H.077z"/></clipPath></defs></svg>