<svg xmlns="http://www.w3.org/2000/svg" width="24" height="24" viewBox="0 0 24 24"><path d="M21.602 0H2.398A2.404 2.404 0 000 2.398v19.204A2.404 2.404 0 002.398 24h19.204A2.404 2.404 0 0024 21.602V2.398A2.404 2.404 0 0021.602 0zM7.199 20.398H3.602V9.602h3.597zM5.4 7.558a2.15 2.15 0 01-2.16-2.16c0-1.199.96-2.16 2.16-2.16 1.203 0 2.16.961 2.16 2.16 0 1.204-.957 2.16-2.16 2.16zm15 12.84H16.8V14.04c0-.96-.84-1.8-1.801-1.8-.96 0-1.8.84-1.8 1.8v6.36H9.601V9.601h3.597v1.437c.602-.96 1.922-1.68 3-1.68 2.281 0 4.2 1.922 4.2 4.2zm0 0"></path></svg>