<svg xmlns="http://www.w3.org/2000/svg" width="24" height="24" viewBox="0 0 24 24"><g fill="none" fill-rule="evenodd" stroke="none" stroke-width="1"><path fill="#30364D" d="M22 5.897a8.293 8.293 0 01-2.357.634 4.06 4.06 0 001.804-2.233c-.791.461-1.67.798-2.604.98A4.136 4.136 0 0015.848 4c-2.266 0-4.106 1.81-4.106 4.04 0 .318.036.625.108.92a11.693 11.693 0 01-8.457-4.22 3.96 3.96 0 00-.556 2.031c0 1.4.722 2.637 1.825 3.361a4.127 4.127 0 01-1.858-.506v.051c0 1.958 1.413 3.592 3.291 3.96a4.158 4.158 0 01-1.08.144 4.04 4.04 0 01-.772-.073c.52 1.605 2.038 2.771 3.831 2.806a8.316 8.316 0 01-5.094 1.727 8.23 8.23 0 01-.98-.058A11.736 11.736 0 008.29 20c7.548 0 11.676-6.155 11.676-11.492 0-.173-.007-.35-.014-.523A8.327 8.327 0 0022 5.897z"></path></g></svg>