<svg xmlns="http://www.w3.org/2000/svg" width="195" height="42" fill="none"><path fill="#232343" d="M60.432 32.95c5.578 0 9.246-2.838 10.594-7.519l-3.893-.922c-1.31 3.156-3.145 4.752-6.7 4.752-4.418 0-7.936-2.943-7.936-9.008s3.518-9.008 7.935-9.008c3.556 0 5.39 1.596 6.7 4.752l3.894-.922c-1.348-4.68-5.016-7.518-10.594-7.518-6.326 0-12.128 4.291-12.128 12.696S54.106 32.95 60.432 32.95m22.283 0c5.839 0 9.283-4.185 9.283-9.221s-3.444-9.221-9.283-9.221c-5.84 0-9.284 4.185-9.284 9.22 0 5.037 3.444 9.221 9.284 9.221m0-3.263c-3.407 0-5.166-2.944-5.166-5.958s1.76-5.958 5.166-5.958 5.165 2.943 5.165 5.958c0 3.014-1.76 5.958-5.165 5.958m17.079 2.979v-6.774c0-5.32 2.059-8.121 4.417-8.121 1.647 0 2.77.957 2.77 2.908v11.987h3.893v-7.164c0-4.93 2.096-7.731 4.417-7.731 1.647 0 2.77.957 2.77 2.908v11.987h3.893V19.863c0-3.12-1.947-5.355-5.391-5.355-2.433 0-4.566 1.348-5.876 3.688-.562-2.234-2.658-3.688-5.204-3.688-2.283 0-4.155 1.1-5.69 3.334v-3.05h-3.892v17.874zm30.779 0v-6.774c0-5.32 2.059-8.121 4.417-8.121 1.647 0 2.77.957 2.77 2.908v11.987h3.893v-7.164c0-4.93 2.096-7.731 4.417-7.731 1.647 0 2.77.957 2.77 2.908v11.987h3.893V19.863c0-3.12-1.947-5.355-5.39-5.355-2.433 0-4.567 1.348-5.877 3.688-.562-2.234-2.658-3.688-5.203-3.688-2.284 0-4.155 1.1-5.69 3.334v-3.05h-3.893v17.874zm35.084.283c5.84 0 9.283-4.184 9.283-9.22s-3.443-9.221-9.283-9.221-9.283 4.185-9.283 9.22c0 5.037 3.444 9.221 9.283 9.221m0-3.262c-3.406 0-5.165-2.944-5.165-5.958s1.759-5.958 5.165-5.958 5.166 2.943 5.166 5.958c0 3.014-1.76 5.958-5.166 5.958m16.817 2.979V25.43c0-4.93 2.396-7.66 4.829-7.66 1.759 0 2.92.85 2.92 3.262v11.633h3.893V19.863c0-3.476-2.246-5.355-5.54-5.355-2.508 0-4.754 1.206-6.102 3.334v-3.05h-3.893v17.874zM22.387 41.912.217 21 22.388.09 32.7 9.817 20.937 20.913l11.856 11.184zM4.968 21.082 22.243 37.43l5.573-5.274-11.794-11.162-5.556-5.116zm7.691-7.575 5.578 5.146 9.353-8.865-5.504-5.218z"/></svg>