<svg xmlns="http://www.w3.org/2000/svg" width="169" height="64" fill="none"><g fill="#232343" clip-path="url('#clip0_34155_490292')"><path d="M39.31 23.86c-2.415 0-4.776.726-6.784 2.085a12.34 12.34 0 0 0-4.498 5.555 12.53 12.53 0 0 0-.695 7.15 12.43 12.43 0 0 0 3.342 6.337 12.16 12.16 0 0 0 6.253 3.387c2.369.478 4.824.233 7.055-.704a12.25 12.25 0 0 0 5.48-4.558 12.5 12.5 0 0 0 2.058-6.876c0-3.282-1.286-6.43-3.576-8.751a12.13 12.13 0 0 0-8.635-3.625m0 21.323c-4.656 0-8.446-4.229-8.446-8.947s3.79-8.947 8.446-8.947 8.446 4.228 8.446 8.947-3.798 8.947-8.446 8.947M72.985 43.456c0 1.082-.636 1.727-1.424 1.727-.789 0-1.425-.645-1.425-1.727V29.068a5.25 5.25 0 0 0-1.505-3.683 5.1 5.1 0 0 0-3.634-1.525c-1.363 0-2.67.548-3.634 1.525a5.24 5.24 0 0 0-1.505 3.683v14.388c0 1.082-.636 1.727-1.424 1.727-.79 0-1.425-.645-1.425-1.727V24.22H53.32v19.183c0 .684.133 1.361.391 1.993a5.2 5.2 0 0 0 1.114 1.69 5.1 5.1 0 0 0 1.667 1.129 5.08 5.08 0 0 0 3.934 0 5.1 5.1 0 0 0 1.667-1.13 5.2 5.2 0 0 0 1.114-1.689 5.3 5.3 0 0 0 .39-1.993V29.016c0-1.082.637-1.727 1.425-1.727.79 0 1.425.644 1.425 1.727v14.388c0 1.381.542 2.706 1.505 3.683a5.1 5.1 0 0 0 3.634 1.525c1.363 0 2.67-.548 3.634-1.525a5.24 5.24 0 0 0 1.505-3.683V24.22h-3.689zM25.03 14.5h-3.816v33.7h3.816zM.328 48.2h3.816V33.22H16.33v-3.74H4.144V18.24h14.654V14.5H.328zM97.736 46.777a8.6 8.6 0 0 0 3.649-3.146 8.58 8.58 0 0 0 .392-8.181 8.6 8.6 0 0 0-2.316-2.912 6.75 6.75 0 0 0-3.198-1.443l-1.04-.168 1.002-.333a8.7 8.7 0 0 0 4.104-2.748c1.017-1.25 1.539-2.862 1.539-4.79a7.9 7.9 0 0 0-1.153-4.214 8 8 0 0 0-3.47-2.973c-1.552-.737-3.455-1.111-5.663-1.111H79.905v33.179H92.05c2.178 0 4.091-.392 5.686-1.16M83.744 29.05V17.867h7.457c2.15 0 3.815.516 4.981 1.514s1.76 2.429 1.76 4.208-.592 3.195-1.76 4.208-2.799 1.51-4.887 1.51h-7.559zm.254 15.775h-.254V32.42h7.79c2.18 0 3.953.565 5.266 1.681 1.312 1.117 2 2.682 2 4.62 0 1.94-.641 3.422-1.903 4.5s-3.007 1.606-5.22 1.606zM119.856 25.24a10.14 10.14 0 0 0-4.95-1.205c-2.798 0-5.104.797-6.869 2.367-1.766 1.57-2.786 3.59-3.144 6.095h3.576c.303-1.627.997-2.924 2.069-3.85 1.071-.925 2.503-1.425 4.189-1.425 1.865 0 3.351.616 4.42 1.83 1.068 1.215 1.63 2.88 1.689 4.967v.131h-7.393c-2.994 0-5.296.701-6.843 2.083a6.8 6.8 0 0 0-1.748 2.38 6.9 6.9 0 0 0-.575 2.909 6.64 6.64 0 0 0 .992 3.594 6.85 6.85 0 0 0 2.768 2.483 8.8 8.8 0 0 0 4.03.903 10.24 10.24 0 0 0 5.141-1.336c1.55-.885 2.692-2.011 3.394-3.352l.239-.456v4.705h3.694V34.196c0-2.116-.422-3.96-1.254-5.473a8.63 8.63 0 0 0-3.425-3.484m.985 12.01v.391a7.3 7.3 0 0 1-1.162 4.126 7.5 7.5 0 0 1-2.997 2.617 8.8 8.8 0 0 1-3.842.884c-1.488 0-2.678-.371-3.544-1.098a3.62 3.62 0 0 1-1.315-2.911 3.74 3.74 0 0 1 .336-1.678 3.7 3.7 0 0 1 1.046-1.344c.908-.743 2.289-1.12 4.07-1.12h7.398zM138.321 23.991a9.6 9.6 0 0 0-4.353.99 7.7 7.7 0 0 0-3.111 2.798l-.234.371v-3.723h-3.661v23.639h3.661V34.98c0-2.521.625-4.473 1.862-5.798s2.926-2.004 5.02-2.004 3.713.652 4.91 1.936c1.195 1.284 1.798 3.156 1.798 5.562v13.39h3.618V34.109c0-3.262-.886-5.791-2.628-7.516-1.743-1.725-4.063-2.602-6.882-2.602M163.344 48.066h4.984L157.386 36.29l-.084-.088.084-.087 10.896-11.688h-5.108l-9.042 10.55-.224.264V16.055h-3.661v32.01h3.661V37.304l.224.253z"/></g><defs><clipPath id="clip0_34155_490292"><path fill="#fff" d="M.328 14.5h168v35h-168z"/></clipPath></defs></svg>