<svg xmlns="http://www.w3.org/2000/svg" width="841" height="406" fill="none"><path stroke="url('#paint0_linear_0_4228')" d="M622.901 19.632 132.908 315.669"/><path stroke="url('#paint1_linear_0_4228')" d="M328.443.428 13.776 190.539"/><path stroke="url('#paint2_linear_0_4228')" d="M315.64 90.046.974 280.156"/><path stroke="#DEDFF4" stroke-dasharray="7 7" d="M566.71 253.928 171.772 36.712"/><path stroke="url('#paint3_linear_0_4228')" stroke-dasharray="7 7" d="M840.044 230.243 445.105 13.027"/><path stroke="#DEDFF4" d="M750.426 243.046 490.101 99.867"/><path stroke="url('#paint4_linear_0_4228')" stroke-dasharray="7 7" d="M597.296 109.249 107.303 405.286"/><path fill="#4548B0" fill-opacity=".1" stroke="#5D64D2" stroke-dasharray="7 7" d="m695.063 208.379-.434-.25-3.259 1.882c-.71.409-1.86.409-2.57 0l-3.171-1.831-.434.25-6.343-3.663.433-.25-6.344-3.662-.433.25-6.344-3.662.433-.25-6.344-3.662-.433.25-6.344-3.663.433-.25-6.344-3.662-.433.25-6.343-3.662.433-.25-6.344-3.663-.433.25-6.344-3.662.433-.25-6.344-3.662-.433.25-6.344-3.663.433-.25-6.344-3.662-.433.25-6.344-3.662.433-.25-3.171-1.831c-.71-.41-.71-1.074 0-1.484l3.259-1.881-.433-.25 6.52-3.764.433.25 6.52-3.764-.433-.25 6.52-3.764.433.25 6.519-3.764-.433-.25 6.52-3.764.433.25 6.52-3.764-.433-.249 6.52-3.764.433.25 3.259-1.882c.71-.41 1.86-.41 2.57 0l3.172 1.831.433-.25 6.343 3.662-.433.25 6.344 3.662.433-.249 6.344 3.662-.433.25 6.344 3.662.433-.25 6.344 3.662-.433.25 6.344 3.663.433-.25 6.344 3.662-.434.25 6.344 3.662.433-.25 6.344 3.663-.433.25 6.344 3.662.433-.25 6.344 3.662-.433.25 6.344 3.663.433-.25 6.344 3.662-.433.25 3.171 1.831c.71.41.71 1.074 0 1.483l-3.259 1.882.433.25-6.52 3.764-.433-.25-6.52 3.764.433.25-6.52 3.764-.433-.25-6.519 3.763.433.25-6.52 3.764-.433-.25-6.52 3.764.433.25zM82.768 224.667l-.429.257-6.707-3.717.428-.258-6.707-3.717-.429.257-6.707-3.717.428-.258-6.707-3.717-.429.257-6.708-3.717.43-.257-6.709-3.718-.428.258-6.708-3.718.429-.257-6.708-3.718-.428.258-6.708-3.718.429-.257-3.354-1.859c-.716-.397-.728-1.061-.026-1.483l2.953-1.774-.437-.242 5.905-3.549.438.243 5.905-3.549-.437-.242 5.906-3.549.437.243 5.906-3.549-.438-.242 5.906-3.549.437.243 5.906-3.549-.437-.242 5.905-3.549.438.243 5.905-3.549-.437-.242 5.905-3.549.438.243 5.906-3.549-.438-.242 5.906-3.549.437.243 5.906-3.549-.437-.242 5.905-3.548.437.242 2.953-1.774c.702-.422 1.853-.442 2.569-.045l3.354 1.858.428-.257 6.708 3.717-.429.258 6.708 3.717.428-.257 6.708 3.717-.429.258 6.708 3.717.429-.257 6.707 3.717-.428.257 6.707 3.718.429-.258 6.707 3.718-.428.257 6.707 3.718.429-.258 6.707 3.717-.428.258 3.354 1.859c.716.397.728 1.061.025 1.483l-2.952 1.774.437.242-5.906 3.549-.437-.243-5.906 3.549.438.242-5.906 3.549-.437-.243-5.906 3.549.437.242-5.905 3.549-.438-.243-5.905 3.549.437.242-5.906 3.549-.437-.243-5.906 3.549.438.242-5.906 3.549-.437-.243-5.906 3.549.437.242-5.905 3.548-.437-.242-5.906 3.549.437.242-5.906 3.548-.437-.242-2.953 1.774c-.702.422-1.852.442-2.568.045z"/><defs><linearGradient id="paint0_linear_0_4228" x1="536.713" x2="611.932" y1="70.161" y2="26.067" gradientUnits="userSpaceOnUse"><stop stop-color="#DEDFF4"/><stop offset="1" stop-color="#DEDFF4" stop-opacity="0"/></linearGradient><linearGradient id="paint1_linear_0_4228" x1="247.93" x2="322.97" y1="52.861" y2="7.181" gradientUnits="userSpaceOnUse"><stop stop-color="#DEDFF4"/><stop offset="1" stop-color="#DEDFF4" stop-opacity="0"/></linearGradient><linearGradient id="paint2_linear_0_4228" x1="235.128" x2="310.168" y1="142.479" y2="96.798" gradientUnits="userSpaceOnUse"><stop stop-color="#DEDFF4"/><stop offset="1" stop-color="#DEDFF4" stop-opacity="0"/></linearGradient><linearGradient id="paint3_linear_0_4228" x1="427.326" x2="495.351" y1="-1.023" y2="37.087" gradientUnits="userSpaceOnUse"><stop stop-color="#DEDFF4" stop-opacity="0"/><stop offset=".45" stop-color="#DEDFF4"/></linearGradient><linearGradient id="paint4_linear_0_4228" x1="470.989" x2="587.706" y1="189.35" y2="118" gradientUnits="userSpaceOnUse"><stop stop-color="#DEDFF4"/><stop offset="1" stop-color="#DEDFF4" stop-opacity="0"/></linearGradient></defs></svg>