<svg xmlns="http://www.w3.org/2000/svg" width="182" height="70" fill="none"><path fill="#232343" d="M81.536 35.001a5.46 5.46 0 0 1 1.849 2.118q.678 1.282.678 2.982 0 3.34-1.52 4.922-1.5 1.55-3.759 1.55h-5.032V24.623h4.437q2.403 0 3.779 1.431 1.376 1.402 1.376 4.086 0 1.64-.472 2.894-.473 1.222-1.336 1.968m-4.806-1.402h1.808q.821 0 1.273-.716.452-.745.452-1.82 0-1.102-.513-1.67-.514-.596-1.418-.596H76.73zm1.91 8.948q1.048 0 1.685-.596.657-.627.657-1.85 0-2.325-2.547-2.326H76.73v4.772zm19.864-17.925-5.669 15.121v6.83h-2.978v-6.83l-5.566-15.121h3.677l3.47 10.14 3.39-10.14zm11.119 0v4.175h-3.676v17.777h-2.978V28.797h-3.533v-4.175zm12.891 0v4.175h-7.332v4.683h6.49v4.176h-6.49v4.742h7.619v4.176h-10.597V24.622zM133.373 35a5.47 5.47 0 0 1 1.849 2.118q.678 1.282.678 2.982 0 3.34-1.52 4.922-1.5 1.55-3.759 1.55h-5.031V24.623h4.436q2.403 0 3.779 1.431 1.376 1.402 1.375 4.086 0 1.64-.471 2.894-.473 1.222-1.336 1.968m-4.806-1.402h1.808q.821 0 1.273-.716.452-.745.452-1.82 0-1.102-.514-1.67-.513-.596-1.417-.596h-1.602zm1.911 8.948q1.048 0 1.683-.596.658-.627.658-1.85 0-2.325-2.546-2.326h-1.706v4.772zm18.426-17.925v4.175h-7.332v4.683h6.49v4.176h-6.49v4.742h7.62v4.176h-10.598V24.622zm10.551 17.657h-5.011l-1.232 4.294h-2.938l6.82-22.816h.164l6.818 22.817h-3.45zm-.985-3.64-1.459-5.338-1.519 5.339zm23.085-14.912v22.847h-2.979v-10.47l-4.928 10.171h-.042l-4.744-9.514v9.813h-2.875V23.727h.021l7.66 15.778 7.846-15.778z"/><path fill="#232343" fill-rule="evenodd" d="m33.907 0 24.877 17.5L.778 35l58.006 17.5L33.907 70l19.019-35z" clip-rule="evenodd"/></svg>