<svg xmlns="http://www.w3.org/2000/svg" width="98" height="28" fill="none" viewBox="0 0 98 38"><path fill="#232343" fill-rule="evenodd" d="M5.216 9.645a5.04 5.04 0 0 0 3.14-1.097c.547-.44.624-1.226.172-1.759a1.307 1.307 0 0 0-1.806-.167 2.4 2.4 0 0 1-.716.393 2.5 2.5 0 0 1-.79.132c-1.303 0-2.365-1.033-2.365-2.302s1.062-2.301 2.365-2.301q.409-.002.79.132c.224.078.437.186.627.329.566.414 1.37.3 1.796-.25a1.227 1.227 0 0 0-.257-1.748A5.04 5.04 0 0 0 5.216.049C2.496.049.285 2.2.285 4.849c0 2.645 2.21 4.796 4.931 4.796m64.337.054h.032c.676 0 1.223-.533 1.223-1.19v-7.27c0-.658-.547-1.19-1.223-1.19h-.032c-.676 0-1.223.532-1.223 1.19v7.27c0 .657.547 1.19 1.223 1.19m-45.977 2.498c1.825 0 3.305 1.44 3.305 3.217V28.28c0 1.776 1.48 3.216 3.304 3.216 1.825 0 3.305-1.44 3.305-3.216V15.414c0-1.777 1.48-3.217 3.305-3.217s3.305 1.44 3.305 3.217v13.048c0 5.229-4.355 9.468-9.727 9.468-5.578 0-10.102-4.404-10.102-9.832V15.414c0-1.777 1.48-3.217 3.305-3.217m23.133 0c-1.825 0-3.305 1.44-3.305 3.217v19.253c0 1.776 1.48 3.216 3.305 3.216s3.305-1.44 3.305-3.217V15.415c0-1.777-1.48-3.217-3.305-3.217M94.081 28.28h-8.266c-.913 0-1.656.722-1.656 1.612s.738 1.608 1.653 1.608h8.262c1.825 0 3.305 1.44 3.305 3.217 0 1.776-1.48 3.216-3.305 3.216H81.185c-2.008 0-3.635-1.583-3.635-3.538V15.739c0-1.955 1.627-3.539 3.635-3.539h12.889c1.825 0 3.305 1.44 3.305 3.217 0 1.776-1.48 3.217-3.305 3.217h-8.262c-.915 0-1.653.718-1.653 1.608v.007c0 .89.742 1.608 1.656 1.608l8.259-.003c1.829-.004 3.308 1.437 3.308 3.213 0 1.773-1.476 3.213-3.3 3.213M81.81 8.987c-.209.458-.675.726-1.16.712-.484.01-.95-.254-1.16-.715l-3.323-7.248a1.193 1.193 0 0 1 .679-1.608c.628-.24 1.337.103 1.612.704l2.05 4.481c.05.118.22.118.274 0l2.05-4.481c.275-.6.983-.944 1.611-.704.661.253.966.986.68 1.608zM30.538 9.7h4.832c.683 0 1.241-.54 1.241-1.208 0-.669-.554-1.208-1.24-1.208h-3.1a.614.614 0 0 1-.62-.604c0-.333.279-.604.62-.604h3.074c.683 0 1.237-.54 1.237-1.205s-.554-1.208-1.241-1.204h-3.074a.61.61 0 0 1-.62-.602.614.614 0 0 1 .62-.603h3.1c.683 0 1.24-.54 1.24-1.208S36.054.05 35.37.05h-4.832c-.753 0-1.362.593-1.362 1.326v6.998c-.004.732.61 1.326 1.362 1.326m65.328 0h-4.833c-.752 0-1.362-.594-1.362-1.326V1.375c0-.733.61-1.326 1.362-1.326h4.832c.687 0 1.238.536 1.238 1.204 0 .669-.558 1.208-1.241 1.208h-3.099c-.341 0-.62.271-.62.603 0 .335.279.602.62.602h3.073c.687-.004 1.242.54 1.242 1.204 0 .665-.555 1.205-1.238 1.205h-3.074a.614.614 0 0 0-.62.604c0 .332.279.604.62.604h3.1c.686 0 1.24.54 1.24 1.208s-.557 1.208-1.24 1.208M56.45 2.444h1.263c.228 0 .415.182.415.403v5.59c0 .593.411 1.144 1.01 1.247.775.133 1.45-.446 1.45-1.179V2.847c0-.221.188-.403.415-.403h1.263c.68 0 1.23-.537 1.23-1.198S62.943.05 62.264.05H56.45c-.68 0-1.23.536-1.23 1.197s.55 1.198 1.23 1.198m10.942 28.338a6.4 6.4 0 0 0 1.946-1.073c1.484-1.193 3.684-.99 4.914.454a3.33 3.33 0 0 1-.47 4.779 13.4 13.4 0 0 1-4.062 2.24 13.7 13.7 0 0 1-4.469.744c-7.391 0-13.402-5.85-13.402-13.045s6.01-13.045 13.402-13.045a13.7 13.7 0 0 1 4.466.743 13.5 13.5 0 0 1 3.565 1.859c1.539 1.126 1.854 3.252.698 4.753-1.157 1.498-3.342 1.805-4.884.68a6.4 6.4 0 0 0-1.704-.89 6.5 6.5 0 0 0-2.14-.355c-3.544 0-6.426 2.806-6.426 6.255s2.882 6.255 6.426 6.255c.734 0 1.457-.119 2.14-.354M22.081 9.674a1.246 1.246 0 0 1-1.63-.594l-1.05-2.223h-1.58v1.67c0 .66-.55 1.197-1.23 1.197s-1.23-.536-1.23-1.198V5.692l-.003-.038q-.004-.022-.004-.044V1.303c0-.69.577-1.25 1.286-1.25h3.727c1.927 0 3.495 1.526 3.495 3.402 0 1.344-.804 2.502-1.968 3.056l.797 1.576c.283.6.011 1.312-.61 1.587M20.363 2.55h-2.438v1.801h2.438c.51 0 .925-.404.925-.9 0-.497-.415-.901-.925-.901M48.229.942a1.3 1.3 0 0 0-.363-.54q-.027-.027-.059-.05l-.092-.064a2 2 0 0 0-.169-.1l-.003-.003L47.51.17c-.004 0-.004 0-.008-.003a1.5 1.5 0 0 0-.275-.09 1 1 0 0 0-.165-.02 1 1 0 0 0-.114-.008q-.057.001-.114.007-.082.005-.165.022-.016.002-.031.007l-.032.007a1 1 0 0 0-.22.078l-.033.015-.004.003q-.087.043-.169.1l-.091.065q-.027.027-.06.05c-.168.15-.293.332-.363.54L42.27 7.9c-.316.643-.033 1.412.628 1.72l.033.013a1.34 1.34 0 0 0 1.766-.61l.231-.48h4.036l.231.48a1.34 1.34 0 0 0 1.766.61l.033-.014c.661-.307.944-1.076.628-1.719zm-2.166 5.286.885-1.815.885 1.815zm-28.906 9.475v10.44c0 .098.003.247.007.416.008.424.02.983-.007 1.238l-.047.386c-.742 5.504-5.59 9.768-11.446 9.768-.881 0-1.762-.096-2.618-.29-1.777-.4-2.883-2.13-2.471-3.86s2.188-2.805 3.965-2.405c.364.083.742.125 1.124.125 2.189 0 4.693-1.697 4.693-3.316V21.89c0-2.992-.327-3.26-3.349-3.26h-3.26c-1.826 0-3.305-1.44-3.305-3.216s1.48-3.217 3.304-3.217h9.757c1.986 0 3.653 1.569 3.653 3.506" clip-rule="evenodd"/></svg>