<svg xmlns="http://www.w3.org/2000/svg" width="30" height="30" fill="none"><linearGradient id="a" x1="22.21" x2="22.21" y1="7.989" y2="19.331" gradientUnits="userSpaceOnUse"><stop offset=".25" stop-color="#7366ff"/><stop offset="1" stop-color="#5219ff"/></linearGradient><linearGradient id="b" x1="12.388" x2="24.528" y1="22.835" y2="22.835" gradientUnits="userSpaceOnUse"><stop offset="0" stop-color="#7366ff"/><stop offset="1" stop-color="#a299ff"/></linearGradient><path fill="#a299ff" d="m24.527 16.655-.937 5.893 5.573 2.137v-5.354z"/><path fill="#7366ff" d="M.247 22.008V7.989l4.638 1.47v9.871l7.503 4.332.56 2.137-.56 3.218-12.14-7.01z"/><path fill="#7366ff" d="m12.389 6.335-7.504 4.331L.247 7.99 12.387.98l12.14 7.009-2.562 2.04-2.073.638z"/><path fill="#5219ff" d="m29.164 24.683-4.637 2.68-4.635-2.68V19.33z"/><path fill="#a299ff" d="m12.389 9.658-.003 5.353 4.64 2.677-.002-5.355z"/><path fill="#5219ff" d="M12.386 15.011 7.75 17.688l4.637 2.677 4.638-2.677z"/><path fill="#7366ff" d="m12.39 9.658-4.64 2.678v5.351l4.635-2.676.003-5.353z"/><path fill="url('#a')" d="M24.527 7.989v8.666l-4.635 2.675v-8.663z"/><path fill="url('#b')" d="m24.528 16.653-12.14 7.01v5.354l12.139-7.01z"/></svg>