<svg xmlns="http://www.w3.org/2000/svg" width="158" height="49" fill="none"><path fill="#A8A8C1" d="m78.55 33.078-2.148 2.59-2.179-1.813q-2.82 2.073-6.6 2.072-4.872 0-7.98-3.237-3.075-3.237-3.076-8.547t3.076-8.547q3.108-3.237 7.98-3.237 4.87 0 7.946 3.237 3.108 3.237 3.108 8.547 0 4.143-2.115 7.316zM67.621 15.952q-3.332 0-5.127 2.266t-1.794 5.925 1.794 5.924q1.795 2.267 5.127 2.267 2.244 0 3.717-.94l-2.884-2.427 2.115-2.59 3.012 2.59q1.058-1.942 1.058-4.824 0-3.658-1.827-5.925-1.826-2.265-5.19-2.266M94.468 33.402q-2.147 2.396-5.832 2.396t-5.864-2.396q-2.147-2.396-2.147-5.957 0-3.528 2.147-5.924 2.179-2.429 5.864-2.428t5.832 2.428q2.18 2.396 2.179 5.924 0 3.561-2.179 5.957m-2.692-9.777q-1.12-1.425-3.14-1.424-2.019 0-3.172 1.424-1.122 1.425-1.122 3.82 0 2.428 1.122 3.853 1.153 1.425 3.172 1.424 2.02 0 3.14-1.424 1.155-1.425 1.154-3.853 0-2.395-1.154-3.82M113.016 19.384l-6.089 16.09h-3.364l-6.088-16.09h3.685l4.069 11.655 4.07-11.655zM128.277 28.028h-10.67q.32 2.428 1.73 3.561 1.443 1.133 3.397 1.133 2.435 0 4.806-1.198l.257 3.044q-2.436 1.23-5.319 1.23-4.102 0-6.377-2.396-2.243-2.396-2.243-5.99 0-3.495 2.051-5.891 2.082-2.429 5.639-2.428 3.045 0 4.999 1.91 1.955 1.877 1.955 5.018 0 .777-.225 2.007m-6.665-5.827q-3.14 0-3.845 3.334h7.018q0-1.392-.801-2.363-.769-.971-2.372-.971M140.187 19.028l-.705 3.593h-1.346q-.96 0-1.858.518-.865.519-1.25 1.23v11.105h-3.717v-16.09h3.301l.192 2.007q2.115-2.363 4.582-2.363zM158 19.384l-9.902 23.925h-3.749l3.589-8.806-6.633-15.12h4.038l4.358 10.846 4.261-10.845z"/><path fill="#33369F" d="M30.375 18.818v22.324l10.815-6.306v-22.73z"/><path fill="#B7B9E7" d="M21.129 0 0 11.668l11.582 7.15 9.513-5.396 9.28 5.396 10.814-6.711z"/><path fill="#7173CD" d="m0 11.668 11.616 7.15-.1 11.027 12.95 7.082L24.6 49 0 34.904zM21.096 13.422l9.279 5.396.025 11.008c.674.327-9.171-4.938-9.171-4.938z"/><path fill="#33369F" d="m11.516 29.845 9.713-4.957-.134-11.466-9.48 5.396z"/><path fill="#B7B9E7" d="m24.467 36.927-12.951-7.082 9.713-4.957 12.417 6.677z"/><path fill="#33369F" d="m24.6 49 8.879-6.036.167-11.399-9.18 5.362z"/><path fill="#B7B9E7" d="M1.138 12.377c3.471 2.158 7.006 4.284 10.478 6.443 3.17-1.788 6.31-3.61 9.48-5.398 3.105 1.787 6.177 3.608 9.282 5.396 3.17-2.024 6.378-3.91 9.533-5.919L21.098 1.484c-6.642 3.642-13.284 7.25-19.96 10.893"/></svg>