<svg xmlns="http://www.w3.org/2000/svg" width="91" height="26" fill="none" viewBox="0 0 91 46"><path fill="#fff" d="M89.984 45.256a1.65 1.65 0 0 1-1.212.504q-.712 0-1.21-.504a1.66 1.66 0 0 1-.498-1.215q0-.708.502-1.208.498-.5 1.206-.5.711 0 1.212.5.502.498.501 1.208 0 .712-.5 1.215M87.73 43q-.428.432-.429 1.043 0 .615.427 1.05.43.434 1.043.433a1.4 1.4 0 0 0 1.042-.433q.43-.435.43-1.05 0-.61-.43-1.043a1.41 1.41 0 0 0-1.042-.433q-.61 0-1.04.433m1.009.096q.35 0 .512.067.293.122.293.477 0 .252-.184.371a.7.7 0 0 1-.272.091.45.45 0 0 1 .323.185q.102.148.102.29v.138q0 .065.004.14.005.074.017.098l.011.023h-.31l-.004-.019-.005-.021-.007-.06v-.149q0-.325-.178-.43-.105-.06-.368-.06h-.262v.74h-.33v-1.881zm.357.296q-.126-.07-.401-.07h-.283v.68h.3q.21.001.316-.04.194-.078.194-.295 0-.204-.126-.275"/><path fill="#232343" d="M5.06 9.33 3.113 5.512v7.472h-2.6V.312h2.709l2.8 5.764L8.768.312h2.709v12.672H8.859V5.439L6.932 9.33zM19.127 12.984h-2.781V8.603l-2.89-4.654c-.2-.273-.292-.637-.292-1.091V.312h2.781v2.2c0 .346.055.619.164.8l1.709 2.781 1.618-2.6c.127-.2.182-.472.182-.8V.314h2.672v2.545c0 .4-.109.763-.309 1.09l-2.854 4.563zM31.85 9.33l-1.945-3.818v7.472h-2.6V.312h2.709l2.8 5.764L35.559.312h2.708v12.672h-2.618V5.439l-1.927 3.89zM46.937.312h2.78v10.072c0 1.727-.945 2.672-2.672 2.672h-3.781c-1.727 0-2.673-.945-2.673-2.672V.312h2.782v9.872c0 .31.145.455.454.455h2.654c.31 0 .455-.146.455-.455zM51.77 2.912c0-1.727.945-2.672 2.672-2.672h3.545c1.673 0 2.6.945 2.6 2.672v1.255h-2.745V3.022c0-.31-.146-.455-.454-.455H54.97c-.31 0-.454.146-.454.455V4.33c0 .346.09.437.4.528l4.036 1.036c1.181.309 1.781 1.036 1.781 2.163v2.327c0 1.727-.945 2.672-2.672 2.672h-3.8c-1.672 0-2.6-.945-2.6-2.672V9.238h2.745v1.037c0 .309.146.454.455.454h2.654c.309 0 .454-.145.454-.454V8.693c0-.273-.145-.436-.436-.509l-4.145-1.072c-1.072-.273-1.618-1.037-1.618-2.29zM68.692 8.62h2.745v1.764c0 1.727-.945 2.673-2.672 2.673h-3.527c-1.727 0-2.673-.946-2.673-2.673V2.912c0-1.727.946-2.672 2.673-2.672h3.527c1.727 0 2.672.945 2.672 2.672v1.4h-2.745V3.076c0-.309-.145-.455-.454-.455h-2.436c-.31 0-.455.146-.455.455v7.145c0 .309.146.454.455.454h2.436c.308 0 .454-.145.454-.454zM73.344 12.984V.312h2.781v10.254h4.836v2.418zM82.323 12.984V.312h8.035v2.382h-5.254v2.6h4.763V7.64h-4.763v2.963h5.381v2.382zM14.51 16.85H6.74c-4.015 0-6.226 2.21-6.226 6.225v16.46c0 4.014 2.211 6.225 6.226 6.225h7.77c4.014 0 6.226-2.21 6.226-6.225v-4.223H14.01v3.862c0 .497-.167.664-.663.664H7.982c-.496 0-.664-.167-.664-.664V23.436c0-.497.168-.664.664-.664h5.366c.496 0 .663.167.663.664v3.06h6.724v-3.421c0-4.014-2.211-6.225-6.225-6.225M38.236 27.903h-7.172V17.009h-6.805v28.592h6.805V33.907h7.172V45.6h6.805V17.009h-6.805zM56.368 33.826h10.494v-5.843H56.368v-5.05h11.575v-5.924H49.564v28.592h18.659v-5.923H56.368zM90.486 22.932V17.01h-18.78v28.592h6.805V35.068h10.893v-5.923H78.511v-6.213z"/></svg>