<svg xmlns="http://www.w3.org/2000/svg" width="194" height="36" fill="none"><path fill="#232343" fill-rule="evenodd" d="M6.078.7H29.61a5.536 5.536 0 0 1 5.537 5.536v23.528A5.536 5.536 0 0 1 29.61 35.3H6.078a5.536 5.536 0 0 1-5.536-5.536V6.236A5.536 5.536 0 0 1 6.078.7m9.793 28.088c6.135-2.646 9.174-7.684 9.174-13.318 0-4.768-2.311-8.55-7.116-8.542-3.895 0-6.602 2.185-6.602 6.23 0 3.838 2.905 5.562 5.478 5.562.99 0 1.512-.198 2.042-.731l.261.199c-1.124 3.178-4.156 5.562-8.185 7.088z" clip-rule="evenodd"/><path fill="#232343" d="M60.812 18.7v10.104h-5.183v-8.68c0-2.154-.883-2.854-2.166-2.854-1.493 0-2.746 1-2.746 3.518v8.01h-5.189V13.637h4.634l.154 2.94c.944-2.155 2.808-3.247 5.214-3.247 3.147 0 5.282 1.853 5.282 5.37M64.014 9.414c0-1.731.913-2.486 3.017-2.486s3.018.76 3.018 2.486c0 1.7-.914 2.455-3.018 2.455s-3.017-.755-3.017-2.455m5.615 19.39h-5.183V13.637h5.183zM88.603 18.7v10.104h-5.184v-8.68c0-2.154-.882-2.854-2.165-2.854-1.494 0-2.746 1-2.746 3.518v8.01h-5.183V13.637h4.634l.154 2.94c.944-2.155 2.808-3.247 5.214-3.247 3.14 0 5.276 1.853 5.276 5.37M106.94 22.709H96.537c.333 1.97 1.462 2.762 3.203 2.762 1.523 0 2.468-.608 2.807-1.67l4.208 1.338c-.882 2.64-3.48 3.978-7.015 3.978-5.338 0-8.238-2.885-8.238-7.888 0-5.002 2.87-7.887 7.96-7.887 4.973 0 7.626 2.885 7.626 7.679.006.503-.055 1.289-.148 1.688m-10.403-2.793h5.732c-.277-1.94-1.221-2.97-2.838-2.97-1.641-.007-2.622.907-2.894 2.97M120.878 27.957c-1.005.7-2.714 1.154-4.3 1.154-3.449 0-5.584-1.332-5.615-4.855v-6.949h-2.622v-3.67h2.622v-3.4l5.183-1.425v4.825h4.578v3.67h-4.578v6.101c0 1.455.734 2.032 2.011 2.032.944 0 1.586-.245 2.197-.669zM139 25.74l-.395 2.886c-.611.331-1.314.485-2.073.485-2.042 0-3.48-.7-3.936-2.339-.852 1.455-2.623 2.339-5.43 2.339-3.017 0-4.727-1.332-4.727-3.794 0-2.516 1.617-4.124 5.949-4.978l3.449-.669v-.546c0-1.363-.796-2.246-2.166-2.246-1.463 0-2.53.576-2.838 2.338l-4.208-1.215c.518-2.885 2.899-4.671 7.046-4.671 4.695 0 7.293 1.915 7.293 5.825v5.524q-.001 1.186 1.098 1.185c.358 0 .667-.031.938-.123m-7.163-2.123V22.31l-2.468.577c-1.284.307-1.802.73-1.802 1.577s.549 1.308 1.493 1.308c1.277 0 2.777-.762 2.777-2.155M140.623 9.414c0-1.731.913-2.486 3.017-2.486s3.018.76 3.018 2.486c0 1.7-.914 2.455-3.018 2.455s-3.017-.755-3.017-2.455m5.609 19.39h-5.183V13.637h5.183zM155.049 23.556c0 1.338.333 1.884 1.4 1.884.611 0 1.006-.092 1.555-.276l-.333 3.185c-.734.455-2.042.762-3.171.762-3.264 0-4.634-1.424-4.634-4.794V7.197h5.183zM174.602 22.709h-10.403c.333 1.97 1.463 2.762 3.203 2.762 1.524 0 2.468-.608 2.807-1.67l4.208 1.338c-.882 2.64-3.48 3.978-7.015 3.978-5.338 0-8.238-2.885-8.238-7.888 0-5.002 2.869-7.887 7.96-7.887 4.973 0 7.626 2.885 7.626 7.679.006.503-.055 1.289-.148 1.688m-10.403-2.793h5.732c-.277-1.94-1.221-2.97-2.838-2.97-1.641-.007-2.616.907-2.894 2.97M193.125 7.198v21.606h-4.665l-.216-2.885c-.851 1.909-2.591 3.186-4.942 3.186-3.967 0-6.281-2.885-6.281-7.826 0-5.04 2.381-7.95 6.281-7.95 2.228 0 3.813 1.155 4.634 2.886V7.198zm-5.22 14.173.031.03v-.393l-.031.062c0-2.517-1.006-3.947-2.807-3.947-1.771 0-2.869 1.246-2.869 4.094s1.098 4.094 2.869 4.094c1.74.006 2.807-1.332 2.807-3.94"/></svg>