<svg xmlns="http://www.w3.org/2000/svg" width="327" height="98" fill="none"><g fill="#232343"><path d="M54.221 5.516A5.517 5.517 0 0 0 48.704 0h-.096C21.755.052 0 21.833 0 48.695c0 26.893 21.805 48.694 48.704 48.694 8.865 0 17.178-2.368 24.338-6.507l-.002-.003a5.517 5.517 0 1 0-5.738-9.425 37.5 37.5 0 0 1-18.598 4.903c-20.804 0-37.67-16.862-37.67-37.662S27.9 11.032 48.704 11.032a5.517 5.517 0 0 0 5.517-5.516M80.846 48.647v.095a3.19 3.19 0 0 0 3.19 3.186h10.163a3.19 3.19 0 0 0 3.19-3.186v-.095a3.19 3.19 0 0 0-3.19-3.186H84.035a3.19 3.19 0 0 0-3.19 3.186M76.515 64.828l.046-.08a3.19 3.19 0 0 1 4.357-1.17l8.807 5.088a3.184 3.184 0 0 1 1.167 4.349l-.046.08a3.19 3.19 0 0 1-4.357 1.17l-8.807-5.087a3.184 3.184 0 0 1-1.167-4.35M76.554 32.63l.048.084a3.19 3.19 0 0 0 4.358 1.163l8.804-5.084a3.184 3.184 0 0 0 1.167-4.35l-.046-.08-.002-.004a3.19 3.19 0 0 0-4.358-1.163l-8.804 5.085a3.184 3.184 0 0 0-1.167 4.35M64.793 20.854a3.184 3.184 0 0 1-1.167-4.35l5.085-8.81a3.19 3.19 0 0 1 4.357-1.17l.003.003.077.044a3.184 3.184 0 0 1 1.166 4.35l-5.085 8.81a3.19 3.19 0 0 1-4.357 1.169z"/></g><path fill="#232343" d="m65.422 38.685.004.004a5.515 5.515 0 0 1-.681 7.772L46.82 61.5a5.5 5.5 0 0 1-2.792 1.24q-.015 0-.029.003l-.026.003a5.51 5.51 0 0 1-4.613-1.565l-9.084-9.082a5.514 5.514 0 0 1 0-7.801 5.52 5.52 0 0 1 7.798-.004l5.516 5.514L57.652 38.01a5.52 5.52 0 0 1 7.77.675M130.703 65.162h-8.593l8.116-39.247 8.833-1.235-4.238 20.619c6.028-.494 10.444-8.58 10.444-15.186 0-4.568-2.788-7.521-7.46-7.66-8.043 0-15.397 4.882-15.397 14.265 0 2.3.414 3.183.66 3.71.091.193.159.338.176.488-4.113 0-6.377-1.543-6.377-5.988 0-8.21 10.972-16.042 20.938-16.042 9.785 0 14.075 5.794 14.075 12.153 0 7.84-6.495 16.535-17.238 16.535h-.298z"/><path fill="#232343" fill-rule="evenodd" d="m163.204 41.31.579-2.822h7.577l-3.788 18.142a7.5 7.5 0 0 0-.211 1.708c0 1.495.684 2.295 2.157 2.295 2.053 0 3.474-2.348 4.263-5.017h.008l3.997-19.102h7.578l-.842 3.998c1.526-1.332 3.525-2.291 6.155-2.291 3.575 0 6.414 2.078 6.414 8.426 0 7.207-2.734 18.835-12.938 18.835-2.63 0-3.893-.906-4.472-1.918l-2.737 13.018-7.945 1.92 3.413-16.309c-2.465 2.787-5.137 3.29-6.998 3.29-2.946 0-4.841-1.706-5.156-4.903-1.632 2.452-4.105 4.903-7.84 4.903-3.575 0-6.992-2.238-6.992-8.586 0-7.206 4.363-18.676 13.516-18.676 2.999 0 4.262 1.172 4.262 2.717zm-.473 2.242c0-.641-.474-2.029-2.157-2.029-4.473 0-7.367 9.609-7.367 14.626 0 4.11 1.684 4.164 2.631 4.164 1.526 0 3.736-1.601 4.367-4.697zm19.792 17.295c-1.21 0-1.789-.641-1.999-1.228l3.104-14.947c1-1.708 2.473-2.616 3.631-2.616.947 0 2.631.32 2.631 4.431 0 5.018-1.842 14.36-7.367 14.36M206.144 54.383c-.053.748-.106 1.496-.106 2.137 0 3.632 1.264 4.486 3.792 4.486 4.16 0 6.682-2.35 9.31-5.394l3.582-17.124h7.577l-.684 3.303c1.842-1.598 3.841-3.303 6.367-3.303 2.368 0 3.631 1.971 3.631 3.996 0 1.867-1.21 3.895-3.789 3.895-1.701 0-1.929-1.174-2.121-2.167-.141-.726-.263-1.355-.931-1.355-1.578 0-2.525.8-3.841 2.028l-4.209 20.277h-7.577l1.24-5.93c-2.85 3.465-6.675 6.25-11.925 6.25-4.943 0-8.203-2.45-8.203-8.482 0-6.133 3.418-18.992 14.206-18.992 4.68 0 5.783 2.449 5.783 5.117 0 6.14-5.783 10.886-12.102 11.258m.422-2.555c4.055-.266 7.636-4.378 7.636-8.81 0-1.335-.316-2.189-1.317-2.189-2.685 0-5.266 5.713-6.319 11M255.605 59.374l-1.213 5.768h7.577l3.631-17.348c.315-1.441 1.947-4.697 3.999-4.697 1.315 0 1.947.96 1.947 2.722-.001 1.681-.575 4.126-1.157 6.607-.601 2.561-1.211 5.162-1.211 7.006 0 3.04 1.629 6.023 6.203 6.023 1.862 0 4.288-.499 6.572-3.437.856 2.38 2.822 3.438 5.164 3.438 1.905 0 4.875-.528 7.53-3.497l-.736 3.557q-.626.194-1.226.373c-4.404 1.327-7.721 2.326-7.721 6.83 0 3.466 2.993 5.757 6.204 5.757 3.473 0 8-1.439 9.579-9.068l6-28.818h7.102l-3.102 15c-.263 1.28-.421 2.455-.421 3.469 0 4.478 2.471 6.397 5.626 6.397 2.84 0 8.049-1.172 11.048-9.867h-2.21c-.789 2.67-2.684 4.698-4.736 4.698-1.473 0-2.157-.481-2.157-1.976 0-.48.053-1.014.21-1.708l3.315-16.013h3.21l.421-2.129h-3.157l2-9.611c-4.736-1.918-9.206-3.676-13.938-3.676-3.421 0-8 1.438-9.579 9.07l-4.415 21.345h-.008c-.789 2.67-2.684 4.697-4.736 4.697-1.473 0-2.157-.48-2.157-1.975 0-.48.053-1.014.21-1.707l3.789-18.149h-7.571l-3.578 17.134c-.219 1.067-.365 2.06-.408 2.948-.733 1.096-1.618 1.75-2.968 1.75-1.578 0-2.104-.908-2.104-2.243.001-1.357.521-3.428 1.088-5.689.684-2.723 1.437-5.722 1.437-8.084 0-4.265-2.47-6.023-5.835-6.023-1.63 0-3.945.426-6.155 2.984l2.841-13.443-7.787 1.067-5.791 27.54a34 34 0 0 1-3.632 2.542c.158-.64.21-1.28.21-2.028 0-1.537-.1-2.8-.266-4.884-.213-2.69-.535-6.752-.891-14.54l-7.782 1.068c-1.633 5.23-3.529 10.512-6.478 15.795-1.418.693-2.782 2.508-2.782 4.962 0 3.254 2.31 6.824 7.68 6.824 2.685 0 4.828-.658 7.358-2.189 1.794-1.085 3.927-2.687 5.957-4.572m-14.538-4.972c.683.32 1.209.96 1.209 1.868 0 1.28-.946 2.615-2.314 2.615-.527 0-1.158-.16-1.422-.694 0 2.504.895 3.729 3.213 3.729s4.581-1.225 4.581-4.957c0-1.346-.111-2.429-.286-4.126-.186-1.8-.443-4.29-.713-8.52-1.055 3.468-2.531 6.67-4.268 10.085m66.101-15.94h7.154l1.892-9.078c-1.367-.587-3.627-.854-4.311-.854-1.156 0-2.84.64-3.577 4.218zm-19.315 33.51c0-2.777 2.202-3.52 5.326-4.571l.365-.124-.48 2.291c-.685 3.151-2 4.166-3.106 4.166-1.158 0-2.105-1.015-2.105-1.762" clip-rule="evenodd"/><path fill="#232343" d="M290.699 35.573c-2.313 0-4.153-1.866-4.153-4.212s1.84-4.265 4.153-4.265c2.314 0 4.206 1.92 4.206 4.265a4.2 4.2 0 0 1-4.206 4.212"/></svg>