<svg xmlns="http://www.w3.org/2000/svg" width="188" height="34" fill="none"><path fill="#232343" d="M64.21 17.61q-.268-.108-.645-.27a8 8 0 0 0-.807-.216 4.2 4.2 0 0 0-1.023-.108q-.807 0-1.614.324a4.6 4.6 0 0 0-1.399.81 3.7 3.7 0 0 0-.969 1.243q-.375.756-.376 1.73V31.93h-4.413V13.233h2.906l.538 2.648h.215q.593-.92 1.884-1.783 1.291-.92 3.551-.92.915 0 1.615.163.699.162 1.183.324.54.216.915.487zm23.257 5.08q0 2.214-.808 4.052a8.9 8.9 0 0 1-2.206 3.026q-1.4 1.243-3.282 1.946a12.2 12.2 0 0 1-3.982.648q-2.1 0-3.982-.648-1.884-.703-3.283-1.946-1.345-1.242-2.152-3.026-.807-1.838-.807-4.053 0-2.269.807-4.052.807-1.838 2.152-3.135a9.8 9.8 0 0 1 3.283-1.999 11.3 11.3 0 0 1 3.982-.702q2.098 0 3.982.702a9.8 9.8 0 0 1 3.282 2 9.3 9.3 0 0 1 2.206 3.134q.807 1.784.807 4.052m-10.278 6.106q2.475 0 4.197-1.621 1.776-1.621 1.776-4.54t-1.776-4.593q-1.722-1.675-4.197-1.675t-4.197 1.675-1.723 4.593q0 2.919 1.722 4.54t4.198 1.62m33.486 3.134h-2.906l-.754-2.594h-.215q-.162.324-.646.865-.43.486-1.237.972-.807.488-1.991.81-1.184.38-2.798.38-3.93 0-6.081-2.27-2.1-2.27-2.099-6.107V13.233h4.413v10.159q0 2.27 1.13 3.783 1.184 1.512 3.605 1.513 1.238 0 2.206-.379.969-.432 1.615-1.08.645-.703.968-1.514a3.8 3.8 0 0 0 .377-1.62V13.232h4.413zm7.483-18.697v-5.62h4.359v5.62h6.941v3.566h-6.941v7.35q0 2.376.915 3.458.968 1.027 2.852 1.027.914 0 1.775-.379.378-.162.754-.378l1.453 3.026q-.486.432-1.184.757-.59.27-1.507.486a8 8 0 0 1-1.937.216q-3.605 0-5.543-2.053-1.937-2.055-1.937-5.998v-7.512h-3.606v-3.566zM136.256 6.1a2.73 2.73 0 0 1-1.937-.757q-.754-.81-.754-1.945 0-1.134.754-1.945a2.64 2.64 0 0 1 1.937-.81q1.129 0 1.937.81.807.81.807 1.945t-.807 1.945a2.74 2.74 0 0 1-1.937.757m-2.206 7.133h4.412V31.93h-4.412zm15.026 18.697h-4.413V13.233h2.906l.537 2.648h.216q.969-1.405 2.583-2.216 1.668-.864 4.251-.864 3.927 0 6.081 2.27 2.206 2.269 2.206 6.105V31.93h-4.359V21.77q0-2.268-1.238-3.782-1.237-1.513-3.658-1.513-1.345 0-2.315.486a4.85 4.85 0 0 0-1.614 1.135 4.6 4.6 0 0 0-.914 1.513 5 5 0 0 0-.269 1.567zm36.538-1.675a9.3 9.3 0 0 1-1.775 1.08q-.915.433-2.26.757-1.292.324-3.013.324-2.423 0-4.413-.702-1.937-.758-3.336-2.054a9.2 9.2 0 0 1-2.1-3.08q-.752-1.837-.752-3.945t.699-3.89q.754-1.837 2.044-3.135a8.5 8.5 0 0 1 3.068-2.053q1.83-.756 4.036-.756 2.153 0 3.874.702 1.723.702 2.907 2a7.7 7.7 0 0 1 1.829 2.971q.645 1.73.646 3.73 0 .16-.054.377v.919h-14.745q.27 2.755 2.045 4.107 1.83 1.297 4.359 1.297 1.291 0 2.314-.216 1.022-.27 1.722-.54a5.3 5.3 0 0 0 1.398-.811zm-7.856-13.996q-2.044 0-3.498 1.135-1.397 1.134-1.883 3.242h10.386q-.269-1.891-1.615-3.134-1.292-1.243-3.39-1.243M1.557 33.316c-.53 0-.957-.447-.957-.997a20.4 20.4 0 0 1 1.616-8.104 20.35 20.35 0 0 1 4.467-6.83c8.633-8.11 21.75-8.11 30.383 0a20.4 20.4 0 0 1 4.469 6.83 20.4 20.4 0 0 1 1.616 8.104c0 .55-.429.995-.956.995z"/></svg>