<svg width="841" height="406" viewBox="0 0 841 406" fill="none" xmlns="http://www.w3.org/2000/svg">
<line x1="622.901" y1="19.6317" x2="132.908" y2="315.669" stroke="url(#paint0_linear_0_4228)"/>
<line x1="328.443" y1="0.427958" x2="13.7764" y2="190.539" stroke="url(#paint1_linear_0_4228)"/>
<line x1="315.64" y1="90.0455" x2="0.974123" y2="280.156" stroke="url(#paint2_linear_0_4228)"/>
<line x1="566.71" y1="253.928" x2="171.772" y2="36.7118" stroke="#DEDFF4" stroke-dasharray="7 7"/>
<line x1="840.044" y1="230.243" x2="445.105" y2="13.0272" stroke="url(#paint3_linear_0_4228)" stroke-dasharray="7 7"/>
<line x1="750.426" y1="243.046" x2="490.101" y2="99.867" stroke="#DEDFF4"/>
<line x1="597.296" y1="109.249" x2="107.303" y2="405.286" stroke="url(#paint4_linear_0_4228)" stroke-dasharray="7 7"/>
<path d="M695.063 208.379L694.629 208.129L691.37 210.011C690.66 210.42 689.51 210.42 688.8 210.011L685.629 208.18L685.195 208.43L678.852 204.767L679.285 204.517L672.941 200.855L672.508 201.105L666.164 197.443L666.597 197.193L660.253 193.531L659.82 193.781L653.476 190.118L653.909 189.868L647.565 186.206L647.132 186.456L640.789 182.794L641.222 182.544L634.878 178.881L634.445 179.131L628.101 175.469L628.534 175.219L622.19 171.557L621.757 171.807L615.413 168.144L615.846 167.894L609.502 164.232L609.069 164.482L602.725 160.82L603.158 160.57L599.987 158.739C599.277 158.329 599.277 157.665 599.987 157.255L603.246 155.374L602.813 155.124L609.333 151.36L609.766 151.61L616.286 147.846L615.853 147.596L622.373 143.832L622.806 144.082L629.325 140.318L628.892 140.068L635.412 136.304L635.845 136.554L642.365 132.79L641.932 132.541L648.452 128.777L648.885 129.027L652.144 127.145C652.854 126.735 654.004 126.735 654.714 127.145L657.886 128.976L658.319 128.726L664.662 132.388L664.229 132.638L670.573 136.3L671.006 136.051L677.35 139.713L676.917 139.963L683.261 143.625L683.694 143.375L690.038 147.037L689.605 147.287L695.949 150.95L696.382 150.7L702.726 154.362L702.292 154.612L708.636 158.274L709.069 158.024L715.413 161.687L714.98 161.937L721.324 165.599L721.757 165.349L728.101 169.011L727.668 169.261L734.012 172.924L734.445 172.674L740.789 176.336L740.356 176.586L743.527 178.417C744.237 178.827 744.237 179.491 743.527 179.9L740.268 181.782L740.701 182.032L734.181 185.796L733.748 185.546L727.228 189.31L727.661 189.56L721.141 193.324L720.708 193.074L714.189 196.837L714.622 197.087L708.102 200.851L707.669 200.601L701.149 204.365L701.582 204.615L695.063 208.379Z" fill="#4548B0" fill-opacity="0.1" stroke="#5D64D2" stroke-dasharray="7 7"/>
<path d="M82.7678 224.667L82.3392 224.924L75.6317 221.207L76.0603 220.949L69.3527 217.232L68.9241 217.489L62.2166 213.772L62.6452 213.514L55.9376 209.797L55.509 210.054L48.8015 206.337L49.2301 206.08L42.5225 202.362L42.0939 202.62L35.3864 198.902L35.815 198.645L29.1074 194.927L28.6788 195.185L21.9713 191.467L22.3999 191.21L19.0461 189.351C18.3296 188.954 18.318 188.29 19.0201 187.868L21.973 186.094L21.5356 185.852L27.4413 182.303L27.8786 182.546L33.7843 178.997L33.3469 178.755L39.2526 175.206L39.6899 175.449L45.5956 171.9L45.1582 171.658L51.0639 168.109L51.5012 168.352L57.4069 164.803L56.9695 164.561L62.8752 161.012L63.3125 161.255L69.2182 157.706L68.7808 157.464L74.6865 153.915L75.1238 154.158L81.0295 150.609L80.5921 150.367L86.4978 146.818L86.9351 147.061L92.8408 143.512L92.4035 143.27L98.3091 139.722L98.7464 139.964L101.699 138.19C102.401 137.768 103.552 137.748 104.268 138.145L107.622 140.003L108.05 139.746L114.758 143.463L114.329 143.721L121.037 147.438L121.465 147.181L128.173 150.898L127.744 151.156L134.452 154.873L134.881 154.616L141.588 158.333L141.16 158.59L147.867 162.308L148.296 162.05L155.003 165.768L154.575 166.025L161.282 169.743L161.711 169.485L168.418 173.202L167.99 173.46L171.344 175.319C172.06 175.716 172.072 176.38 171.369 176.802L168.417 178.576L168.854 178.818L162.948 182.367L162.511 182.124L156.605 185.673L157.043 185.915L151.137 189.464L150.7 189.221L144.794 192.77L145.231 193.012L139.326 196.561L138.888 196.318L132.983 199.867L133.42 200.109L127.514 203.658L127.077 203.415L121.171 206.964L121.609 207.206L115.703 210.755L115.266 210.512L109.36 214.061L109.797 214.303L103.892 217.851L103.455 217.609L97.5489 221.158L97.9862 221.4L92.0805 224.948L91.6432 224.706L88.6904 226.48C87.9882 226.902 86.8381 226.922 86.1216 226.525L82.7678 224.667Z" fill="#4548B0" fill-opacity="0.1" stroke="#5D64D2" stroke-dasharray="7 7"/>
<defs>
<linearGradient id="paint0_linear_0_4228" x1="536.713" y1="70.161" x2="611.932" y2="26.0675" gradientUnits="userSpaceOnUse">
<stop stop-color="#DEDFF4"/>
<stop offset="1" stop-color="#DEDFF4" stop-opacity="0"/>
</linearGradient>
<linearGradient id="paint1_linear_0_4228" x1="247.93" y1="52.8612" x2="322.97" y2="7.18056" gradientUnits="userSpaceOnUse">
<stop stop-color="#DEDFF4"/>
<stop offset="1" stop-color="#DEDFF4" stop-opacity="0"/>
</linearGradient>
<linearGradient id="paint2_linear_0_4228" x1="235.128" y1="142.479" x2="310.168" y2="96.7981" gradientUnits="userSpaceOnUse">
<stop stop-color="#DEDFF4"/>
<stop offset="1" stop-color="#DEDFF4" stop-opacity="0"/>
</linearGradient>
<linearGradient id="paint3_linear_0_4228" x1="427.326" y1="-1.02326" x2="495.351" y2="37.0866" gradientUnits="userSpaceOnUse">
<stop stop-color="#DEDFF4" stop-opacity="0"/>
<stop offset="0.44993" stop-color="#DEDFF4"/>
</linearGradient>
<linearGradient id="paint4_linear_0_4228" x1="470.989" y1="189.35" x2="587.706" y2="118" gradientUnits="userSpaceOnUse">
<stop stop-color="#DEDFF4"/>
<stop offset="1" stop-color="#DEDFF4" stop-opacity="0"/>
</linearGradient>
</defs>
</svg>
