<svg width="182" height="70" viewBox="0 0 182 70" fill="none" xmlns="http://www.w3.org/2000/svg">
<path d="M81.5364 35.001C82.3305 35.5378 82.9467 36.2438 83.3849 37.1186C83.8367 37.9736 84.0626 38.9678 84.0626 40.1012C84.0626 42.3284 83.5561 43.9688 82.5428 45.0225C81.5432 46.0566 80.2904 46.5735 78.7842 46.5735H73.7523V24.6216H78.1886C79.7907 24.6216 81.0503 25.0987 81.9677 26.0532C82.8851 26.9877 83.3438 28.3498 83.3438 30.1394C83.3438 31.233 83.1863 32.1973 82.8715 33.0326C82.5565 33.8477 82.1115 34.5039 81.5364 35.001ZM76.7304 33.5992H78.5378C79.0855 33.5992 79.51 33.3606 79.8112 32.8834C80.1124 32.3863 80.263 31.7798 80.263 31.0639C80.263 30.3283 80.0919 29.7715 79.7496 29.3937C79.4073 28.9961 78.9349 28.7972 78.3324 28.7972H76.7304V33.5992ZM78.6405 42.547C79.3388 42.547 79.9001 42.3481 80.3246 41.9505C80.7628 41.533 80.9819 40.9165 80.9819 40.1012C80.9819 38.5504 80.133 37.7748 78.4351 37.7748H76.7304V42.547H78.6405ZM98.5039 24.6216L92.8354 39.7434V46.5735H89.8573V39.7434L84.2913 24.6216H87.9677L91.4387 34.7624L94.8275 24.6216H98.5039ZM109.623 24.6216V28.7972H105.947V46.5735H102.969V28.7972H99.4363V24.6216H109.623ZM122.514 24.6216V28.7972H115.182V33.4799H121.672V37.6556H115.182V42.3978H122.801V46.5735H112.204V24.6216H122.514ZM133.373 35.001C134.167 35.5378 134.783 36.2438 135.222 37.1186C135.674 37.9736 135.9 38.9678 135.9 40.1012C135.9 42.3284 135.393 43.9688 134.38 45.0225C133.38 46.0566 132.128 46.5735 130.621 46.5735H125.59V24.6216H130.026C131.628 24.6216 132.888 25.0987 133.805 26.0532C134.723 26.9877 135.18 28.3498 135.18 30.1394C135.18 31.233 135.023 32.1973 134.709 33.0326C134.393 33.8477 133.949 34.5039 133.373 35.001ZM128.567 33.5992H130.375C130.922 33.5992 131.347 33.3606 131.648 32.8834C131.949 32.3863 132.1 31.7798 132.1 31.0639C132.1 30.3283 131.928 29.7715 131.586 29.3937C131.244 28.9961 130.772 28.7972 130.169 28.7972H128.567V33.5992ZM130.478 42.547C131.176 42.547 131.738 42.3481 132.161 41.9505C132.6 41.533 132.819 40.9165 132.819 40.1012C132.819 38.5504 131.97 37.7748 130.273 37.7748H128.567V42.547H130.478ZM148.904 24.6216V28.7972H141.572V33.4799H148.062V37.6556H141.572V42.3978H149.192V46.5735H138.594V24.6216H148.904ZM159.455 42.2786H154.444L153.212 46.5735H150.274L157.094 23.7565H157.258L164.076 46.5735H160.626L159.455 42.2786ZM158.47 38.6398L157.011 33.3009L155.492 38.6398H158.47ZM181.555 23.7268V46.5735H178.576V36.1046L173.648 46.2752H173.606L168.862 36.7608V46.5735H165.987V23.7268H166.008L173.668 39.5047L181.514 23.7268H181.555Z" fill="#232343"/>
<path fill-rule="evenodd" clip-rule="evenodd" d="M33.9065 0L58.7839 17.5L0.77832 35L58.7839 52.5L33.9065 70L52.9258 35L33.9065 0Z" fill="#232343"/>
</svg>
