<svg width="195" height="42" viewBox="0 0 195 42" fill="none" xmlns="http://www.w3.org/2000/svg">
<path d="M60.4323 32.9494C66.0097 32.9494 69.6781 30.1123 71.0256 25.431L67.1327 24.5089C65.8226 27.6652 63.9884 29.2611 60.4323 29.2611C56.0153 29.2611 52.4967 26.3176 52.4967 20.2532C52.4967 14.1887 56.0153 11.2452 60.4323 11.2452C63.9884 11.2452 65.8226 12.8411 67.1327 15.9974L71.0256 15.0754C69.6781 10.3941 66.0097 7.5569 60.4323 7.5569C54.1063 7.5569 48.3043 11.8481 48.3043 20.2532C48.3043 28.6582 54.1063 32.9494 60.4323 32.9494ZM82.7146 32.9494C88.554 32.9494 91.9977 28.7646 91.9977 23.7287C91.9977 18.6927 88.554 14.5079 82.7146 14.5079C76.8751 14.5079 73.4314 18.6927 73.4314 23.7287C73.4314 28.7646 76.8751 32.9494 82.7146 32.9494ZM82.7146 29.6867C79.3082 29.6867 77.5489 26.7432 77.5489 23.7287C77.5489 20.7142 79.3082 17.7707 82.7146 17.7707C86.1209 17.7707 87.8802 20.7142 87.8802 23.7287C87.8802 26.7432 86.1209 29.6867 82.7146 29.6867ZM99.7937 32.6657V25.892C99.7937 20.5723 101.853 17.7707 104.211 17.7707C105.858 17.7707 106.981 18.7282 106.981 20.6787V32.6657H110.874V25.5019C110.874 20.5723 112.97 17.7707 115.291 17.7707C116.938 17.7707 118.061 18.7282 118.061 20.6787V32.6657H121.954V19.8631C121.954 16.7422 120.007 14.5079 116.563 14.5079C114.13 14.5079 111.997 15.8556 110.687 18.1962C110.125 15.962 108.029 14.5079 105.483 14.5079C103.2 14.5079 101.328 15.6073 99.7937 17.8416V14.7916H95.9008V32.6657H99.7937ZM130.573 32.6657V25.892C130.573 20.5723 132.632 17.7707 134.99 17.7707C136.637 17.7707 137.76 18.7282 137.76 20.6787V32.6657H141.653V25.5019C141.653 20.5723 143.749 17.7707 146.07 17.7707C147.717 17.7707 148.84 18.7282 148.84 20.6787V32.6657H152.733V19.8631C152.733 16.7422 150.786 14.5079 147.343 14.5079C144.91 14.5079 142.776 15.8556 141.466 18.1962C140.904 15.962 138.808 14.5079 136.263 14.5079C133.979 14.5079 132.108 15.6073 130.573 17.8416V14.7916H126.68V32.6657H130.573ZM165.657 32.9494C171.497 32.9494 174.94 28.7646 174.94 23.7287C174.94 18.6927 171.497 14.5079 165.657 14.5079C159.818 14.5079 156.374 18.6927 156.374 23.7287C156.374 28.7646 159.818 32.9494 165.657 32.9494ZM165.657 29.6867C162.251 29.6867 160.492 26.7432 160.492 23.7287C160.492 20.7142 162.251 17.7707 165.657 17.7707C169.063 17.7707 170.823 20.7142 170.823 23.7287C170.823 26.7432 169.063 29.6867 165.657 29.6867ZM182.474 32.6657V25.431C182.474 20.5014 184.87 17.7707 187.303 17.7707C189.062 17.7707 190.223 18.6218 190.223 21.0334V32.6657H194.116V19.8631C194.116 16.3875 191.87 14.5079 188.576 14.5079C186.068 14.5079 183.822 15.7137 182.474 17.8416V14.7916H178.581V32.6657H182.474Z" fill="#232343"/>
<path d="M22.3874 41.9115L0.217529 21.0002L22.3874 0.088501L32.7005 9.81672L20.9361 20.9135L32.7924 32.097L22.3874 41.9115ZM4.96804 21.0812L22.2434 37.4305L27.8157 32.1565L16.0216 20.9946L10.4664 15.8788L4.96804 21.0812ZM12.6593 13.5065L18.2371 18.6528L27.5895 9.78788L22.0855 4.56954L12.6593 13.5065Z" fill="#232343"/>
</svg>
