<svg width="98" height="28" viewBox="0 0 98 38" fill="none" xmlns="http://www.w3.org/2000/svg">
<path fill-rule="evenodd" clip-rule="evenodd" d="M5.21611 9.64511C5.77791 9.64511 6.33239 9.55218 6.86111 9.36992C7.40457 9.18407 7.90763 8.9053 8.35561 8.54788C8.90277 8.10828 8.97987 7.32201 8.52819 6.78949C8.07657 6.25697 7.26875 6.1819 6.72159 6.6215C6.50861 6.79307 6.26627 6.92529 6.00556 7.01463C5.75221 7.10045 5.48783 7.14691 5.21611 7.14691C3.91256 7.14691 2.85137 6.114 2.85137 4.84524C2.85137 3.57647 3.91256 2.54359 5.21611 2.54359C5.48783 2.54359 5.75221 2.58648 6.00556 2.67583C6.22957 2.75445 6.44255 2.86167 6.63345 3.00463C7.19893 3.41922 8.00311 3.30485 8.42907 2.75445C8.85503 2.20407 8.73753 1.42136 8.17205 1.00678C7.77181 0.713711 7.33117 0.484979 6.86111 0.324148C6.33239 0.141871 5.77791 0.0489502 5.21611 0.0489502C2.49519 0.0489502 0.284668 2.20049 0.284668 4.84881C0.284668 7.49358 2.49519 9.64511 5.21611 9.64511ZM69.5526 9.69874H69.5855C70.2612 9.69874 70.8079 9.16616 70.8079 8.50858V1.23908C70.8079 0.581474 70.2612 0.0489502 69.5855 0.0489502H69.5526C68.8769 0.0489502 68.3296 0.581474 68.3296 1.23908V8.50858C68.3296 9.16616 68.8769 9.69874 69.5526 9.69874ZM23.5759 12.1969C25.4009 12.1969 26.8806 13.6373 26.8806 15.4135V28.2799C26.8806 30.0561 28.3604 31.4964 30.1854 31.4964C32.0104 31.4964 33.4902 30.0561 33.4902 28.2799V15.4135C33.4902 13.6373 34.97 12.1969 36.7949 12.1969C38.6199 12.1969 40.0997 13.6373 40.0997 15.4135V28.4621C40.0997 33.6909 35.7448 37.9296 30.3727 37.9296C24.795 37.9296 20.2711 33.5265 20.2711 28.0976V15.4135C20.2711 13.6373 21.7509 12.1969 23.5759 12.1969ZM46.7093 12.1969C44.8843 12.1969 43.4045 13.6373 43.4045 15.4135V34.6665C43.4045 36.4428 44.8843 37.8832 46.7093 37.8832C48.5342 37.8832 50.014 36.4428 50.014 34.6665V15.4135C50.014 13.6373 48.5342 12.1969 46.7093 12.1969ZM94.0813 28.2798H85.8153C84.9015 28.2798 84.1594 29.0018 84.1594 29.8917C84.1594 30.7817 84.8975 31.5 85.8118 31.5H94.0738C95.899 31.5 97.3786 32.9403 97.3786 34.7166C97.3786 36.4928 95.899 37.9332 94.0738 37.9332H81.1852C79.1768 37.9332 77.5499 36.3499 77.5499 34.3949V15.7387C77.5499 13.7837 79.1768 12.2005 81.1852 12.2005H94.0738C95.899 12.2005 97.3786 13.6408 97.3786 15.4171C97.3786 17.1933 95.899 18.6336 94.0738 18.6336H85.8118C84.8975 18.6336 84.1594 19.352 84.1594 20.242V20.2491C84.1594 21.139 84.9015 21.8574 85.8153 21.8574L94.0738 21.8538C95.9025 21.8503 97.3821 23.2906 97.3821 25.0668C97.3821 26.8396 95.9059 28.2798 94.0813 28.2798ZM81.8094 8.98747C81.6002 9.44493 81.1338 9.71301 80.6489 9.69868C80.1646 9.70943 79.6981 9.44493 79.4889 8.98389L76.1656 1.73587C75.883 1.114 76.1841 0.381329 76.8447 0.127574C77.473 -0.111883 78.1816 0.231218 78.4567 0.831646L80.5061 5.3134C80.5576 5.43134 80.7263 5.43134 80.7812 5.3134L82.8301 0.831646C83.1058 0.231218 83.8144 -0.111883 84.4421 0.127574C85.1032 0.381329 85.4078 1.114 85.1217 1.73587L81.8094 8.98747ZM30.538 9.69874H35.3703C36.0533 9.69874 36.6114 9.15905 36.6114 8.49072C36.6114 7.82234 36.0569 7.28271 35.3703 7.28271H32.2712C31.9297 7.28271 31.6506 7.01105 31.6506 6.67871C31.6506 6.34631 31.9297 6.0747 32.2712 6.0747H35.3446C36.0276 6.0747 36.582 5.53502 36.582 4.87025C36.582 4.20549 36.0276 3.66225 35.3409 3.66582H32.2675C31.9266 3.66582 31.648 3.39873 31.6469 3.06362C31.648 2.73204 31.9266 2.46139 32.2675 2.46139H35.3666C36.0496 2.46139 36.6077 1.92172 36.6077 1.25338C36.6077 0.585045 36.0533 0.0489502 35.3703 0.0489502H30.538C29.7852 0.0489502 29.1757 0.642233 29.1757 1.3749V8.37278C29.172 9.10542 29.7852 9.69874 30.538 9.69874ZM95.8655 9.69874H91.0331C90.2806 9.69874 89.6709 9.10542 89.6709 8.37278V1.3749C89.6709 0.642233 90.2806 0.0489502 91.0331 0.0489502H95.8655C96.5521 0.0489502 97.1029 0.585045 97.1029 1.25338C97.1029 1.92172 96.5452 2.46139 95.862 2.46139H92.763C92.422 2.46139 92.1434 2.73201 92.1422 3.06359C92.1434 3.39871 92.422 3.66582 92.763 3.66582H95.836C96.5226 3.66225 97.0775 4.20549 97.0775 4.87025C97.0775 5.53502 96.5226 6.0747 95.84 6.0747H92.7664C92.4249 6.0747 92.1457 6.34631 92.1457 6.67871C92.1457 7.01105 92.4249 7.28271 92.7664 7.28271H95.8655C96.5521 7.28271 97.1069 7.82234 97.1069 8.49072C97.1069 9.15905 96.5486 9.69874 95.8655 9.69874ZM56.451 2.44352H57.7141C57.9418 2.44352 58.1292 2.62579 58.1292 2.84738V8.4371C58.1292 9.03035 58.5401 9.58079 59.1389 9.6844C59.9139 9.81662 60.5895 9.23764 60.5895 8.505V2.84738C60.5895 2.62579 60.7768 2.44352 61.0039 2.44352H62.2674C62.9465 2.44352 63.4973 1.90742 63.4973 1.24623C63.4973 0.585045 62.943 0.0489502 62.2639 0.0489502H56.451C55.7716 0.0489502 55.2209 0.585045 55.2209 1.24623C55.2209 1.90742 55.7716 2.44352 56.451 2.44352ZM67.3933 30.7817C68.1019 30.5386 68.7556 30.1776 69.3393 29.7094C70.8229 28.5157 73.0227 28.7195 74.2526 30.1633C75.479 31.6072 75.2698 33.7481 73.7827 34.9417C72.5672 35.921 71.2009 36.6752 69.7214 37.1827C68.2857 37.6759 66.7836 37.926 65.2525 37.926C57.8609 37.926 51.8499 32.0754 51.8499 24.881C51.8499 17.6865 57.8609 11.836 65.2525 11.836C66.7801 11.836 68.2857 12.0862 69.7179 12.5793C70.9958 13.019 72.1962 13.6444 73.2833 14.4378C74.8219 15.5636 75.1374 17.6901 73.9809 19.1912C72.8244 20.6887 70.6392 20.9961 69.0972 19.8703C68.5758 19.4879 68.0031 19.1912 67.3933 18.9804C66.7102 18.7445 65.9906 18.6265 65.2525 18.6265C61.7091 18.6265 58.8268 21.4321 58.8268 24.881C58.8268 28.3299 61.7091 31.1355 65.2525 31.1355C65.9871 31.1355 66.7102 31.0175 67.3933 30.7817ZM22.0814 9.67371C21.4645 9.9489 20.7338 9.68082 20.4511 9.0804L19.4009 6.85739H17.8219V8.52644C17.8219 9.18765 17.2711 9.7237 16.5919 9.7237C15.9125 9.7237 15.3617 9.18765 15.3617 8.52644V5.69226C15.3617 5.68018 15.3601 5.66724 15.3583 5.65389C15.3564 5.63961 15.3544 5.62482 15.3544 5.61008V1.30342C15.3544 0.613645 15.9309 0.0525273 16.6396 0.0525273H20.3667C22.2944 0.0525273 23.8623 1.57862 23.8623 3.45496C23.8623 4.79878 23.0582 5.95676 21.8941 6.51072L22.691 8.08684C22.9737 8.68726 22.702 9.39852 22.0814 9.67371ZM20.363 2.55074H17.9248V4.35203H20.363C20.8734 4.35203 21.2883 3.94817 21.2883 3.45138C21.2883 2.9546 20.8734 2.55074 20.363 2.55074ZM48.2293 0.942444C48.1595 0.738728 48.0347 0.55288 47.8658 0.402775C47.8474 0.384906 47.8291 0.367032 47.807 0.352741C47.7777 0.331296 47.7483 0.309851 47.7153 0.288405L47.7152 0.288377V0.288365C47.6601 0.25264 47.605 0.216915 47.5463 0.188333L47.5427 0.184762L47.5096 0.170465C47.5059 0.170465 47.5059 0.170465 47.5023 0.166894C47.4325 0.134723 47.3628 0.113283 47.2893 0.0918379C47.2673 0.0846895 47.2489 0.0811158 47.2269 0.0775416C47.1718 0.0668201 47.1167 0.0596717 47.0616 0.056098C47.0249 0.0525238 46.9845 0.0489502 46.9478 0.0489502C46.9111 0.0489502 46.8707 0.0525238 46.834 0.056098C46.7789 0.0596717 46.7238 0.0668201 46.6687 0.0775416C46.6577 0.079329 46.6476 0.0820093 46.6375 0.0846895C46.6274 0.0873703 46.6173 0.0900505 46.6063 0.0918379C46.5329 0.109706 46.4631 0.134723 46.3933 0.166894C46.3918 0.166894 46.3909 0.166894 46.39 0.167171C46.389 0.167541 46.3881 0.168408 46.3861 0.17043L46.386 0.170465L46.3529 0.184762L46.3492 0.188333C46.2905 0.216927 46.2354 0.249092 46.1804 0.288405C46.1473 0.309851 46.1179 0.331296 46.0886 0.352741L46.0885 0.35277V0.352788C46.0701 0.370638 46.0518 0.388489 46.0298 0.402775C45.8609 0.55288 45.7361 0.735157 45.6663 0.942444L42.2698 7.90099C41.954 8.54429 42.2367 9.31271 42.8977 9.62009L42.9307 9.63436C43.5916 9.94174 44.3811 9.66655 44.6969 9.02325L44.9282 8.54429H48.9637L49.195 9.02325C49.5108 9.66655 50.3003 9.94174 50.9613 9.63436L50.9943 9.62009C51.6552 9.31271 51.938 8.54429 51.6222 7.90099L48.2293 0.942444ZM46.0629 6.22836L46.9478 4.41279L47.8328 6.22836H46.0629ZM17.1573 15.703V24.495V26.1426C17.1573 26.2415 17.1602 26.3896 17.1636 26.5589C17.1723 26.9834 17.1835 27.5419 17.1573 27.7973L17.1095 28.1834C16.3678 33.6873 11.5208 37.9511 5.66404 37.9511C4.78277 37.9511 3.9015 37.8546 3.04594 37.6615C1.26871 37.2613 0.163452 35.5315 0.574711 33.8017C0.985969 32.0718 2.7632 30.9961 4.54042 31.3963C4.90395 31.4786 5.28216 31.5215 5.66404 31.5215C7.85255 31.5215 10.3568 29.8238 10.3568 28.2048V21.8896C10.3568 18.8981 10.03 18.6301 7.00797 18.6301H3.74728C1.92232 18.6301 0.44252 17.1898 0.44252 15.4135C0.44252 13.6373 1.92232 12.1969 3.74728 12.1969H13.5037C15.4902 12.1969 17.1573 13.7659 17.1573 15.703Z" fill="#232343"/>
</svg>
