<svg width="141" height="64" viewBox="0 0 141 64" fill="none" xmlns="http://www.w3.org/2000/svg">
<g clip-path="url(#clip0_34155_490283)">
<path fill-rule="evenodd" clip-rule="evenodd" d="M29.208 35.4646L18.1317 26.6601C18.1317 26.6601 17.7374 26.3777 17.1673 26.3777C16.597 26.3777 16.1986 26.6601 16.1986 26.6601L4.5377 35.5242L3.66312 36.1618L5.4044 39.4296L5.91718 39.0008L17.1673 30.4455L27.8129 38.9553L28.2404 39.2866L30.5991 36.2179L29.208 35.4646Z" fill="#232343"/>
<path fill-rule="evenodd" clip-rule="evenodd" d="M0.577881 32.6371C0.577881 41.5538 7.86948 48.7822 16.8642 48.7822C25.8588 48.7822 33.1503 41.5538 33.1503 32.6371C33.1503 23.7204 25.8588 16.492 16.8642 16.492C7.86948 16.492 0.577881 23.7204 0.577881 32.6371ZM29.5312 32.6372C29.5312 39.5724 23.8598 45.1946 16.864 45.1946C9.86824 45.1946 4.197 39.5724 4.197 32.6372C4.197 25.7021 9.86824 20.0799 16.864 20.0799C23.8598 20.0799 29.5312 25.7021 29.5312 32.6372Z" fill="#232343"/>
<path fill-rule="evenodd" clip-rule="evenodd" d="M139.578 37.414C139.578 29.7534 135.819 25.6938 129.158 25.6938C122.525 25.6938 118.738 29.7712 118.738 37.414C118.738 45.0663 122.536 49.1805 129.158 49.1805C135.81 49.1805 139.578 45.0842 139.578 37.414ZM135.334 37.4142C135.334 42.8358 133.268 45.2969 129.158 45.2969C125.048 45.2969 122.983 42.8358 122.983 37.4142C122.983 32.062 125.067 29.5779 129.158 29.5779C133.249 29.5779 135.334 32.062 135.334 37.4142Z" fill="#232343"/>
<path fill-rule="evenodd" clip-rule="evenodd" d="M107.467 41.9508L113.498 27.3212C113.829 26.5005 114.462 25.9721 115.461 25.9721C116.635 25.9721 117.56 26.8886 117.56 28.053C117.56 28.3105 117.519 28.5208 117.443 28.7378C117.431 28.7767 117.393 28.8784 117.389 28.8909L109.425 47.6561C109.043 48.4782 108.321 48.949 107.467 48.949C106.612 48.949 105.891 48.4782 105.516 47.6748L97.5521 28.9127C97.5406 28.8784 97.5028 28.7767 97.4893 28.7378C97.4142 28.5208 97.3736 28.3105 97.3736 28.053C97.3736 26.8886 98.2981 25.9721 99.4727 25.9721C100.471 25.9721 101.104 26.5005 101.434 27.3171L107.467 41.9508Z" fill="#232343"/>
<path fill-rule="evenodd" clip-rule="evenodd" d="M92.4262 43.3773C90.6672 44.6849 89.316 45.2503 87.1784 45.2503C83.3569 45.2503 80.9566 42.8482 80.739 38.8925H93.7698C94.7212 38.8925 95.4093 38.5322 95.808 37.8583C96.1029 37.3597 96.213 36.7685 96.2368 35.9476C96.2419 35.7715 96.2429 35.6323 96.2429 35.3286C96.2429 33.2243 95.6844 31.0254 94.4768 29.289C92.8821 26.996 90.3087 25.6938 86.7109 25.6938C80.242 25.6938 76.4778 30.0078 76.4778 37.414C76.4778 45.1952 80.3058 49.1805 87.1784 49.1805C89.1373 49.1805 90.875 48.7818 92.3769 48.0875C93.4573 47.588 94.329 46.9738 94.8976 46.4102C95.3685 45.9434 95.5885 45.548 95.5885 44.9214C95.5885 43.8497 94.7106 42.9796 93.6296 42.9796C93.1582 42.9796 92.8677 43.0844 92.4262 43.3773ZM80.7828 35.1015C81.2265 31.5525 83.2886 29.5779 86.7111 29.5779C90.3259 29.5779 91.922 31.566 92.0788 35.1015H80.7828Z" fill="#232343"/>
<path fill-rule="evenodd" clip-rule="evenodd" d="M69.7411 14.3861C70.9026 14.3861 71.8402 15.3357 71.8402 16.467V42.9286C71.8402 44.46 72.2101 44.9721 73.1068 44.9721C74.2011 44.9721 75.1125 45.855 75.1125 46.9603C75.1125 48.0657 74.2011 48.9485 73.1068 48.9485C69.6011 48.9485 67.6419 46.7859 67.6419 42.9286V16.467C67.6419 15.349 68.6132 14.3861 69.7411 14.3861Z" fill="#232343"/>
<path d="M48.5132 44.5091H61.8408C62.9686 44.5091 63.8931 45.4256 63.8931 46.5437C63.8931 47.6617 62.9686 48.5782 61.8408 48.5782H46.3206C45.0993 48.5782 44.128 47.6154 44.128 46.4047V18.3675C44.128 17.1568 45.0993 16.1939 46.3206 16.1939H61.3266C62.4544 16.1939 63.379 17.1104 63.379 18.2285C63.379 19.3466 62.4544 20.2631 61.3266 20.2631H48.5132V30.2356H58.1945C59.3223 30.2356 60.2468 31.1521 60.2468 32.2702C60.2468 33.3883 59.3223 34.3049 58.1945 34.3049H48.5132V44.5091Z" fill="#232343"/>
</g>
<defs>
<clipPath id="clip0_34155_490283">
<rect width="140" height="36" fill="white" transform="translate(0.327881 14)"/>
</clipPath>
</defs>
</svg>
