<svg width="225" height="64" viewBox="0 0 225 64" fill="none" xmlns="http://www.w3.org/2000/svg">
<g clip-path="url(#clip0_34155_490268)">
<path d="M218.917 19.9612V34.1853L208.275 20.0302L208.224 19.9612H203.238V43.9813H208.651V29.2867L219.703 43.9813H224.328V19.9612H218.917Z" fill="#232343"/>
<path d="M187.652 19.5581C180.575 19.5581 175.032 25.0149 175.032 31.9794V32.0581C175.032 39.0887 180.429 44.3913 187.586 44.3913C194.66 44.3913 200.202 38.9388 200.202 31.9792V31.8969C200.201 24.8635 194.806 19.5581 187.652 19.5581ZM180.751 31.8971C180.751 27.8085 183.689 24.7246 187.586 24.7246C191.519 24.7246 194.485 27.8435 194.485 31.9794V32.0581C194.485 36.1512 191.547 39.2372 187.652 39.2372C183.718 39.2372 180.751 36.1172 180.751 31.9794V31.8971Z" fill="#232343"/>
<path d="M165.935 43.9807H171.43V19.9606H165.935V43.9807Z" fill="#232343"/>
<path d="M156.12 29.4729C152.034 28.4119 151.207 27.9187 151.207 26.5381V26.4596C151.207 25.2921 152.3 24.5674 154.059 24.5674C155.863 24.5674 157.815 25.3229 160.025 26.8789L160.169 26.978L162.999 22.7761L162.874 22.675C160.391 20.644 157.446 19.6153 154.121 19.6153C149.197 19.6153 145.758 22.6218 145.758 26.9261V27.0089C145.758 31.9512 149.178 33.2409 153.646 34.4137C157.576 35.4402 158.21 36.0893 158.21 37.2497V37.3138C158.21 38.595 157.015 39.3605 155.014 39.3605C152.629 39.3605 150.451 38.458 148.16 36.519L148.027 36.4068L144.764 40.3708L144.887 40.483C147.588 42.9531 151.151 44.3113 154.921 44.3113C160.314 44.3113 163.664 41.4294 163.664 36.79V36.7379C163.664 32.3368 160.649 30.6506 156.12 29.4729Z" fill="#232343"/>
<path d="M136.477 43.9807H141.962V19.9606H136.477V43.9807Z" fill="#232343"/>
<path d="M127.345 19.9612L121.379 36.2864L115.412 20.075L115.37 19.9612H109.348L118.923 44.1499H123.677L133.262 19.9612H127.345Z" fill="#232343"/>
<path d="M101.571 19.5925L101.335 19.5V25.1652L101.388 25.2174C103.172 26.9887 104.155 29.3816 104.155 31.9563V32.0137C104.155 34.5734 103.172 36.9672 101.387 38.7547L101.335 38.8061V44.4998L101.572 44.4058C106.633 42.3861 109.777 37.6371 109.777 32.0135V31.9357C109.777 26.3022 106.633 21.5729 101.571 19.5925Z" fill="#232343"/>
<path d="M97.9593 25.7919C96.5626 23.3334 94.4332 21.4999 91.8008 20.4892C90.2687 19.8867 88.6442 19.5809 86.9708 19.5809C84.3272 19.5809 81.83 20.324 79.7505 21.731C76.3781 23.9809 74.3649 27.8158 74.3649 31.9911V32.0585C74.3649 36.3017 76.3284 40.0453 79.7532 42.3342C81.8895 43.7174 84.3012 44.4186 86.9214 44.4186C88.6414 44.4186 90.3297 44.0929 91.801 43.4819C94.4321 42.438 96.5617 40.5848 97.9595 38.1207L97.9827 38.0799V25.8325L97.9593 25.7919ZM86.9212 24.7237C88.7228 24.7237 90.3901 25.405 91.6181 26.6425C93.0149 27.9954 93.8155 29.945 93.8155 31.9913V32.0588C93.8155 34.1725 93.0354 36.0791 91.6181 37.4255C90.4082 38.6117 88.7573 39.2649 86.9708 39.2649C83.0399 39.2649 80.0767 36.1374 80.0767 31.9913V31.9297C80.0769 27.8214 83.0193 24.7237 86.9212 24.7237Z" fill="#232343"/>
<path d="M71.4477 20.2577C68.071 22.8464 66.055 27.2195 66.055 31.9572V32.0594C66.055 36.8115 68.071 41.1842 71.4477 43.7565L71.7242 43.9667V20.0457L71.4477 20.2577Z" fill="#232343"/>
<path d="M58.0105 35.4491C61.1657 34.1722 62.8998 31.5396 62.8998 28.0147V27.9446C62.8998 25.6529 62.1932 23.7467 60.8588 22.4346C59.2453 20.7934 56.9196 19.961 53.9455 19.961H43.0911V43.9811H48.5693V36.4148H52.3512L57.3455 43.9806H63.7682L58.0105 35.4491ZM48.5695 25.0206H53.4878C55.9823 25.0206 57.3567 26.1627 57.3567 28.2345V28.2932C57.3567 30.2375 55.9256 31.4456 53.6222 31.4456H48.5697V25.0206H48.5695Z" fill="#232343"/>
<path d="M34.3892 19.9612V33.684C34.3892 37.2455 32.6733 39.2062 29.5568 39.2062C26.3959 39.2062 24.6551 37.1949 24.6551 33.5434V19.9612H19.1811V33.6514C19.1811 40.5584 22.8313 44.3643 29.4586 44.3643C36.0832 44.3643 39.8814 40.4047 39.8814 33.5001V19.9612H34.3892Z" fill="#232343"/>
<path d="M15.8099 24.9477V19.9608H0.327881V43.9809H15.8099V39.0137H5.75769V34.3741H15.8099V29.4036H5.75769V24.9477H15.8099Z" fill="#232343"/>
</g>
<defs>
<clipPath id="clip0_34155_490268">
<rect width="224" height="25" fill="white" transform="translate(0.327881 19.5)"/>
</clipPath>
</defs>
</svg>
