<svg width="169" height="64" viewBox="0 0 169 64" fill="none" xmlns="http://www.w3.org/2000/svg">
<g clip-path="url(#clip0_34155_490292)">
<path d="M39.31 23.8596C36.8949 23.8596 34.5339 24.5855 32.5257 25.9454C30.5177 27.3054 28.9525 29.2382 28.0282 31.4998C27.104 33.7613 26.8622 36.2497 27.3333 38.6505C27.8045 41.0513 28.9675 43.2565 30.6753 44.9874C32.3831 46.7183 34.5589 47.897 36.9277 48.3745C39.2965 48.852 41.7517 48.6069 43.9831 47.6703C46.2145 46.7335 48.1215 45.1472 49.4634 43.1119C50.8052 41.0766 51.5214 38.6838 51.5214 36.2359C51.5214 32.9535 50.2348 29.8056 47.9448 27.4845C45.6546 25.1636 42.5487 23.8596 39.31 23.8596ZM39.31 45.1831C34.6545 45.1831 30.8638 40.9544 30.8638 36.2359C30.8638 31.5175 34.6545 27.2889 39.31 27.2889C43.9656 27.2889 47.7562 31.5175 47.7562 36.2359C47.7562 40.9544 43.9579 45.1831 39.31 45.1831Z" fill="#232343"/>
<path d="M72.9853 43.4555C72.9853 44.5384 72.3493 45.1831 71.5606 45.1831C70.772 45.1831 70.136 44.5384 70.136 43.4555V29.068C70.136 27.6867 69.5945 26.3619 68.6309 25.3851C67.6671 24.4083 66.36 23.8596 64.997 23.8596C63.6341 23.8596 62.327 24.4083 61.3633 25.3851C60.3995 26.3619 59.8581 27.6867 59.8581 29.068V43.4555C59.8581 44.5384 59.2221 45.1831 58.4335 45.1831C57.6448 45.1831 57.0088 44.5384 57.0088 43.4555V24.2206H53.32V43.4039C53.32 44.088 53.4529 44.7652 53.7112 45.3972C53.9694 46.029 54.348 46.6031 54.8251 47.0868C55.3023 47.5705 55.8688 47.9541 56.4923 48.2159C57.1158 48.4776 57.784 48.6123 58.4589 48.6123C59.1337 48.6123 59.802 48.4776 60.4255 48.2159C61.0489 47.9541 61.6155 47.5705 62.0927 47.0868C62.5699 46.6031 62.9484 46.029 63.2067 45.3972C63.465 44.7652 63.5979 44.088 63.5979 43.4039V29.0164C63.5979 27.9335 64.2338 27.2889 65.0225 27.2889C65.8112 27.2889 66.4472 27.9335 66.4472 29.0164V43.4039C66.4472 44.7853 66.9886 46.1101 67.9523 47.0868C68.9161 48.0636 70.2231 48.6123 71.5861 48.6123C72.949 48.6123 74.2562 48.0636 75.2198 47.0868C76.1836 46.1101 76.725 44.7853 76.725 43.4039V24.2206H73.0362L72.9853 43.4555Z" fill="#232343"/>
<path d="M25.0304 14.5H21.2144V48.1998H25.0304V14.5Z" fill="#232343"/>
<path d="M0.327881 48.1998H4.14393V33.2192H16.3298V29.4806H4.14393V18.2387H18.7975V14.5H0.327881V48.1998Z" fill="#232343"/>
<path d="M97.7361 46.7765C99.2229 46.1018 100.489 45.0104 101.385 43.6308C102.127 42.4121 102.553 41.0222 102.621 39.5914C102.689 38.1605 102.399 36.7355 101.777 35.4496C101.224 34.3191 100.433 33.3252 99.4609 32.5385C98.5379 31.7826 97.4356 31.2848 96.2633 31.0946L95.2227 30.927L96.2251 30.5944C97.8248 30.096 99.2491 29.1419 100.329 27.8458C101.346 26.5953 101.868 24.9838 101.868 23.0551C101.887 21.5683 101.486 20.1069 100.715 18.842C99.8679 17.5307 98.662 16.4977 97.2452 15.8691C95.6931 15.1317 93.79 14.7578 91.5822 14.7578H79.9051V47.9368H92.0503C94.2277 47.9368 96.1411 47.5448 97.7361 46.7765ZM83.744 29.0499V17.8674H91.2006C93.3503 17.8674 95.0164 18.3831 96.1821 19.3809C97.3469 20.3787 97.9424 21.8098 97.9424 23.5889C97.9424 25.3679 97.3497 26.7835 96.1821 27.7968C95.0136 28.8101 93.3834 29.3077 91.2947 29.3077H83.7364L83.744 29.0499ZM83.9984 44.8246H83.744V32.4199H91.5339C93.7144 32.4199 95.4868 32.9846 96.8 34.101C98.1123 35.2175 98.7992 36.7826 98.7992 38.7215C98.7992 40.6605 98.1589 42.1431 96.8971 43.2209C95.6352 44.2986 93.8899 44.8272 91.6763 44.8272L83.9984 44.8246Z" fill="#232343"/>
<path d="M119.856 25.2391C118.332 24.4223 116.63 24.0082 114.906 24.035C112.108 24.035 109.802 24.8317 108.037 26.4019C106.271 27.9722 105.251 29.9911 104.893 32.4973H108.469C108.772 30.8704 109.466 29.5734 110.538 28.6478C111.609 27.7221 113.041 27.2219 114.727 27.2219C116.592 27.2219 118.078 27.8381 119.147 29.0526C120.215 30.267 120.777 31.9327 120.836 34.0186V34.1501H113.443C110.449 34.1501 108.147 34.8514 106.6 36.2334C105.851 36.886 105.254 37.6988 104.852 38.6132C104.451 39.5277 104.255 40.521 104.277 41.5217C104.258 42.7918 104.603 44.0401 105.269 45.116C105.949 46.1863 106.906 47.0456 108.037 47.5991C109.293 48.2147 110.672 48.5237 112.067 48.5015C113.866 48.517 115.638 48.0566 117.208 47.1659C118.758 46.2814 119.9 45.1547 120.602 43.8139L120.841 43.3575V48.0631H124.535V34.1965C124.535 32.0796 124.113 30.236 123.281 28.7225C122.494 27.2514 121.305 26.0417 119.856 25.2391ZM120.841 37.2494V37.6413C120.876 39.1042 120.47 40.5431 119.679 41.7667C118.929 42.896 117.894 43.8 116.682 44.3838C115.483 44.9655 114.169 45.2678 112.84 45.2681C111.352 45.2681 110.162 44.8969 109.296 44.1697C108.871 43.8198 108.531 43.375 108.302 42.8701C108.075 42.3652 107.965 41.8138 107.981 41.2588C107.962 40.6807 108.077 40.1061 108.317 39.5813C108.557 39.0566 108.915 38.5961 109.363 38.2368C110.271 37.4943 111.652 37.1178 113.433 37.1178H120.831L120.841 37.2494Z" fill="#232343"/>
<path d="M138.321 23.9912C136.814 23.9747 135.324 24.3136 133.968 24.9813C132.697 25.6061 131.621 26.5741 130.857 27.7788L130.623 28.1501V24.4269H126.962V48.0657H130.623V34.9803C130.623 32.4586 131.248 30.5068 132.485 29.1815C133.722 27.8562 135.411 27.1781 137.505 27.1781C139.598 27.1781 141.218 27.8304 142.415 29.1144C143.61 30.3984 144.213 32.2704 144.213 34.6761V48.0657H147.831V34.1088C147.831 30.8471 146.945 28.3177 145.203 26.5927C143.46 24.8678 141.14 23.9912 138.321 23.9912Z" fill="#232343"/>
<path d="M163.344 48.0656H168.328L157.386 36.2901L157.302 36.2024L157.386 36.1147L168.282 24.4268H163.174L154.132 34.9777L153.908 35.2407V34.8951V16.0547H150.247V48.0656H153.908V37.6412V37.3034L154.132 37.5561L163.344 48.0656Z" fill="#232343"/>
</g>
<defs>
<clipPath id="clip0_34155_490292">
<rect width="168" height="35" fill="white" transform="translate(0.327881 14.5)"/>
</clipPath>
</defs>
</svg>
