<svg width="255" height="64" viewBox="0 0 255 64" fill="none" xmlns="http://www.w3.org/2000/svg">
<path d="M56.2514 10.7378H15.4952C15.1904 10.7378 14.8981 10.8574 14.6827 11.0702C14.4672 11.2831 14.3461 11.5718 14.3461 11.8728V21.7307C14.3461 22.0317 14.4672 22.3204 14.6827 22.5333C14.8981 22.7462 15.1904 22.8657 15.4952 22.8657H17.6209C17.9256 22.8657 18.2179 22.9853 18.4334 23.1982C18.6488 23.4111 18.7699 23.6998 18.7699 24.0008V41.2137C18.7699 41.5148 18.6488 41.8035 18.4334 42.0163C18.2179 42.2292 17.9256 42.3488 17.6209 42.3488H15.4952C15.1904 42.3488 14.8981 42.4684 14.6827 42.6812C14.4672 42.8941 14.3461 43.1828 14.3461 43.4838V52.1272C14.3461 52.4282 14.4672 52.7169 14.6827 52.9298C14.8981 53.1427 15.1904 53.2622 15.4952 53.2622H56.2514C56.5562 53.2622 56.8484 53.1427 57.0639 52.9298C57.2794 52.7169 57.4005 52.4282 57.4005 52.1272V11.8728C57.4005 11.5718 57.2794 11.2831 57.0639 11.0702C56.8484 10.8574 56.5562 10.7378 56.2514 10.7378ZM23.7797 32.9847L33.0352 41.8096C33.0765 41.849 33.105 41.8997 33.1169 41.9552C33.1288 42.0107 33.1235 42.0684 33.1019 42.1209C33.0803 42.1734 33.0432 42.2184 32.9954 42.2499C32.9477 42.2814 32.8915 42.298 32.8341 42.2977H31.2829C30.9871 42.2965 30.7031 42.1827 30.4901 41.9799L21.0392 32.996C20.9836 32.9431 20.9394 32.8796 20.9092 32.8094C20.879 32.7392 20.8634 32.6637 20.8634 32.5874C20.8634 32.5111 20.879 32.4356 20.9092 32.3654C20.9394 32.2952 20.9836 32.2317 21.0392 32.1788L30.4441 23.1892C30.6576 22.983 30.944 22.867 31.2427 22.8657H32.8341C32.8915 22.8654 32.9477 22.8821 32.9954 22.9136C33.0432 22.9451 33.0803 22.99 33.1019 23.0425C33.1235 23.0951 33.1288 23.1528 33.1169 23.2083C33.105 23.2638 33.0765 23.3145 33.0352 23.3538L23.7797 32.1674C23.7241 32.2204 23.6799 32.2838 23.6497 32.3541C23.6194 32.4243 23.6039 32.4998 23.6039 32.576C23.6039 32.6523 23.6194 32.7278 23.6497 32.798C23.6799 32.8683 23.7241 32.9317 23.7797 32.9847ZM44.4106 34.0459H38.5505C38.3982 34.0459 38.252 34.1057 38.1443 34.2122C38.0366 34.3186 37.976 34.4629 37.976 34.6135V41.7813C37.976 41.9318 37.9155 42.0761 37.8078 42.1826C37.7 42.289 37.5539 42.3488 37.4015 42.3488H36.5225C36.3701 42.3488 36.224 42.289 36.1163 42.1826C36.0085 42.0761 35.948 41.9318 35.948 41.7813V33.3252C35.948 33.0241 36.069 32.7354 36.2845 32.5226C36.5 32.3097 36.7923 32.1901 37.097 32.1901H44.5945C47.6337 32.1901 48.7195 30.2776 48.7195 28.4842C48.7195 27.6046 48.4323 24.7272 44.7553 24.7272H36.5225C36.3701 24.7272 36.224 24.6674 36.1163 24.561C36.0085 24.4546 35.948 24.3102 35.948 24.1597V23.4333C35.948 23.2828 36.0085 23.1384 36.1163 23.032C36.224 22.9255 36.3701 22.8657 36.5225 22.8657H44.83C46.611 22.8657 50.7533 23.4333 50.7533 28.5069C50.7533 31.9745 48.3863 34.0459 44.4106 34.0459Z" fill="#232343"/>
<path d="M15.5296 24.8975H2.24103C1.60644 24.8975 1.092 25.4056 1.092 26.0325V39.1593C1.092 39.7862 1.60644 40.2943 2.24103 40.2943H15.5296C16.1642 40.2943 16.6787 39.7862 16.6787 39.1593V26.0325C16.6787 25.4056 16.1642 24.8975 15.5296 24.8975Z" fill="#232343"/>
<path d="M89.6022 22.7465H87.0284L75.4231 33.4613V22.7465H73.5214V42.6666H75.4231V35.8279L79.2838 32.2695L87.5626 42.6666H90.0216L80.7029 30.9529L89.6022 22.7465Z" fill="#232343"/>
<path d="M92.9918 22.7465H91.2281V25.5671H92.9918V22.7465Z" fill="#232343"/>
<path d="M92.9918 28.2686H91.2281V42.6666H92.9918V28.2686Z" fill="#232343"/>
<path d="M97.5133 31.6453H97.4558V28.2402H95.8357V42.6666H97.5937V34.971C97.5937 31.9858 99.7769 29.6419 102.965 29.8065V28.0756C101.784 27.9868 100.607 28.2897 99.6192 28.9362C98.6318 29.5827 97.8907 30.536 97.5133 31.6453Z" fill="#232343"/>
<path d="M116.438 28.2685H114.088L106.091 35.2434V22.7465H104.327V42.6666H106.091V37.1956L108.912 34.7666L114.651 42.6666H116.857L110.279 33.5805L116.438 28.2685Z" fill="#232343"/>
<path d="M195.199 42.6666L188.626 33.5748L194.773 28.2685H192.429L184.426 35.2434V22.7465H182.668V42.6666H184.426V37.1956L187.253 34.761L192.987 42.6666H195.199Z" fill="#232343"/>
<path d="M124.952 27.8486C123.878 27.8099 122.816 28.0891 121.903 28.6502C120.99 29.2114 120.267 30.029 119.828 30.9983H119.77V28.2685H118.104V48.024H119.868V39.9311H119.919C120.678 41.9969 122.792 43.0809 124.929 43.0809C129.319 43.0809 131.416 39.5395 131.416 35.4647C131.416 31.3899 129.342 27.8486 124.952 27.8486ZM124.952 41.6053C121.201 41.6053 119.891 38.4499 119.891 35.4647C119.891 32.2015 121.04 29.3298 124.952 29.3298C128.307 29.3298 129.675 32.4795 129.675 35.4647C129.675 38.4499 128.307 41.6053 124.952 41.6053Z" fill="#232343"/>
<path d="M150.202 23.944H148.439V28.2685H145.922V29.7498H148.439V39.5963C148.41 42.0537 149.226 42.8312 151.57 42.8312C152.104 42.8312 152.604 42.7744 153.138 42.7744V41.2705C152.636 41.3271 152.132 41.3555 151.627 41.3556C150.369 41.2705 150.202 40.6008 150.202 39.4544V29.7498H153.15V28.2685H150.214L150.202 23.944Z" fill="#232343"/>
<path d="M156.815 31.6453H156.763V28.2402H155.137V42.6666H156.901V34.971C156.901 31.9858 159.079 29.6419 162.267 29.8065V28.0756C161.086 27.9878 159.909 28.2911 158.922 28.9374C157.935 29.5838 157.193 30.5366 156.815 31.6453Z" fill="#232343"/>
<path d="M165.881 28.2686H164.117V42.6666H165.881V28.2686Z" fill="#232343"/>
<path d="M165.881 22.7465H164.117V25.5671H165.881V22.7465Z" fill="#232343"/>
<path d="M174.51 41.6053C171.132 41.6053 169.454 38.535 169.454 35.4647C169.454 32.3944 171.132 29.3298 174.51 29.3298C176.808 29.3298 178.118 30.6408 178.595 32.786H180.359C179.968 29.4944 177.59 27.8486 174.51 27.8486C170.092 27.8486 167.691 31.3388 167.691 35.4647C167.691 39.5906 170.092 43.0809 174.51 43.0809C177.727 43.0809 179.997 40.964 180.468 37.5021H178.71C178.486 39.9027 176.705 41.6053 174.51 41.6053Z" fill="#232343"/>
<path d="M144.606 40.1241V32.4852C144.606 28.6431 141.837 27.8599 139.298 27.8599C136 27.8599 133.622 29.3071 133.455 32.6839H135.219C135.271 30.34 136.891 29.3355 139.074 29.3355C141.142 29.3355 142.843 29.903 142.843 32.2923C142.843 33.8813 142.033 34.0743 140.579 34.2446C136.782 34.6872 132.84 34.8121 132.84 38.8699C132.84 41.7699 135.018 43.0809 137.678 43.0809C140.441 43.0809 141.699 42.0196 142.929 40.1525H142.986C142.986 41.6564 143.262 42.6609 145.055 42.6609C145.441 42.6688 145.826 42.6326 146.204 42.5531V41.0718C146.021 41.1443 145.826 41.1828 145.629 41.1853C145.487 41.1989 145.343 41.1803 145.209 41.131C145.076 41.0816 144.955 41.0029 144.856 40.9006C144.758 40.7984 144.684 40.6753 144.641 40.5408C144.598 40.4062 144.586 40.2638 144.606 40.1241ZM142.843 37.0878C142.871 39.9254 140.499 41.628 137.816 41.628C136.167 41.628 134.604 40.5384 134.604 38.7904C134.604 35.9528 138.316 35.9982 141.309 35.4704C141.786 35.3853 142.567 35.2491 142.791 34.8291H142.843V37.0878Z" fill="#232343"/>
<path d="M206.189 22.7465H197.324V42.6666H199.226V34.1253H206.189C209.768 34.1253 212.118 32.0369 212.118 28.4501C212.118 24.8634 209.768 22.7465 206.189 22.7465ZM205.77 32.5079H199.226V24.364H205.77C208.401 24.364 210.216 25.7033 210.216 28.4388C210.216 31.1742 208.401 32.5079 205.77 32.5079Z" fill="#232343"/>
<path d="M215.565 31.6453H215.508V28.2402H213.888V42.6666H215.646V34.971C215.646 31.9858 217.829 29.6419 221.017 29.8065V28.0756C219.836 27.9868 218.659 28.2897 217.671 28.9362C216.684 29.5827 215.943 30.536 215.565 31.6453Z" fill="#232343"/>
<path d="M224.631 22.7465H222.867V25.5671H224.631V22.7465Z" fill="#232343"/>
<path d="M224.631 28.2686H222.867V42.6666H224.631V28.2686Z" fill="#232343"/>
<path d="M233.392 41.6053C230.009 41.6053 228.331 38.535 228.331 35.4647C228.331 32.3944 230.009 29.3298 233.392 29.3298C235.691 29.3298 237 30.6408 237.477 32.786H239.241C238.85 29.4944 236.472 27.8486 233.392 27.8486C228.974 27.8486 226.573 31.3388 226.573 35.4647C226.573 39.5906 228.986 43.0809 233.392 43.0809C236.61 43.0809 238.873 40.964 239.35 37.5021H237.604C237.368 39.9027 235.576 41.6053 233.392 41.6053Z" fill="#232343"/>
<path d="M247.215 27.8599C242.619 27.8599 240.706 31.6794 240.706 35.4704C240.706 39.5679 242.631 43.0809 247.215 43.0809C250.846 43.0809 252.748 41.1853 253.501 37.9221H251.743C251.168 40.0957 249.783 41.6053 247.215 41.6053C243.831 41.6053 242.493 38.5066 242.464 35.9301H253.558C253.69 31.9007 251.852 27.8599 247.215 27.8599ZM242.464 34.4659C242.746 31.8439 244.337 29.3582 247.215 29.3582C250.094 29.3582 251.714 31.8439 251.811 34.4659H242.464Z" fill="#232343"/>
</svg>
