<svg width="91" height="26" viewBox="0 0 91 46" fill="none" xmlns="http://www.w3.org/2000/svg">
<path d="M89.9843 45.2557C89.6495 45.5922 89.246 45.76 88.7718 45.76C88.2967 45.76 87.8936 45.5922 87.5611 45.2557C87.2295 44.9209 87.0635 44.5165 87.0635 44.0405C87.0635 43.569 87.2313 43.1672 87.5656 42.8325C87.8981 42.5 88.3003 42.3331 88.7718 42.3331C89.246 42.3331 89.65 42.5 89.9843 42.8325C90.319 43.165 90.4854 43.5681 90.4854 44.0405C90.4854 44.5156 90.3185 44.9205 89.9843 45.2557ZM87.7303 43.0003C87.4446 43.2878 87.3011 43.6356 87.3011 44.0432C87.3011 44.4535 87.4437 44.8031 87.7285 45.0928C88.0142 45.3825 88.3619 45.5265 88.7713 45.5265C89.1798 45.5265 89.5276 45.3821 89.8133 45.0928C90.0999 44.8031 90.2425 44.4539 90.2425 44.0432C90.2425 43.6356 90.0999 43.2878 89.8133 43.0003C89.5258 42.7106 89.178 42.5666 88.7713 42.5666C88.3646 42.5666 88.0182 42.7106 87.7303 43.0003ZM88.7389 43.0957C88.9724 43.0957 89.1429 43.1182 89.2514 43.1632C89.4462 43.2446 89.5438 43.403 89.5438 43.6401C89.5438 43.8079 89.4822 43.9316 89.3603 44.0112C89.2946 44.0535 89.2046 44.0832 89.0885 44.1021C89.2356 44.1255 89.3423 44.1863 89.4106 44.2866C89.479 44.386 89.5128 44.4823 89.5128 44.5772V44.7149C89.5128 44.7581 89.5146 44.8049 89.5173 44.8544C89.52 44.9038 89.5258 44.9367 89.5339 44.9529L89.5452 44.9763H89.2352C89.2334 44.9695 89.2325 44.9632 89.2307 44.9574C89.2289 44.9506 89.228 44.9443 89.2262 44.9358L89.2185 44.876V44.727C89.2185 44.5097 89.1596 44.3662 89.0413 44.2969C88.972 44.2564 88.8483 44.2362 88.6728 44.2362H88.4114V44.9763H88.0807V43.0957H88.7389ZM89.0957 43.3917C89.0125 43.3449 88.8793 43.3224 88.6948 43.3224H88.4119V44.0027H88.7119C88.8514 44.0027 88.9576 43.9897 89.0278 43.9613C89.1569 43.9096 89.2217 43.8115 89.2217 43.6671C89.2212 43.5308 89.1789 43.439 89.0957 43.3917Z" fill="white"/>
<path d="M5.0593 9.32979L3.11438 5.51194V12.9843H0.514404V0.312439H3.2228L6.02253 6.07566L8.76828 0.312439H11.4767V12.9839H8.85915V5.43905L6.93178 9.32979H5.0593Z" fill="#232343"/>
<path d="M19.1272 12.9843H16.3459V8.60275L13.4553 3.94853C13.2551 3.67589 13.1642 3.31237 13.1642 2.85797V0.312439H15.9455V2.51245C15.9455 2.85752 16 3.13061 16.1093 3.31192L17.818 6.09321L19.4359 3.49368C19.5632 3.29348 19.6176 3.02129 19.6176 2.69376V0.312439H22.29V2.85797C22.29 3.25794 22.1812 3.62146 21.9814 3.94853L19.1272 8.51142V12.9843Z" fill="#232343"/>
<path d="M31.85 9.32979L29.905 5.51194V12.9843H27.3051V0.312439H30.0139L32.8136 6.07566L35.5585 0.312439H38.2669V12.9839H35.6494V5.43905L33.722 9.32979H31.85Z" fill="#232343"/>
<path d="M46.9365 0.312439H49.7177V10.3839C49.7177 12.1111 48.7721 13.0563 47.0449 13.0563H43.2639C41.5368 13.0563 40.5911 12.1111 40.5911 10.3839V0.312439H43.3728V10.1842C43.3728 10.4932 43.5181 10.639 43.8272 10.639H46.4812C46.7902 10.639 46.936 10.4932 46.936 10.1842L46.9365 0.312439Z" fill="#232343"/>
<path d="M51.7693 2.91241C51.7693 1.18525 52.715 0.240005 54.4422 0.240005H57.9874C59.6596 0.240005 60.5869 1.18525 60.5869 2.91241V4.16673H57.842V3.02174C57.842 2.71266 57.6963 2.56734 57.3876 2.56734H54.9699C54.6608 2.56734 54.5155 2.71266 54.5155 3.02174V4.33005C54.5155 4.67557 54.6064 4.7669 54.9154 4.85778L58.9515 5.8939C60.1334 6.20253 60.7331 6.93002 60.7331 8.05702V10.3839C60.7331 12.1111 59.7879 13.0563 58.0607 13.0563H54.2608C52.5886 13.0563 51.6613 12.1111 51.6613 10.3839V9.23846H54.4062V10.2746C54.4062 10.5837 54.5519 10.729 54.8606 10.729H57.5145C57.8236 10.729 57.9694 10.5837 57.9694 10.2746V8.69318C57.9694 8.42009 57.8236 8.25678 57.533 8.18434L53.388 7.11178C52.3155 6.83869 51.7697 6.07521 51.7697 4.82134L51.7693 2.91241Z" fill="#232343"/>
<path d="M68.6923 8.62075H71.4371V10.3844C71.4371 12.1115 70.4919 13.0568 68.7647 13.0568H65.238C63.5108 13.0568 62.5651 12.1115 62.5651 10.3844V2.91241C62.5651 1.18525 63.5108 0.240005 65.238 0.240005H68.7647C70.4919 0.240005 71.4371 1.18525 71.4371 2.91241V4.31205H68.6923V3.07618C68.6923 2.76709 68.5465 2.62133 68.2379 2.62133H65.8017C65.4926 2.62133 65.3473 2.76709 65.3473 3.07618V10.2206C65.3473 10.5297 65.4926 10.6754 65.8017 10.6754H68.2379C68.5465 10.6754 68.6923 10.5297 68.6923 10.2206V8.62075Z" fill="#232343"/>
<path d="M73.3438 12.9843V0.312439H76.1251V10.5661H80.9611V12.9839L73.3438 12.9843Z" fill="#232343"/>
<path d="M82.3229 12.9843V0.312439H90.3581V2.69421H85.1042V5.29418H89.8673V7.63951H85.1042V10.603H90.4854V12.9848L82.3229 12.9843Z" fill="#232343"/>
<path d="M14.5095 16.8499H6.73967C2.72521 16.8499 0.514404 19.0607 0.514404 23.0751V39.5352C0.514404 43.5492 2.72521 45.76 6.73967 45.76H14.5095C18.5244 45.76 20.7356 43.5492 20.7356 39.5352V35.312H14.0114V39.1744C14.0114 39.6706 13.844 39.838 13.3478 39.838H7.98185C7.48561 39.838 7.31825 39.6706 7.31825 39.1744V23.4355C7.31825 22.9393 7.48561 22.7719 7.98185 22.7719H13.3478C13.844 22.7719 14.0114 22.9393 14.0114 23.4355V26.4962H20.7352V23.0747C20.7352 19.0607 18.5239 16.8499 14.5095 16.8499Z" fill="#232343"/>
<path d="M38.2358 27.903H31.0635V17.0091H24.2588V45.6007H31.0635V33.9065H38.2358V45.6007H45.0406V17.0091H38.2358V27.903Z" fill="#232343"/>
<path d="M56.3682 33.826H66.8616V27.9831H56.3682V22.9321H67.9427V17.0091H49.5643V45.6007H68.223V39.6778H56.3682V33.826Z" fill="#232343"/>
<path d="M90.4855 22.9321V17.0091H71.7066V45.6007H78.5114V35.0677H89.4043V29.1447H78.5114V22.9321H90.4855Z" fill="#232343"/>
</svg>
