<svg width="194" height="36" viewBox="0 0 194 36" fill="none" xmlns="http://www.w3.org/2000/svg">
<path fill-rule="evenodd" clip-rule="evenodd" d="M6.07833 0.700012H29.6099C32.6678 0.700012 35.1467 3.17856 35.1467 6.23601V29.764C35.1467 32.8215 32.6678 35.3 29.6099 35.3H6.07833C3.02043 35.3 0.541504 32.8215 0.541504 29.764V6.23601C0.541504 3.17856 3.02043 0.700012 6.07833 0.700012ZM15.8707 28.7881C22.0055 26.142 25.0453 21.104 25.0453 15.4701C25.0453 10.7023 22.7338 6.91985 17.9288 6.92777C14.0342 6.92777 11.3269 9.11304 11.3269 13.1577C11.3269 16.9958 14.2321 18.7201 16.8048 18.7201C17.7943 18.7201 18.3167 18.5215 18.8471 17.989L19.1083 18.1877C17.9842 21.3662 14.9524 23.7501 10.9232 25.2758L15.8707 28.7881Z" fill="#232343"/>
<path d="M60.8118 18.7005V28.8037H55.6289V20.1246C55.6289 17.9701 54.7465 17.2704 53.4633 17.2704C51.9701 17.2704 50.7174 18.2709 50.7174 20.7875V28.7976H45.5284V13.6366H50.162L50.3164 16.5768C51.2604 14.4223 53.1239 13.3297 55.5303 13.3297C58.677 13.3297 60.8118 15.1834 60.8118 18.7005Z" fill="#232343"/>
<path d="M64.0141 9.41368C64.0141 7.68274 64.9274 6.92777 67.0314 6.92777C69.1354 6.92777 70.0486 7.6889 70.0486 9.41368C70.0486 11.1139 69.1354 11.8689 67.0314 11.8689C64.9274 11.8689 64.0141 11.1139 64.0141 9.41368ZM69.6292 28.8037H64.446V13.6366H69.6292V28.8037Z" fill="#232343"/>
<path d="M88.6025 18.7005V28.8037H83.4193V20.1246C83.4193 17.9701 82.5372 17.2704 81.2537 17.2704C79.7605 17.2704 78.5078 18.2709 78.5078 20.7875V28.7976H73.325V13.6366H77.959L78.113 16.5768C79.057 14.4223 80.9205 13.3297 83.3269 13.3297C86.4674 13.3297 88.6025 15.1834 88.6025 18.7005Z" fill="#232343"/>
<path d="M106.94 22.7087H96.5371C96.8704 24.679 97.9995 25.4708 99.7395 25.4708C101.263 25.4708 102.208 24.8631 102.547 23.8013L106.755 25.1393C105.873 27.7787 103.275 29.1168 99.7395 29.1168C94.4023 29.1168 91.5024 26.2319 91.5024 21.2294C91.5024 16.2269 94.3715 13.342 99.462 13.342C104.435 13.342 107.088 16.2269 107.088 21.0207C107.094 21.524 107.033 22.3097 106.94 22.7087ZM96.5371 19.9159H102.269C101.992 17.9762 101.048 16.9451 99.4308 16.9451C97.7898 16.9389 96.8088 17.8535 96.5371 19.9159Z" fill="#232343"/>
<path d="M120.878 27.9567C119.873 28.6564 118.164 29.1107 116.578 29.1107C113.129 29.1107 110.994 27.7787 110.963 24.2555V17.3072H108.341V13.6367H110.963V10.2362L116.146 8.81216V13.6367H120.724V17.3072H116.146V23.4084C116.146 24.8631 116.88 25.4401 118.157 25.4401C119.101 25.4401 119.743 25.1946 120.354 24.7711L120.878 27.9567Z" fill="#232343"/>
<path d="M139 25.7409L138.605 28.6257C137.994 28.9572 137.291 29.1106 136.532 29.1106C134.49 29.1106 133.052 28.4109 132.596 26.772C131.744 28.2268 129.973 29.1106 127.166 29.1106C124.149 29.1106 122.439 27.7787 122.439 25.3173C122.439 22.8007 124.056 21.1926 128.388 20.3394L131.837 19.6703V19.1241C131.837 17.7614 131.041 16.8775 129.671 16.8775C128.208 16.8775 127.141 17.4545 126.833 19.2161L122.625 18.0008C123.143 15.1159 125.524 13.3297 129.671 13.3297C134.366 13.3297 136.964 15.2448 136.964 19.1548V24.679C136.964 25.4708 137.328 25.8636 138.062 25.8636C138.42 25.8636 138.729 25.8329 139 25.7409ZM131.837 23.6171V22.3097L129.369 22.8867C128.085 23.1936 127.567 23.6171 127.567 24.4642C127.567 25.3112 128.116 25.7716 129.06 25.7716C130.337 25.7716 131.837 25.0104 131.837 23.6171Z" fill="#232343"/>
<path d="M140.623 9.41368C140.623 7.68274 141.536 6.92777 143.64 6.92777C145.744 6.92777 146.658 7.6889 146.658 9.41368C146.658 11.1139 145.744 11.8689 143.64 11.8689C141.536 11.8689 140.623 11.1139 140.623 9.41368ZM146.232 28.8037H141.049V13.6366H146.232V28.8037Z" fill="#232343"/>
<path d="M155.049 23.5557C155.049 24.8938 155.382 25.4401 156.449 25.4401C157.06 25.4401 157.455 25.348 158.004 25.1639L157.671 28.3495C156.937 28.8038 155.629 29.1107 154.5 29.1107C151.236 29.1107 149.866 27.6866 149.866 24.3168V7.19786H155.049V23.5557Z" fill="#232343"/>
<path d="M174.602 22.7087H164.199C164.532 24.679 165.662 25.4708 167.402 25.4708C168.926 25.4708 169.87 24.8631 170.209 23.8013L174.417 25.1393C173.535 27.7787 170.937 29.1168 167.402 29.1168C162.064 29.1168 159.164 26.2319 159.164 21.2294C159.164 16.2269 162.033 13.342 167.124 13.342C172.097 13.342 174.75 16.2269 174.75 21.0207C174.756 21.524 174.695 22.3097 174.602 22.7087ZM164.199 19.9159H169.931C169.654 17.9762 168.71 16.9451 167.093 16.9451C165.452 16.9389 164.477 17.8535 164.199 19.9159Z" fill="#232343"/>
<path d="M193.125 7.19786V28.8038H188.46L188.244 25.9189C187.393 27.8278 185.653 29.1045 183.302 29.1045C179.335 29.1045 177.021 26.2196 177.021 21.2785C177.021 16.2392 179.402 13.3297 183.302 13.3297C185.53 13.3297 187.115 14.4837 187.936 16.2146V7.19786H193.125ZM187.905 21.3706L187.936 21.4013V21.0084L187.905 21.0698C187.905 18.5532 186.899 17.123 185.098 17.123C183.327 17.123 182.229 18.3691 182.229 21.2171C182.229 24.0652 183.327 25.3112 185.098 25.3112C186.838 25.3173 187.905 23.9792 187.905 21.3706Z" fill="#232343"/>
</svg>
