<svg width="150" height="54" viewBox="0 0 150 54" fill="none" xmlns="http://www.w3.org/2000/svg">
<path d="M64.1715 1.16614H65.7419L72.0078 10.7274V1.16614H73.5446V13.2072H72.0276L65.7083 3.69621V13.2072H64.1715V1.16614Z" fill="#232343"/>
<path d="M82.3889 13.5109C81.5985 13.5197 80.8136 13.3819 80.0759 13.1047C79.3946 12.8298 78.782 12.4148 78.2797 11.888C77.7611 11.3072 77.3678 10.6302 77.1231 9.89758C76.8343 9.02646 76.6944 8.11478 76.7092 7.19923C76.6934 6.28044 76.8332 5.36541 77.1231 4.49121C77.3778 3.75922 77.7768 3.08303 78.2975 2.50081C78.7962 1.96656 79.4095 1.54648 80.0937 1.27059C80.8241 0.989236 81.6039 0.850572 82.3889 0.862455C83.1744 0.853558 83.9538 0.996881 84.6822 1.28413C85.3702 1.54483 85.9851 1.96113 86.4764 2.49887C86.998 3.07101 87.3918 3.74293 87.633 4.47186C87.9244 5.33644 88.065 6.24271 88.0488 7.15281C88.0622 8.07158 87.9217 8.9863 87.633 9.86083C87.3995 10.594 87.0116 11.2713 86.4943 11.8493C85.9996 12.3885 85.3852 12.81 84.6981 13.0814C83.9651 13.3728 83.1802 13.5187 82.3889 13.5109ZM82.3889 12.1568C82.9847 12.1694 83.5755 12.0483 84.1158 11.8029C84.6119 11.5759 85.0441 11.2347 85.3753 10.8086C85.7264 10.3364 85.9843 9.80443 86.1358 9.23992C86.3153 8.56815 86.4026 7.87605 86.3952 7.18182C86.4025 6.49905 86.3153 5.81846 86.1358 5.15854C85.9865 4.58445 85.7227 4.04479 85.3595 3.57048C85.0353 3.1395 84.6084 2.79226 84.1158 2.55884C83.5748 2.31645 82.9839 2.19929 82.3889 2.21647C81.7821 2.2037 81.1802 2.32538 80.6284 2.57238C80.1342 2.80486 79.7023 3.14659 79.3669 3.57048C79.0146 4.04741 78.7573 4.58482 78.6084 5.15467C78.4401 5.81631 78.3589 6.49623 78.3668 7.17795C78.3589 7.87115 78.4401 8.56259 78.6084 9.23605C78.7601 9.80015 79.0172 10.332 79.3669 10.8048C79.6954 11.2273 80.1216 11.568 80.6106 11.799C81.1681 12.0482 81.7759 12.1718 82.3889 12.1607V12.1568Z" fill="#232343"/>
<path d="M91.2056 1.16614H92.776L99.0439 10.7274V1.16614H100.581V13.2072H99.0617L92.7423 3.69621V13.2072H91.2056V1.16614Z" fill="#232343"/>
<path d="M64.1715 20.9502H71.8197V22.3158H65.7598V26.2618H71.4395V27.6622H65.7598V32.9912H64.1755L64.1715 20.9502Z" fill="#232343"/>
<path d="M74.6417 20.9502H76.226V28.2193C76.226 29.4663 76.4624 30.3992 76.935 31.0182C77.4076 31.6372 78.1998 31.946 79.3114 31.9448C80.4284 31.9448 81.2166 31.6359 81.676 31.0182C82.1355 30.4005 82.3658 29.4676 82.3672 28.2193V20.9502H83.9515V28.2193C83.969 29.0014 83.8581 29.7811 83.6227 30.5288C83.4435 31.1127 83.1306 31.6492 82.7078 32.0976C82.3073 32.5199 81.8018 32.8337 81.2403 33.0086C80.6104 33.2071 79.9515 33.3038 79.2897 33.2949C77.8044 33.2949 76.6531 32.89 75.8359 32.0802C75.0187 31.2703 74.616 29.9608 74.6279 28.1516L74.6417 20.9502Z" fill="#232343"/>
<path d="M87.4112 20.9502H88.9836L95.2515 30.5114V20.9502H96.7863V32.9912H95.2673L88.9479 23.4802V32.9912H87.4112V20.9502Z" fill="#232343"/>
<path d="M105.785 26.8014H110.395V31.6179C110.08 31.9022 109.732 32.1507 109.36 32.3587C108.984 32.5647 108.591 32.7401 108.185 32.8829C107.775 33.019 107.352 33.12 106.924 33.1846C106.507 33.2519 106.086 33.2862 105.664 33.2872C104.833 33.3006 104.006 33.1574 103.23 32.8655C102.544 32.5849 101.931 32.1587 101.434 31.6179C100.93 31.0417 100.554 30.37 100.329 29.6449C100.064 28.7804 99.9362 27.8816 99.9489 26.9794C99.9326 26.0604 100.073 25.1452 100.365 24.2714C100.607 23.5415 100.994 22.8652 101.504 22.281C101.989 21.7478 102.591 21.3274 103.264 21.0508C103.97 20.7648 104.728 20.6214 105.492 20.6291C106.112 20.6192 106.729 20.7047 107.322 20.8825C107.814 21.0203 108.273 21.2553 108.668 21.573C109.049 21.8766 109.365 22.249 109.601 22.6698C109.852 23.1088 110.038 23.5803 110.154 24.0702L108.617 24.3217C108.53 23.9858 108.402 23.6611 108.237 23.3545C108.093 23.0705 107.89 22.8184 107.643 22.6137C107.382 22.3894 107.076 22.2225 106.744 22.1243C106.336 22.0032 105.91 21.9464 105.484 21.956C104.897 21.9431 104.316 22.0706 103.791 22.3274C103.309 22.5622 102.894 22.9098 102.583 23.339C102.241 23.8198 101.989 24.3562 101.84 24.9232C101.673 25.5948 101.594 26.2845 101.606 26.9755C101.6 27.6629 101.681 28.3484 101.848 29.0162C101.99 29.5808 102.242 30.1135 102.591 30.5849C102.928 31.0165 103.366 31.3633 103.868 31.5966C104.432 31.8443 105.046 31.9653 105.664 31.9506C106.253 31.9543 106.84 31.8808 107.409 31.732C107.943 31.5933 108.446 31.3592 108.892 31.0414V28.1516H105.785V26.8014Z" fill="#232343"/>
<path d="M113.596 20.9502H115.18V32.9912H113.596V20.9502Z" fill="#232343"/>
<path d="M118.782 20.9502H122.874C123.602 20.9321 124.329 21.0175 125.032 21.2036C125.521 21.3218 125.976 21.5466 126.363 21.8612C126.683 22.1124 126.922 22.4481 127.052 22.8284C127.184 23.2144 127.251 23.6188 127.25 24.0257C127.258 24.5468 127.121 25.0601 126.854 25.5113C126.601 25.9484 126.152 26.3134 125.508 26.6061C125.875 26.7389 126.218 26.9269 126.526 27.1632C126.787 27.3502 127.01 27.5847 127.181 27.8537C127.35 28.0926 127.468 28.3623 127.528 28.6468C127.597 28.9227 127.632 29.2059 127.631 29.4901C127.634 29.9615 127.553 30.4297 127.389 30.8732C127.236 31.2922 126.981 31.6687 126.646 31.9699C126.252 32.3146 125.786 32.5707 125.28 32.7204C124.602 32.9163 123.897 33.0077 123.191 32.9912H118.782V20.9502ZM123.082 26.0432C124.015 26.0432 124.682 25.8801 125.084 25.5538C125.485 25.2276 125.687 24.7388 125.69 24.0876C125.69 23.4338 125.471 22.9612 125.032 22.6698C124.594 22.3783 123.857 22.2326 122.822 22.2326H120.329V26.0432H123.082ZM123.133 31.7088C123.604 31.7194 124.074 31.6687 124.531 31.5579C124.858 31.4814 125.165 31.3376 125.43 31.1362C125.65 30.9607 125.812 30.7259 125.896 30.4611C125.992 30.1669 126.039 29.8591 126.034 29.5501C126.034 28.8421 125.821 28.3025 125.395 27.9311C124.968 27.5597 124.255 27.3663 123.254 27.3508H120.329V31.701L123.133 31.7088Z" fill="#232343"/>
<path d="M130.556 20.9502H132.14V31.6179H138.529L138.285 33.0009H130.556V20.9502Z" fill="#232343"/>
<path d="M141.123 20.9502H149.1V22.3158H142.707V26.0935H148.751V27.4765H142.707V31.6179H149.425L149.165 32.9835H141.123V20.9502Z" fill="#232343"/>
<path d="M64.1715 40.7903H65.7558V51.4483H72.1445L71.9029 52.8313H64.1715V40.7903Z" fill="#232343"/>
<path d="M78.6916 40.7903H80.367L85.1496 52.8313H83.4227L82.1275 49.4753H76.8439L75.5507 52.8313H73.8931L78.6916 40.7903ZM81.6443 48.1252L79.4659 42.5428L77.3251 48.1252H81.6443Z" fill="#232343"/>
<path d="M87.5637 40.7903H91.6551C92.3833 40.7719 93.1104 40.8566 93.8137 41.0418C94.3014 41.1613 94.7554 41.386 95.1425 41.6994C95.465 41.9536 95.705 42.2935 95.8337 42.6782C95.9656 43.0642 96.0325 43.4686 96.0317 43.8755C96.0407 44.3961 95.9037 44.9091 95.6357 45.3591C95.3848 45.7989 94.9359 46.1645 94.289 46.4559C94.6575 46.5867 95.0019 46.7748 95.3089 47.013C95.5711 47.1996 95.7937 47.4341 95.9644 47.7035C96.1328 47.9425 96.25 48.2122 96.309 48.4966C96.3794 48.7724 96.4147 49.0557 96.4139 49.3399C96.4177 49.8113 96.3359 50.2795 96.1723 50.723C96.0201 51.1417 95.7652 51.5176 95.4297 51.8178C95.0358 52.1596 94.5701 52.4131 94.0652 52.5605C93.3874 52.7563 92.6825 52.8477 91.9759 52.8313H87.5637V40.7903ZM91.8631 45.8833C92.7965 45.8833 93.4638 45.7202 93.8652 45.394C94.2613 45.0555 94.4692 44.568 94.4692 43.9258C94.4692 43.2836 94.2514 42.802 93.8137 42.5099C93.376 42.2178 92.6512 42.0631 91.6135 42.0631H89.1182V45.8756L91.8631 45.8833ZM91.9145 51.5489C92.3855 51.56 92.8559 51.5086 93.3127 51.3961C93.6395 51.3202 93.946 51.1771 94.2118 50.9763C94.4303 50.7999 94.592 50.5654 94.6772 50.3013C94.7727 50.0067 94.8195 49.6992 94.8158 49.3902C94.8158 48.6823 94.6026 48.1426 94.1761 47.7712C93.7497 47.3998 93.0361 47.2064 92.0353 47.1909H89.1182V51.5412L91.9145 51.5489Z" fill="#232343"/>
<path d="M100.486 49.4134C100.624 50.2568 100.964 50.8693 101.505 51.251C102.047 51.6327 102.864 51.8184 103.957 51.8081C104.412 51.8194 104.866 51.7627 105.304 51.6398C105.626 51.5398 105.925 51.3787 106.183 51.1659C106.394 50.9765 106.555 50.7394 106.651 50.4754C106.816 49.9844 106.834 49.4575 106.702 48.9569C106.643 48.7289 106.524 48.5196 106.357 48.3496C106.166 48.1441 105.934 47.9794 105.674 47.866C105.316 47.7109 104.939 47.6036 104.551 47.5468L102.999 47.276C102.446 47.1897 101.902 47.0544 101.375 46.8718C100.94 46.7226 100.532 46.5064 100.167 46.2315C99.8432 45.9604 99.5889 45.6193 99.4241 45.2353C99.2516 44.7768 99.1697 44.2904 99.1825 43.802C99.1711 43.2979 99.2896 42.799 99.5271 42.3513C99.7667 41.938 100.097 41.5813 100.494 41.3068C100.927 41.0128 101.414 40.8008 101.927 40.682C102.516 40.5467 103.119 40.4817 103.724 40.4886C104.413 40.4704 105.1 40.5612 105.759 40.7574C106.253 40.8956 106.712 41.1313 107.108 41.4499C107.441 41.7261 107.706 42.0718 107.884 42.4616C108.067 42.8271 108.206 43.212 108.298 43.6086L106.813 43.8949C106.733 43.5828 106.611 43.2823 106.45 43.0012C106.32 42.7393 106.125 42.5132 105.882 42.3436C105.626 42.1518 105.332 42.0135 105.019 41.9374C104.606 41.841 104.182 41.7961 103.757 41.8039C103.28 41.7941 102.805 41.8448 102.341 41.9548C102.01 42.0339 101.699 42.1774 101.426 42.3764C101.204 42.5361 101.031 42.7522 100.925 43.0012C100.833 43.2438 100.787 43.5007 100.789 43.7595C100.784 44.0209 100.819 44.2815 100.892 44.5332C100.974 44.7514 101.103 44.9494 101.272 45.1135C101.483 45.2859 101.722 45.4226 101.979 45.5177C102.328 45.6344 102.686 45.7243 103.05 45.7866L104.777 46.0903C106.055 46.3263 106.993 46.7196 107.591 47.2702C108.189 47.8209 108.488 48.6191 108.488 49.6649C108.491 50.1359 108.391 50.6022 108.195 51.0324C108.004 51.4566 107.715 51.8315 107.35 52.1273C106.939 52.4649 106.463 52.7176 105.949 52.87C105.308 53.0604 104.64 53.1511 103.969 53.1389C103.302 53.1454 102.637 53.072 101.989 52.9203C101.438 52.8004 100.916 52.5771 100.452 52.2627C100.015 51.9595 99.6541 51.5625 99.3984 51.1021C99.1205 50.5782 98.956 50.004 98.9152 49.4154L100.486 49.4134Z" fill="#232343"/>
<path d="M53.9429 6.70211C54.3478 6.15321 54.5898 5.50578 54.6421 4.83115C54.6944 4.15652 54.5551 3.48088 54.2394 2.87866C53.9237 2.27645 53.444 1.77103 52.853 1.41809C52.262 1.06516 51.5828 0.878403 50.8901 0.878403C50.1975 0.878403 49.5182 1.06516 48.9273 1.41809C48.3363 1.77103 47.8566 2.27645 47.5409 2.87866C47.2252 3.48088 47.0859 4.15652 47.1382 4.83115C47.1905 5.50578 47.4324 6.15321 47.8374 6.70211C48.1889 7.17063 48.6484 7.55166 49.1788 7.81431C49.7092 8.07696 50.2955 8.21383 50.8901 8.21383C51.4848 8.21383 52.0711 8.07696 52.6015 7.81431C53.1319 7.55166 53.5914 7.17063 53.9429 6.70211Z" fill="#232343"/>
<path d="M7.73286 6.70211C8.31927 5.91105 8.55994 4.92486 8.40191 3.96048C8.24389 2.99611 7.70011 2.13255 6.89021 1.55977C6.08031 0.986997 5.07063 0.751929 4.08328 0.90628C3.09594 1.06063 2.21181 1.59176 1.62539 2.38282C1.03897 3.17388 0.798306 4.16007 0.956333 5.12445C1.11436 6.08882 1.65814 6.95238 2.46804 7.52516C3.27794 8.09793 4.28762 8.333 5.27497 8.17865C6.26231 8.0243 7.14644 7.49317 7.73286 6.70211Z" fill="#232343"/>
<path d="M1.62539 47.2857C1.03897 48.0768 0.798306 49.0629 0.956333 50.0273C1.11436 50.9917 1.65814 51.8553 2.46804 52.428C3.27794 53.0008 4.28762 53.2359 5.27497 53.0815C6.26231 52.9272 7.14644 52.3961 7.73286 51.605C8.02322 51.2133 8.23176 50.7696 8.34655 50.2992C8.46135 49.8288 8.48016 49.3409 8.40191 48.8634C8.32367 48.3859 8.14989 47.9281 7.89051 47.5162C7.63114 47.1042 7.29123 46.7463 6.89021 46.4627C6.48919 46.179 6.0349 45.9754 5.55329 45.8632C5.07167 45.7511 4.57216 45.7327 4.08328 45.8092C3.5944 45.8856 3.12571 46.0553 2.70399 46.3087C2.28226 46.562 1.91575 46.894 1.62539 47.2857Z" fill="#232343"/>
<path d="M47.6057 47.2857C47.2007 47.8346 46.9588 48.482 46.9065 49.1567C46.8541 49.8313 46.9935 50.5069 47.3092 51.1091C47.6249 51.7114 48.1046 52.2168 48.6956 52.5697C49.2865 52.9227 49.9658 53.1094 50.6584 53.1094C51.3511 53.1094 52.0303 52.9227 52.6213 52.5697C53.2122 52.2168 53.692 51.7114 54.0077 51.1091C54.3233 50.5069 54.4627 49.8313 54.4104 49.1567C54.3581 48.482 54.1161 47.8346 53.7112 47.2857C53.3597 46.8172 52.9001 46.4361 52.3698 46.1735C51.8394 45.9109 51.2531 45.774 50.6584 45.774C50.0638 45.774 49.4775 45.9109 48.9471 46.1735C48.4167 46.4361 47.9571 46.8172 47.6057 47.2857Z" fill="#232343"/>
<path d="M46.1362 36.3376C45.5684 35.5709 44.8251 34.9443 43.9656 34.5078C43.106 34.0712 42.154 33.8367 41.1853 33.823H41.0903C36.0245 33.8017 33.1826 32.0666 33.1529 26.8962V26.8169C33.1529 21.5537 36.3215 19.9966 41.0308 19.9966C42.094 19.997 43.1395 19.7308 44.0671 19.2235C44.9948 18.7162 45.7736 17.9848 46.3289 17.0993C46.8843 16.2139 47.1976 15.204 47.239 14.1663C47.2803 13.1287 47.0482 12.0981 46.5649 11.1732C46.0816 10.2482 45.3633 9.45997 44.4788 8.88385C43.5943 8.30773 42.5732 7.96303 41.5132 7.88277C40.4532 7.80252 39.3899 7.98938 38.4251 8.42547C37.4602 8.86157 36.6261 9.53229 36.0027 10.3734C35.2313 11.408 34.8191 12.6566 34.8263 13.9364C34.8263 18.5265 33.1529 21.6253 27.7643 21.6253C22.3757 21.6253 20.5558 18.8611 20.5558 13.8223C20.5645 12.5437 20.1529 11.2961 19.3814 10.2632C18.7539 9.41616 17.9129 8.7419 16.94 8.30577C15.9672 7.86965 14.8954 7.68644 13.8288 7.77393C12.7621 7.86141 11.7367 8.21662 10.8519 8.8051C9.96711 9.39358 9.25303 10.1954 8.77888 11.1327C8.30473 12.0701 8.08659 13.1112 8.14562 14.1552C8.20465 15.1991 8.53884 16.2104 9.11579 17.0911C9.69274 17.9718 10.4929 18.6919 11.4386 19.1816C12.3844 19.6713 13.4436 19.9141 14.5137 19.8863C19.221 19.8863 22.3856 21.5576 22.3856 26.8208V26.9001C22.3559 32.0995 19.522 33.8849 14.4047 33.8849H14.3889C13.3261 33.8878 12.2818 34.157 11.356 34.6667C10.4301 35.1764 9.65361 35.9097 9.10074 36.7962C8.54787 37.6828 8.23711 38.6931 8.19818 39.7305C8.15924 40.7679 8.39345 41.7977 8.87838 42.7214C9.36332 43.6451 10.0828 44.4319 10.9679 45.0064C11.8531 45.581 12.8744 45.9242 13.9341 46.0031C14.9939 46.082 16.0566 45.8941 17.0207 45.4572C17.9848 45.0204 18.8181 44.3492 19.4408 43.508C20.2044 42.4799 20.6155 41.2422 20.6152 39.9721V39.945C20.6152 35.3337 22.3975 32.1633 27.7742 32.1633H27.796C33.1549 32.1633 34.8877 35.2892 34.8957 39.858V39.8947C34.8956 40.8516 35.1273 41.795 35.5718 42.6477C36.0163 43.5004 36.6611 44.2383 37.4534 44.8011C38.2457 45.3639 39.1631 45.7356 40.1306 45.8859C41.0981 46.0362 42.0883 45.9608 43.0203 45.6659C43.9523 45.371 44.7996 44.8649 45.4931 44.1889C46.1865 43.513 46.7064 42.6864 47.0103 41.7767C47.3141 40.867 47.3933 39.9 47.2414 38.9547C47.0895 38.0094 46.7108 37.1126 46.1362 36.3376Z" fill="#232343"/>
</svg>
