<svg width="601" height="46" viewBox="0 0 601 46" fill="none" xmlns="http://www.w3.org/2000/svg">
<path d="M106.2 0.799988L82.5 45.6H90.2L95.4 35.5H126.1L131.3 45.6H139L115.3 0.799988H106.2ZM98.8 29.2L110.8 6.60001L111 7L122.7 29.2H98.8Z" fill="#232343"/>
<path d="M180.4 0.799988V45.6H187.4V8.20001L187.8 8.60001L222.2 45.6H231.3V0.799988H224.2V38.3L223.8 37.9L189.3 0.799988H180.4Z" fill="#232343"/>
<path d="M294.1 14.7H280V21H294.1V45.6H301.2V21H315.3V14.7H301.2V7.10001H322.8V0.799988H272.5V7.10001H294.1V14.7Z" fill="#232343"/>
<path d="M371.1 26.4H397.6V20.1H371.1V7.10001H411V0.799988H364.1V45.6H411V39.3H371.1V26.4Z" fill="#232343"/>
<path d="M576.8 0.799988H567.6L543.9 45.6H551.6L556.8 35.5H587.5L587.6 35.6L592.7 45.6H600.4L576.8 0.799988ZM560.3 29.2L572.3 6.60001L572.5 7L584.2 29.2H560.3Z" fill="#232343"/>
<path d="M37.2 0.799988H0.5V45.6H7.6V28.3H37.2C44.8 28.3 51 22.1 51 14.5C50.9 7 44.8 0.799988 37.2 0.799988ZM37.2 22H7.6V7.10001H37.2C41.3 7.10001 44.6 10.4 44.6 14.5C44.6 18.7 41.3 22 37.2 22Z" fill="#232343"/>
<path d="M492.5 28.1C499.1 26.9 503.9 21.2 503.9 14.5C503.9 6.9 497.7 0.799988 490.1 0.799988H453.4V45.6H460.5V28.3H483.7L483.8 28.4L496 45.6H504.2L492.3 28.1H492.5ZM460.6 22V7.10001H490.2C494.3 7.10001 497.6 10.4 497.6 14.5C497.6 18.6 494.3 22 490.2 22H460.6Z" fill="#232343"/>
</svg>
