<svg fill="none" height="98" viewBox="0 0 327 98" width="327" xmlns="http://www.w3.org/2000/svg"><g fill="#232343"><path d="m54.221 5.51618c0-3.0465-2.4702-5.51618-5.5173-5.51618l-.0358.00007592c-.0198.00006301-.0396.00012601-.0594.00001527-26.8546.05141011-48.6085 21.83290881-48.6085 48.69440881 0 26.8933 21.8054 48.6945 48.7037 48.6945 8.8656 0 17.1779-2.3683 24.3385-6.5067l-.0022-.0037c1.6002-.9657 2.6701-2.7209 2.6701-4.7259 0-3.0465-2.4702-5.5161-5.5173-5.5161-1.06 0-2.0502.2989-2.8909.8172-5.4869 3.1205-11.8343 4.9029-18.5982 4.9029-20.8041 0-37.6693-16.8619-37.6693-37.6622 0-20.8002 16.8652-37.6621 37.6693-37.6621 3.0471 0 5.5173-2.46973 5.5173-5.51622z"/><path d="m80.8456 48.6471v.0951c0 1.7596 1.4282 3.186 3.1898 3.186h10.1639c1.7616 0 3.1897-1.4264 3.1897-3.186v-.0951c0-1.7597-1.4281-3.1861-3.1897-3.1861h-10.1639c-1.7616 0-3.1898 1.4264-3.1898 3.1861z"/><path d="m76.5148 64.8281.0463-.0803c.8799-1.5245 2.8304-2.0478 4.3566-1.169l8.8077 5.0867c1.5237.88 2.0458 2.8264 1.1668 4.3494l-.0464.0804c-.8799 1.5244-2.8304 2.0478-4.3566 1.1689l-8.8076-5.0867c-1.5237-.8799-2.0459-2.8264-1.1668-4.3494z"/><path d="m76.5538 32.6301.0484.0839c.8818 1.5232 2.833 2.0441 4.3581 1.1633l8.8041-5.0846c1.5237-.88 2.0459-2.8264 1.1668-4.3495l-.0463-.0803-.0021-.0035c-.8818-1.5233-2.8329-2.0442-4.358-1.1634l-8.8042 5.0847c-1.5237.8799-2.0458 2.8264-1.1668 4.3494z"/><path d="m64.7927 20.854c-1.5237-.88-2.0459-2.8264-1.1668-4.3495l5.0854-8.81093c.8799-1.52443 2.8304-2.0478 4.3566-1.16897l.0035.00203.0763.04403c1.5236.87998 2.0458 2.82639 1.1667 4.34944l-5.0854 8.811c-.8799 1.5244-2.8304 2.0478-4.3566 1.1689z"/></g><path d="m65.4222 38.6851.0034.0041c1.9591 2.3344 1.6545 5.8128-.6808 7.7719l-17.9245 15.0376c-.8264.6933-1.7968 1.103-2.7925 1.2394-.0094.0012-.0189.0025-.0284.0038-.0089.0012-.0178.0023-.0267.0035-1.6381.213-3.3538-.3087-4.6129-1.5651l-9.0843-9.0826c-2.1552-2.1548-2.1552-5.6462 0-7.801 2.1525-2.1521 5.6441-2.1538 7.7987-.0038l5.5154 5.5144 14.0624-11.7975c2.3324-1.9567 5.8112-1.6543 7.7702.6753z" fill="#232343"/><path d="m130.703 65.1625h-8.593l8.116-39.2474 8.833-1.2349-4.238 20.6186c6.028-.494 10.444-8.5804 10.444-15.1859 0-4.5682-2.788-7.5213-7.46-7.659-8.043 0-15.397 4.8811-15.397 14.2645 0 2.3001.414 3.1831.66 3.7088.091.1938.159.3391.176.4889-4.113 0-6.377-1.5434-6.377-5.9881 0-8.2104 10.972-16.0418 20.938-16.0418 9.785 0 14.075 5.794 14.075 12.1526 0 7.8399-6.495 16.5357-17.238 16.5357h-.298z" fill="#232343"/><path clip-rule="evenodd" d="m163.204 41.3102.579-2.8225h7.577l-3.788 18.1423c-.158.6939-.211 1.2278-.211 1.7081 0 1.4945.684 2.2952 2.157 2.2952 2.053 0 3.474-2.3488 4.263-5.0175h.008l3.997-19.102h7.578l-.842 3.9979c1.526-1.3317 3.525-2.2907 6.155-2.2907 3.575 0 6.414 2.0775 6.414 8.4262 0 7.2066-2.734 18.8349-12.938 18.8349-2.63 0-3.893-.9057-4.472-1.9179l-2.737 13.0173-7.945 1.9212 3.413-16.3097c-2.465 2.7871-5.137 3.2895-6.998 3.2895-2.946 0-4.841-1.7052-5.156-4.9024-1.632 2.4514-4.105 4.9024-7.84 4.9024-3.575 0-6.992-2.2379-6.992-8.5857 0-7.2062 4.363-18.6754 13.516-18.6754 2.999 0 4.262 1.1717 4.262 2.7161zm-.473 2.2414c0-.6407-.474-2.0284-2.157-2.0284-4.473 0-7.367 9.6086-7.367 14.626 0 4.1104 1.684 4.1636 2.631 4.1636 1.526 0 3.736-1.6013 4.367-4.6971zm19.792 17.2949c-1.21 0-1.789-.6407-1.999-1.2277l3.104-14.9464c1-1.7085 2.473-2.6159 3.631-2.6159.947 0 2.631.3203 2.631 4.4308 0 5.0178-1.842 14.3592-7.367 14.3592z" fill="#232343" fill-rule="evenodd"/><path clip-rule="evenodd" d="m206.144 54.3832c-.053.7479-.106 1.4954-.106 2.1365 0 3.6321 1.264 4.4868 3.792 4.4868 4.16 0 6.682-2.35 9.31-5.3947l3.582-17.124h7.577l-.684 3.3036c1.842-1.5984 3.841-3.3036 6.367-3.3036 2.368 0 3.631 1.9715 3.631 3.9962 0 1.8672-1.21 3.8948-3.789 3.8948-1.701 0-1.929-1.174-2.121-2.1664-.141-.7263-.263-1.3553-.931-1.3553-1.578 0-2.525.8003-3.841 2.0276l-4.209 20.2775h-7.577l1.24-5.9304c-2.85 3.4649-6.675 6.2504-11.925 6.2504-4.943 0-8.203-2.451-8.203-8.4818 0-6.1331 3.418-18.9925 14.206-18.9925 4.68 0 5.783 2.4486 5.783 5.1172 0 6.1405-5.783 10.8854-12.102 11.2581zm.422-2.5549c4.055-.2667 7.636-4.3784 7.636-8.81 0-1.3349-.316-2.1892-1.317-2.1892-2.685 0-5.266 5.7134-6.319 10.9992z" fill="#232343" fill-rule="evenodd"/><path clip-rule="evenodd" d="m255.605 59.3741-1.213 5.768h7.577l3.631-17.3478c.315-1.4414 1.947-4.6971 3.999-4.6971 1.315 0 1.947.9606 1.947 2.7223-.001 1.681-.575 4.1252-1.157 6.6065-.601 2.5611-1.211 5.1623-1.211 7.0061 0 3.0393 1.629 6.0234 6.203 6.0234 1.862 0 4.288-.4992 6.572-3.437.856 2.3791 2.822 3.4371 5.164 3.4371 1.905 0 4.875-.5271 7.53-3.4966l-.736 3.5574c-.417.1289-.826.2523-1.226.3729-4.404 1.3269-7.721 2.3261-7.721 6.8296 0 3.466 2.993 5.7575 6.204 5.7575 3.473 0 8-1.4389 9.579-9.0685l6-28.8183h7.102l-3.102 14.9995c-.263 1.281-.421 2.4556-.421 3.4698 0 4.4786 2.471 6.3969 5.626 6.3969 2.84 0 8.049-1.1721 11.048-9.8667h-2.21c-.789 2.6691-2.684 4.6975-4.736 4.6975-1.473 0-2.157-.4807-2.157-1.9752 0-.4803.053-1.0142.21-1.7081l3.315-16.0137h3.21l.421-2.1282h-3.157l2-9.6114c-4.736-1.9179-9.206-3.6755-13.938-3.6755-3.421 0-8 1.438-9.579 9.0689l-4.415 21.346h-.008c-.789 2.6687-2.684 4.6971-4.736 4.6971-1.473 0-2.157-.4803-2.157-1.9753 0-.4803.053-1.0137.21-1.7076l3.789-18.1481h-7.571l-3.578 17.1339c-.219 1.0669-.365 2.0598-.408 2.9479-.733 1.0954-1.618 1.749-2.968 1.749-1.578 0-2.104-.9074-2.104-2.242.001-1.3569.521-3.4278 1.088-5.6892.684-2.7228 1.437-5.7219 1.437-8.0837 0-4.2651-2.47-6.0234-5.835-6.0234-1.63 0-3.945.4263-6.155 2.984l2.841-13.4431-7.787 1.0673-5.791 27.5392c-.992.8073-2.366 1.7815-3.632 2.5424.158-.6403.21-1.2806.21-2.0276 0-1.5371-.1-2.7998-.266-4.884-.213-2.6909-.535-6.7522-.891-14.5397l-7.782 1.0674c-1.633 5.2293-3.529 10.5122-6.478 15.7948-1.418.6938-2.782 2.5083-2.782 4.9626 0 3.2541 2.31 6.8236 7.68 6.8236 2.685 0 4.828-.6576 7.358-2.1884 1.794-1.0853 3.927-2.6876 5.957-4.5724zm-14.538-4.9717c.683.3199 1.209.9602 1.209 1.8676 0 1.2805-.946 2.6147-2.314 2.6147-.527 0-1.158-.16-1.422-.6939 0 2.5042.895 3.7287 3.213 3.7287 2.317 0 4.581-1.2245 4.581-4.956 0-1.3466-.111-2.4293-.286-4.1263-.186-1.7999-.443-4.2907-.713-8.5204-1.055 3.4685-2.531 6.6703-4.268 10.0856zm66.101-15.941h7.154l1.892-9.0776c-1.367-.587-3.627-.8542-4.311-.8542-1.156 0-2.84.6407-3.577 4.2184zm-19.315 33.5102c0-2.7769 2.202-3.5187 5.326-4.571l.365-.1232-.48 2.291c-.685 3.1506-2 4.1653-3.106 4.1653-1.158 0-2.105-1.0147-2.105-1.7621z" fill="#232343" fill-rule="evenodd"/><path d="m290.699 35.5734c-2.313 0-4.153-1.866-4.153-4.2123 0-2.3459 1.84-4.2654 4.153-4.2654 2.314 0 4.206 1.9195 4.206 4.2654 0 2.3463-1.892 4.2123-4.206 4.2123z" fill="#232343"/></svg>