<svg width="149" height="46" viewBox="0 0 149 46" fill="none" xmlns="http://www.w3.org/2000/svg">
<path d="M53.7182 17.6999C54.2424 16.7819 54.9269 16.0622 55.7715 15.5406C56.6161 15.0191 57.582 14.7583 58.6694 14.7583V19.3585H57.5918C56.3103 19.3585 55.3443 19.6819 54.6939 20.3286C54.0434 20.9754 53.7182 22.1019 53.7182 23.7084V32.3455H49.6406V15.0087H53.7182V17.6999ZM74.7518 23.3015C74.7518 23.9274 74.7129 24.4907 74.6353 24.9914H62.8396C62.9367 26.2432 63.3444 27.2237 64.0629 27.933C64.7813 28.6424 65.6647 28.997 66.7132 28.997C68.2278 28.997 69.3054 28.2981 69.9461 26.9003H74.344C73.878 28.5693 72.9849 29.941 71.6645 31.0155C70.3442 32.0899 68.7229 32.6271 66.8006 32.6271C65.2473 32.6271 63.8541 32.2568 62.6212 31.5162C61.3882 30.7756 60.4271 29.7272 59.7378 28.3712C59.0485 27.0151 58.7039 25.4504 58.7039 23.6771C58.7039 21.8828 59.0436 20.3078 59.7232 18.9516C60.4028 17.5956 61.3542 16.5524 62.5775 15.8223C63.8007 15.092 65.2084 14.727 66.8006 14.727C68.3345 14.727 69.7083 15.0817 70.9218 15.791C72.1354 16.5003 73.0771 17.5069 73.747 18.8109C74.4169 20.1148 74.7518 21.6116 74.7518 23.3015ZM70.5286 22.0498C70.5092 20.9232 70.1306 20.0208 69.3927 19.3428C68.6549 18.6648 67.752 18.3258 66.6841 18.3258C65.6744 18.3258 64.825 18.6544 64.1356 19.3115C63.4464 19.9687 63.0241 20.8815 62.8687 22.0498H70.5286ZM82.2422 32.6271C80.9219 32.6271 79.7374 32.3716 78.6889 31.8604C77.6404 31.3493 76.8104 30.6556 76.1988 29.7794C75.5871 28.9031 75.2522 27.9331 75.194 26.869H79.3006C79.3782 27.5366 79.684 28.0895 80.218 28.5276C80.752 28.9657 81.417 29.1848 82.2131 29.1848C82.9898 29.1848 83.5966 29.0179 84.0334 28.6841C84.4703 28.3503 84.6887 27.9226 84.6887 27.401C84.6887 26.8377 84.4218 26.4153 83.8878 26.1336C83.3538 25.852 82.5044 25.5442 81.3393 25.2105C80.1355 24.8975 79.1501 24.5741 78.3831 24.2403C77.6162 23.9066 76.956 23.3954 76.4027 22.7069C75.8493 22.0185 75.5726 21.0901 75.5726 19.9218C75.5726 18.9621 75.8298 18.0859 76.3443 17.2931C76.8589 16.5003 77.5967 15.8744 78.5579 15.4154C79.519 14.9565 80.65 14.727 81.951 14.727C83.8732 14.727 85.4071 15.2433 86.5527 16.276C87.6983 17.3087 88.3293 18.7013 88.4458 20.4538H84.5431C84.4849 19.7653 84.2179 19.2176 83.7422 18.8108C83.2665 18.404 82.6306 18.2006 81.8345 18.2006C81.0966 18.2006 80.5287 18.3466 80.1306 18.6387C79.7326 18.9308 79.5336 19.3376 79.5336 19.8591C79.5336 20.4433 79.8054 20.8867 80.3491 21.1892C80.8928 21.4917 81.7374 21.7994 82.883 22.1123C84.048 22.4253 85.0091 22.7486 85.7664 23.0825C86.5236 23.4163 87.1789 23.9326 87.7323 24.6315C88.2857 25.3304 88.5721 26.2536 88.5915 27.401C88.5915 28.4024 88.3342 29.2995 87.8197 30.0923C87.3051 30.8851 86.5673 31.5057 85.6062 31.9543C84.645 32.4028 83.5237 32.6271 82.2422 32.6271ZM95.0335 18.6074V26.9942C95.0335 27.5784 95.1645 28.0008 95.4266 28.2616C95.6888 28.5224 96.1305 28.6527 96.7518 28.6527H98.6449V32.3455H96.0819C92.6452 32.3455 90.9268 30.5513 90.9268 26.9629V18.6074H89.0045V15.0086H90.9268V10.7213H95.0335V15.0086H98.6449V18.6074H95.0335ZM98.8832 23.6145C98.8832 21.862 99.2085 20.3078 99.8589 18.9516C100.509 17.5956 101.393 16.5524 102.509 15.8223C103.626 15.092 104.873 14.727 106.252 14.727C107.456 14.727 108.509 14.9878 109.412 15.5093C110.315 16.0309 111.038 16.688 111.582 17.4809V15.0086H115.688V32.3455H111.582V29.8107C111.058 30.6243 110.334 31.2971 109.412 31.8291C108.49 32.3611 107.427 32.6271 106.223 32.6271C104.864 32.6271 103.626 32.2516 102.509 31.5006C101.393 30.7495 100.509 29.6907 99.8589 28.3242C99.2085 26.9577 98.8832 25.3878 98.8832 23.6145ZM111.582 23.6771C111.582 22.6131 111.388 21.7003 110.999 20.9388C110.611 20.1773 110.087 19.5932 109.427 19.1863C108.766 18.7796 108.058 18.5761 107.3 18.5761C106.543 18.5761 105.844 18.7743 105.203 19.1707C104.563 19.5671 104.043 20.1461 103.645 20.9075C103.247 21.6691 103.048 22.5713 103.048 23.6145C103.048 24.6576 103.247 25.5703 103.645 26.3527C104.043 27.135 104.568 27.7348 105.218 28.1521C105.868 28.5693 106.563 28.7779 107.3 28.7779C108.058 28.7779 108.766 28.5746 109.427 28.1677C110.087 27.7609 110.611 27.1768 110.999 26.4152C111.388 25.6538 111.582 24.741 111.582 23.6771ZM116.975 23.6771C116.975 21.8828 117.315 20.313 117.995 18.9673C118.674 17.6216 119.616 16.5786 120.82 15.8379C122.024 15.0973 123.402 14.727 124.956 14.727C126.955 14.727 128.611 15.2642 129.921 16.3386C131.232 17.4131 132.111 18.9204 132.557 20.8606H128.159C127.926 20.1095 127.533 19.5202 126.98 19.0925C126.426 18.6648 125.742 18.451 124.926 18.451C123.761 18.451 122.839 18.9047 122.16 19.8122C121.48 20.7198 121.14 22.008 121.14 23.6771C121.14 25.3252 121.48 26.603 122.16 27.5106C122.839 28.4181 123.761 28.8719 124.926 28.8719C126.577 28.8719 127.654 28.0791 128.159 26.4935H132.557C132.111 28.3711 131.227 29.8628 129.907 30.9685C128.586 32.0742 126.936 32.6271 124.956 32.6271C123.402 32.6271 122.024 32.2568 120.82 31.5162C119.616 30.7756 118.674 29.7324 117.995 28.3868C117.315 27.0411 116.975 25.4712 116.975 23.6771ZM143.455 32.3455L137.98 24.9601V32.3455H133.902V9.18795H137.98V22.3627L143.397 15.0086H148.698L141.591 23.7083L148.756 32.3455L143.455 32.3455Z" fill="#232343"/>
<path fill-rule="evenodd" clip-rule="evenodd" d="M6.55209 23.0652L1.84271 27.0374C1.57795 27.2607 1.33966 27.5181 1.13317 27.8038C-0.261849 29.7338 0.062449 32.5143 1.85756 34.0141L13.406 43.6631C15.8885 45.7372 19.3633 45.7369 21.8454 43.6622L33.3891 34.0136C33.6544 33.7919 33.8934 33.5361 34.1009 33.2519C35.5045 31.329 35.1925 28.547 33.404 27.0379L28.6959 23.0652L21.8737 28.7674C19.375 30.856 15.8769 30.8563 13.3778 28.7683L6.55209 23.0652Z" fill="#232343"/>
<path fill-rule="evenodd" clip-rule="evenodd" d="M28.6959 23.045L21.8845 17.2977C19.3844 15.1882 15.8674 15.1878 13.3669 17.2969L6.55198 23.045L1.84351 19.1109C0.0383691 17.6027 -0.287815 14.8067 1.11498 12.8659C1.32263 12.5786 1.56227 12.3198 1.82852 12.0952L13.367 2.36303C15.8674 0.254001 19.3844 0.254348 21.8845 2.36387L33.4182 12.0958C35.2166 13.6132 35.5303 16.4109 34.1189 18.3444C33.9103 18.6302 33.67 18.8875 33.4032 19.1104L28.6959 23.045Z" fill="#232343"/>
</svg>
