<svg width="188" height="34" viewBox="0 0 188 34" fill="none" xmlns="http://www.w3.org/2000/svg">
<path d="M64.2107 17.61C64.0314 17.5378 63.8161 17.4478 63.5649 17.3397C63.3497 17.2677 63.0807 17.1957 62.7578 17.1236C62.4709 17.0516 62.13 17.0156 61.7354 17.0156C61.1973 17.0156 60.6592 17.1236 60.1211 17.3397C59.6189 17.5198 59.1526 17.7901 58.722 18.1503C58.3274 18.4745 58.0046 18.8888 57.7534 19.3932C57.5023 19.8975 57.3767 20.4739 57.3767 21.1224V31.9299H52.9643V13.2329H55.8701L56.4081 15.8807H56.6235C57.0181 15.2683 57.6458 14.6739 58.5067 14.0975C59.3678 13.4851 60.5516 13.1788 62.0583 13.1788C62.6682 13.1788 63.2062 13.2329 63.6726 13.341C64.1389 13.449 64.5335 13.5571 64.8564 13.6651C65.2152 13.8093 65.5201 13.9714 65.7713 14.1515L64.2107 17.61ZM87.4665 22.6895C87.4665 24.1665 87.1975 25.5174 86.6594 26.7422C86.1213 27.9312 85.3859 28.9398 84.4532 29.7684C83.5204 30.5969 82.4263 31.2453 81.1707 31.7137C79.9152 32.146 78.5878 32.3622 77.1888 32.3622C75.7896 32.3622 74.4624 32.146 73.2067 31.7137C71.9512 31.2453 70.857 30.5969 69.9243 29.7684C69.0275 28.9398 68.31 27.9312 67.7719 26.7422C67.2337 25.5174 66.9647 24.1665 66.9647 22.6895C66.9647 21.1764 67.2337 19.8255 67.7719 18.6366C68.31 17.4118 69.0275 16.367 69.9243 15.5025C70.857 14.6378 71.9512 13.9714 73.2067 13.5031C74.4624 13.0347 75.7896 12.8006 77.1888 12.8006C78.5878 12.8006 79.9152 13.0347 81.1707 13.5031C82.4263 13.9714 83.5204 14.6378 84.4532 15.5025C85.3859 16.367 86.1213 17.4118 86.6594 18.6366C87.1975 19.8255 87.4665 21.1764 87.4665 22.6895ZM77.1888 28.7957C78.8389 28.7957 80.238 28.2553 81.3859 27.1746C82.5697 26.0938 83.1617 24.5807 83.1617 22.6354C83.1617 20.69 82.5697 19.159 81.3859 18.0422C80.238 16.9254 78.8389 16.367 77.1888 16.367C75.5385 16.367 74.1395 16.9254 72.9915 18.0422C71.8435 19.159 71.2695 20.69 71.2695 22.6354C71.2695 24.5807 71.8435 26.0938 72.9915 27.1746C74.1395 28.2553 75.5385 28.7957 77.1888 28.7957ZM110.675 31.9299H107.769L107.015 29.3361H106.8C106.692 29.5522 106.477 29.8404 106.154 30.2007C105.867 30.5249 105.455 30.8491 104.917 31.1733C104.379 31.4976 103.715 31.7678 102.926 31.9839C102.137 32.2361 101.204 32.3622 100.128 32.3622C97.5088 32.3622 95.4819 31.6056 94.047 30.0927C92.6479 28.5796 91.9483 26.5441 91.9483 23.9863V13.2329H96.3609V23.3919C96.3609 24.905 96.7375 26.1658 97.4909 27.1746C98.2801 28.1833 99.4819 28.6876 101.096 28.6876C101.921 28.6876 102.657 28.5616 103.302 28.3093C103.948 28.0212 104.486 27.6609 104.917 27.2286C105.347 26.7603 105.67 26.2559 105.885 25.7155C106.136 25.1751 106.262 24.6348 106.262 24.0944V13.2329H110.675V31.9299ZM118.158 13.2329V7.61292H122.517V13.2329H129.458V16.7994H122.517V24.1485C122.517 25.7335 122.822 26.8864 123.432 27.6069C124.077 28.2913 125.028 28.6336 126.284 28.6336C126.894 28.6336 127.485 28.5075 128.059 28.2553C128.311 28.1473 128.562 28.0212 128.813 27.877L130.266 30.9032C129.942 31.1913 129.548 31.4436 129.082 31.6597C128.688 31.8399 128.186 32.0019 127.575 32.146C127.001 32.2902 126.356 32.3622 125.638 32.3622C123.235 32.3622 121.387 31.6777 120.095 30.3088C118.804 28.9398 118.158 26.9404 118.158 24.3106V16.7994H114.552V13.2329H118.158ZM136.256 6.09995C135.502 6.09995 134.857 5.8477 134.319 5.34341C133.816 4.80301 133.565 4.1546 133.565 3.39805C133.565 2.64151 133.816 1.9931 134.319 1.4527C134.857 0.912295 135.502 0.642151 136.256 0.642151C137.009 0.642151 137.654 0.912295 138.193 1.4527C138.731 1.9931 139 2.64151 139 3.39805C139 4.1546 138.731 4.80301 138.193 5.34341C137.654 5.8477 137.009 6.09995 136.256 6.09995ZM134.05 13.2329H138.462V31.9299H134.05V13.2329ZM149.076 31.9299H144.663V13.2329H147.569L148.106 15.8807H148.322C148.968 14.9441 149.829 14.2055 150.905 13.6651C152.017 13.0888 153.434 12.8006 155.156 12.8006C157.774 12.8006 159.801 13.5571 161.237 15.0702C162.708 16.5832 163.443 18.6186 163.443 21.1764V31.9299H159.084V21.7708C159.084 20.2577 158.672 18.9969 157.846 17.9882C157.022 16.9794 155.801 16.4752 154.188 16.4752C153.291 16.4752 152.52 16.6373 151.873 16.9614C151.228 17.2497 150.69 17.628 150.259 18.0962C149.864 18.5285 149.56 19.0329 149.345 19.6093C149.165 20.1497 149.076 20.672 149.076 21.1764V31.9299ZM185.614 30.2547C185.112 30.6509 184.521 31.0112 183.839 31.3355C183.229 31.6236 182.476 31.8759 181.579 32.092C180.718 32.3082 179.713 32.4162 178.566 32.4162C176.951 32.4162 175.48 32.182 174.153 31.7137C172.862 31.2093 171.749 30.5249 170.817 29.6603C169.92 28.7957 169.221 27.769 168.717 26.5802C168.216 25.3553 167.965 24.0404 167.965 22.6354C167.965 21.2304 168.198 19.9336 168.664 18.7447C169.167 17.5198 169.848 16.4752 170.708 15.6105C171.57 14.7099 172.592 14.0254 173.776 13.5571C174.996 13.0527 176.341 12.8006 177.812 12.8006C179.247 12.8006 180.539 13.0347 181.686 13.5031C182.835 13.9714 183.803 14.6378 184.593 15.5025C185.417 16.331 186.027 17.3217 186.422 18.4745C186.852 19.6273 187.068 20.8702 187.068 22.2031C187.068 22.3112 187.05 22.4372 187.014 22.5814C187.014 22.7255 187.014 22.8696 187.014 23.0136V23.5H172.269C172.448 25.3373 173.131 26.7062 174.314 27.6069C175.534 28.4714 176.987 28.9038 178.673 28.9038C179.534 28.9038 180.305 28.8317 180.987 28.6876C181.668 28.5075 182.242 28.3274 182.709 28.1473C183.247 27.9312 183.713 27.6609 184.107 27.3366L185.614 30.2547ZM177.758 16.259C176.395 16.259 175.229 16.6373 174.26 17.3938C173.328 18.1503 172.701 19.2311 172.377 20.636H182.763C182.584 19.3752 182.045 18.3304 181.148 17.5018C180.287 16.6733 179.157 16.259 177.758 16.259Z" fill="#232343"/>
<path d="M1.55698 33.3164C1.02753 33.3164 0.599574 32.8695 0.599574 32.319C0.581034 29.5287 1.13215 26.7665 2.21579 24.2148C3.23944 21.6426 4.76038 19.3176 6.68324 17.3844C15.3156 9.27587 28.4329 9.27587 37.0663 17.3844C38.9892 19.3176 40.5102 21.6426 41.5347 24.2148C42.6186 26.7665 43.1696 29.5287 43.151 32.319C43.151 32.8684 42.7221 33.3141 42.1947 33.3141L1.55698 33.3164Z" fill="#232343"/>
</svg>
