<svg width="155" height="40" viewBox="0 0 155 40" fill="none" xmlns="http://www.w3.org/2000/svg">
<g clip-path="url(#clip0_34809_488712)">
<path d="M44.1926 0.683838L47.9026 7.04459L51.5922 13.3787L44.2263 13.4097L36.8936 13.4368L40.5499 7.04459L44.1926 0.683838Z" fill="#232343"/>
<path d="M29.5188 26.2587L22.069 25.7042L14.4761 26.2876L18.3403 32.754L22.0225 39.2945L25.6934 32.7164L29.5188 26.2587Z" fill="#232343"/>
<path d="M29.4286 26.3424L22.6082 26.3368L14.5762 26.3302L22.0128 13.4792L27.2322 18.3657L29.4286 26.3424Z" fill="#232343"/>
<path d="M21.9797 13.4273L29.5976 12.3586L36.8936 13.4368L33.0998 19.8763L29.4288 26.3424L25.7465 19.8382L21.9797 13.4273Z" fill="#232343"/>
<path d="M36.8268 13.5502L40.516 7.049L44.3169 0.626756L36.8396 0.683849L29.3748 0.604431L32.2559 7.61554L36.8268 13.5502Z" fill="#232343"/>
<path d="M29.4533 0.679443L36.8061 13.4097H22.1001L29.4533 0.679443Z" fill="#232343"/>
<path d="M36.8268 13.5503L36.9242 13.3787H36.7297L36.8268 13.5503Z" fill="#232343"/>
<path d="M14.7202 0.726624L7.46778 13.2827L7.44873 13.4097H21.9533L22.0731 13.3625L14.8209 0.806408L14.7202 0.726624Z" fill="#232343"/>
<path d="M7.44655 13.4142L0.09375 0.683838H14.7997L7.44655 13.4142Z" fill="#232343"/>
<path d="M22.0998 13.4142L29.4529 0.683838H14.7471L22.0998 13.4142Z" fill="#232343"/>
<path d="M88.0015 11.1135H77.0313V39.2945H68.8711V11.1135H56.8486V3.4627H88.0015V11.1135ZM153.573 39.2945H147.046C144.433 39.2945 142.385 38.5424 140.897 37.0381C139.411 35.5336 138.667 33.4219 138.667 30.7031V18.906H133.608V13.5224H138.667V3.354H145.793V13.5224H153.573V18.906H145.793V28.3103C145.793 31.8995 146.846 33.6939 148.949 33.6939H153.573V39.2945ZM131.019 39.2945H123.837V24.6157C123.837 22.9841 123.692 21.9148 123.402 21.4071C122.749 20.2111 121.244 19.6127 118.887 19.6127H113.011V39.2945H105.939V13.5224H119.539C123.492 13.5224 126.321 14.175 128.026 15.48C130.02 17.0025 131.019 19.7398 131.019 23.6913V39.2945ZM91.9026 39.2945H99.2466V13.5224H91.9026V39.2945Z" fill="#232343"/>
<path d="M100.089 11.1135L95.5745 3.46271L91.0601 11.1135H100.089Z" fill="#232343"/>
</g>
<defs>
<clipPath id="clip0_34809_488712">
<rect width="154.18" height="39.16" fill="white" transform="translate(0.0769043 0.419983)"/>
</clipPath>
</defs>
</svg>
